<svg width="235" height="159" viewBox="0 0 235 159" fill="none" xmlns="http://www.w3.org/2000/svg">
<path d="M231.794 96.5664H3.78809" stroke="#263238" stroke-width="0.397977" stroke-linecap="round" stroke-linejoin="round"/>
<path d="M231.794 99.666H3.78809" stroke="#263238" stroke-width="0.397977" stroke-linecap="round" stroke-linejoin="round"/>
<path d="M188.793 103.203C190.541 103.203 191.958 99.4848 191.958 94.8987C191.958 90.3125 190.541 86.5947 188.793 86.5947C187.045 86.5947 185.628 90.3125 185.628 94.8987C185.628 99.4848 187.045 103.203 188.793 103.203Z" fill="#003366" stroke="#263238" stroke-width="0.397977" stroke-miterlimit="10"/>
<path d="M198.63 89.7769C197.642 92.8767 195.74 95.0707 194.383 94.6402C193.026 94.2096 192.73 91.3337 193.719 88.2202C194.707 85.1066 196.612 82.9264 197.969 83.357C199.326 83.7875 199.619 86.6634 198.63 89.7769Z" fill="#003366" stroke="#263238" stroke-width="0.397977" stroke-miterlimit="10"/>
<path d="M175.399 108.565C172.175 108.018 169.754 106.437 169.992 105.035C170.229 103.633 173.036 102.937 176.257 103.485C179.477 104.033 181.902 105.61 181.664 107.012C181.426 108.414 178.619 109.109 175.399 108.565Z" fill="#003366" stroke="#263238" stroke-width="0.397977" stroke-miterlimit="10"/>
<path d="M201.612 100.886C198.919 103.555 195.757 104.716 194.507 103.472C193.257 102.229 194.459 99.0603 197.152 96.391C199.846 93.7218 203.025 92.5645 204.24 93.8113C205.456 95.0581 204.302 98.2165 201.612 100.886Z" fill="#003366" stroke="#263238" stroke-width="0.397977" stroke-miterlimit="10"/>
<path d="M183.062 93.563C185.666 97.3516 186.441 101.323 184.785 102.456C183.128 103.589 179.694 101.45 177.09 97.6719C174.486 93.8936 173.711 89.9156 175.368 88.779C177.025 87.6424 180.476 89.7881 183.062 93.563Z" fill="#003366" stroke="#263238" stroke-width="0.397977" stroke-miterlimit="10"/>
<path d="M189.014 102.793L189.258 128.056" stroke="#263238" stroke-width="0.397977" stroke-miterlimit="10" stroke-linecap="round"/>
<path d="M188.717 91.8125L189.013 102.793" stroke="#263238" stroke-width="0.397977" stroke-miterlimit="10" stroke-linecap="round"/>
<path d="M188.741 90.0215L188.717 90.8619" stroke="#263238" stroke-width="0.397977" stroke-miterlimit="10" stroke-linecap="round"/>
<path d="M184.784 101.918C186.598 105.669 187.66 109.738 187.912 113.897V129.523" stroke="#263238" stroke-width="0.397977" stroke-miterlimit="10" stroke-linecap="round"/>
<path d="M179.343 93.5967C181.518 96.1169 183.348 98.9151 184.785 101.918" stroke="#263238" stroke-width="0.397977" stroke-miterlimit="10" stroke-linecap="round"/>
<path d="M177.634 91.7852C177.634 91.7852 177.978 92.0848 178.498 92.66" stroke="#263238" stroke-width="0.397977" stroke-miterlimit="10" stroke-linecap="round"/>
<path d="M194.704 103.09C192.483 106.204 190.752 109.64 189.572 113.278" stroke="#263238" stroke-width="0.397977" stroke-miterlimit="10" stroke-linecap="round"/>
<path d="M198.347 98.9033C197.005 100.182 195.785 101.583 194.703 103.088" stroke="#263238" stroke-width="0.397977" stroke-miterlimit="10" stroke-linecap="round"/>
<path d="M202.236 95.9395C201.253 96.499 200.329 97.158 199.48 97.9061" stroke="#263238" stroke-width="0.397977" stroke-miterlimit="10" stroke-linecap="round"/>
<path d="M194.568 93.8691C192.815 99.3799 190.463 107.546 189.364 114.624" stroke="#263238" stroke-width="0.397977" stroke-miterlimit="10" stroke-linecap="round"/>
<path d="M195.63 90.5938C195.316 91.5237 194.941 92.6293 194.559 93.8692" stroke="#263238" stroke-width="0.397977" stroke-miterlimit="10" stroke-linecap="round"/>
<path d="M196.736 87.4248C196.736 87.4248 196.43 88.2721 195.934 89.7186" stroke="#263238" stroke-width="0.397977" stroke-miterlimit="10" stroke-linecap="round"/>
<path d="M181.509 106.248C183.699 107.078 186.696 109.396 187.736 112.448" stroke="#263238" stroke-width="0.397977" stroke-miterlimit="10" stroke-linecap="round"/>
<path d="M177.451 105.424C178.837 105.492 180.205 105.77 181.508 106.247" stroke="#263238" stroke-width="0.397977" stroke-miterlimit="10" stroke-linecap="round"/>
<path d="M174.831 105.489C174.831 105.489 175.22 105.434 175.864 105.406" stroke="#263238" stroke-width="0.397977" stroke-miterlimit="10" stroke-linecap="round"/>
<path d="M181.718 120.706C178.756 122.083 175.863 122.166 175.267 120.878C174.671 119.59 176.576 117.434 179.538 116.056C182.5 114.678 185.393 114.599 185.993 115.887C186.592 117.175 184.68 119.324 181.718 120.706Z" fill="#003366" stroke="#263238" stroke-width="0.397977" stroke-miterlimit="10"/>
<path d="M181.626 116.955C182.801 116.228 184.078 115.681 185.415 115.333C185.722 115.145 186.077 115.048 186.438 115.055C186.798 115.062 187.15 115.171 187.45 115.371C187.853 115.636 187.719 117.64 187.719 117.64V128.056" stroke="#263238" stroke-width="0.397977" stroke-miterlimit="10" stroke-linecap="round"/>
<path d="M179.504 118.502C179.504 118.502 179.793 118.233 180.31 117.848" stroke="#263238" stroke-width="0.397977" stroke-miterlimit="10" stroke-linecap="round"/>
<path d="M202.976 108.565C206.2 108.018 208.621 106.437 208.384 105.035C208.146 103.633 205.339 102.937 202.119 103.485C198.898 104.033 196.474 105.61 196.711 107.012C196.949 108.414 199.763 109.109 202.976 108.565Z" fill="#003366" stroke="#263238" stroke-width="0.397977" stroke-miterlimit="10"/>
<path d="M196.943 106.209C196.551 106.354 196.168 106.521 195.796 106.712C194.49 107.398 193.398 108.43 192.64 109.696C191.881 110.961 191.486 112.411 191.497 113.886V127.663" stroke="#263238" stroke-width="0.397977" stroke-miterlimit="10" stroke-linecap="round"/>
<path d="M201.26 105.406C199.788 105.447 198.33 105.718 196.941 106.209" stroke="#263238" stroke-width="0.397977" stroke-miterlimit="10" stroke-linecap="round"/>
<path d="M203.552 105.489C203.552 105.489 203.297 105.451 202.863 105.424" stroke="#263238" stroke-width="0.397977" stroke-miterlimit="10" stroke-linecap="round"/>
<path d="M206.16 118.727C206.87 117.494 205.151 115.172 202.32 113.54C199.488 111.908 196.617 111.584 195.907 112.817C195.196 114.05 196.915 116.372 199.747 118.004C202.578 119.636 205.449 119.96 206.16 118.727Z" fill="#003366" stroke="#263238" stroke-width="0.397977" stroke-miterlimit="10"/>
<path d="M200.431 114.475C199.268 113.57 197.97 112.853 196.584 112.35C196.584 112.35 193.071 111.772 192.269 114.041" stroke="#263238" stroke-width="0.397977" stroke-miterlimit="10" stroke-linecap="round"/>
<path d="M202.139 115.987C202.139 115.987 201.963 115.794 201.64 115.491" stroke="#263238" stroke-width="0.397977" stroke-miterlimit="10" stroke-linecap="round"/>
<path d="M192.802 114.169C192.802 114.169 188.669 113.366 188.669 116.173C188.669 118.98 191.607 121.247 192.802 124.439C193.997 127.632 196.274 127.777 197.476 124.574C198.678 121.371 196.942 115.508 192.802 114.169Z" fill="#003366" stroke="#263238" stroke-width="0.397977" stroke-miterlimit="10"/>
<path d="M189.998 114.304C189.998 114.304 193.604 115.771 194.672 120.445Z" fill="#003366"/>
<path d="M189.998 114.304C189.998 114.304 193.604 115.771 194.672 120.445" stroke="#263238" stroke-width="0.397977" stroke-miterlimit="10"/>
<path d="M190.268 120.444V128.056" stroke="#263238" stroke-width="0.397977" stroke-miterlimit="10" stroke-linecap="round"/>
<path d="M196.897 142.876C197.886 139.724 198.388 136.44 198.385 133.136C198.389 131.135 198.188 129.138 197.785 127.178H180.909C180.506 129.138 180.305 131.135 180.31 133.136C180.31 136.44 180.815 139.725 181.808 142.876H196.897Z" fill="#263238"/>
<path d="M180.497 129.975C180.449 130.433 180.414 130.898 180.387 131.352H198.341C198.314 130.884 198.279 130.419 198.231 129.975H180.497Z" fill="#7A7A7A"/>
<path d="M198.152 137.08C198.207 136.618 198.255 136.153 198.293 135.702H180.435C180.472 136.167 180.521 136.632 180.576 137.08H198.152Z" fill="#7A7A7A"/>
<path d="M182.511 133.212C182.519 133.358 182.483 133.502 182.407 133.626C182.332 133.75 182.222 133.849 182.09 133.91C181.958 133.971 181.811 133.991 181.667 133.967C181.524 133.944 181.391 133.878 181.285 133.778C181.18 133.678 181.107 133.549 181.076 133.407C181.044 133.265 181.056 133.117 181.11 132.982C181.164 132.847 181.257 132.731 181.377 132.649C181.497 132.568 181.639 132.524 181.784 132.524C181.972 132.52 182.153 132.59 182.289 132.719C182.425 132.848 182.505 133.025 182.511 133.212Z" fill="#8C8C8C"/>
<path d="M186.145 133.212C186.152 133.358 186.116 133.502 186.041 133.626C185.966 133.75 185.855 133.849 185.723 133.91C185.592 133.971 185.444 133.991 185.301 133.967C185.158 133.944 185.025 133.878 184.919 133.778C184.814 133.678 184.741 133.549 184.709 133.407C184.678 133.265 184.69 133.117 184.744 132.982C184.798 132.847 184.891 132.731 185.011 132.649C185.131 132.568 185.273 132.524 185.418 132.524C185.605 132.52 185.787 132.59 185.923 132.719C186.059 132.848 186.139 133.025 186.145 133.212Z" fill="#8C8C8C"/>
<path d="M189.775 133.212C189.782 133.358 189.746 133.502 189.671 133.626C189.596 133.75 189.485 133.849 189.353 133.91C189.221 133.971 189.074 133.991 188.931 133.967C188.788 133.944 188.655 133.878 188.549 133.778C188.444 133.678 188.371 133.549 188.339 133.407C188.308 133.265 188.32 133.117 188.374 132.982C188.427 132.847 188.52 132.731 188.641 132.649C188.761 132.568 188.903 132.524 189.048 132.524C189.235 132.52 189.417 132.59 189.553 132.719C189.689 132.848 189.768 133.025 189.775 133.212Z" fill="#8C8C8C"/>
<path d="M193.412 133.212C193.42 133.358 193.384 133.502 193.309 133.626C193.234 133.75 193.123 133.849 192.991 133.91C192.859 133.971 192.712 133.991 192.569 133.967C192.425 133.944 192.292 133.878 192.187 133.778C192.081 133.678 192.008 133.549 191.977 133.407C191.946 133.265 191.958 133.117 192.011 132.982C192.065 132.847 192.158 132.731 192.278 132.649C192.398 132.568 192.54 132.524 192.686 132.524C192.873 132.52 193.054 132.59 193.19 132.719C193.326 132.848 193.406 133.025 193.412 133.212Z" fill="#8C8C8C"/>
<path d="M197.045 133.212C197.053 133.358 197.017 133.502 196.942 133.626C196.866 133.75 196.756 133.849 196.624 133.91C196.492 133.971 196.345 133.991 196.201 133.967C196.058 133.944 195.925 133.878 195.82 133.778C195.714 133.678 195.641 133.549 195.61 133.407C195.579 133.265 195.591 133.117 195.644 132.982C195.698 132.847 195.791 132.731 195.911 132.649C196.031 132.568 196.173 132.524 196.319 132.524C196.506 132.52 196.687 132.59 196.823 132.719C196.959 132.848 197.039 133.025 197.045 133.212Z" fill="#8C8C8C"/>
<path d="M134.901 12.1377V76.1998H158.339V12.1377H134.901ZM157.158 13.5601V23.0145H147.411V13.5601H157.158ZM145.947 13.5601V23.0145H136.083V13.5601H145.947ZM136.083 24.5161H145.947V33.8981H136.083V24.5161ZM157.158 74.7739H136.083V35.51H157.158V74.7739ZM147.411 33.8981V24.5161H157.158V33.8981H147.411Z" stroke="#263238" stroke-width="0.397977" stroke-linecap="round" stroke-linejoin="round"/>
<path d="M158.247 12.1377V76.1998H181.685V12.1377H158.247ZM180.503 13.5601V23.0145H170.75V13.5601H180.503ZM169.293 13.5601V23.0145H159.428V13.5601H169.293ZM159.428 24.5161H169.293V33.8981H159.428V24.5161ZM180.503 74.7739H159.428V35.51H180.503V74.7739ZM170.75 33.8981V24.5161H180.503V33.8981H170.75Z" stroke="#263238" stroke-width="0.397977" stroke-linecap="round" stroke-linejoin="round"/>
<path d="M151.913 46.1562L146.03 52.6589" stroke="#263238" stroke-width="0.397977" stroke-linecap="round" stroke-linejoin="round"/>
<path d="M153.373 44.5449L152.437 45.5782" stroke="#263238" stroke-width="0.397977" stroke-linecap="round" stroke-linejoin="round"/>
<path d="M139.631 57.4014L138.426 58.6585" stroke="#263238" stroke-width="0.397977" stroke-linecap="round" stroke-linejoin="round"/>
<path d="M147.446 49.25L140.533 56.4621" stroke="#263238" stroke-width="0.397977" stroke-linecap="round" stroke-linejoin="round"/>
<path d="M175.619 48.1445L169.736 54.6472" stroke="#263238" stroke-width="0.397977" stroke-linecap="round" stroke-linejoin="round"/>
<path d="M177.079 46.5283L176.143 47.5616" stroke="#263238" stroke-width="0.397977" stroke-linecap="round" stroke-linejoin="round"/>
<path d="M163.34 59.3857L162.135 60.6429" stroke="#263238" stroke-width="0.397977" stroke-linecap="round" stroke-linejoin="round"/>
<path d="M171.153 51.2334L164.24 58.4455" stroke="#263238" stroke-width="0.397977" stroke-linecap="round" stroke-linejoin="round"/>
<path d="M184.815 12.1377V76.1998H208.236V12.1377H184.815ZM207.072 13.5601V23.0145H197.318V13.5601H207.072ZM195.861 13.5601V23.0145H185.986V13.5601H195.861ZM185.986 24.5161H195.851V33.8981H185.986V24.5161ZM207.062 74.7739H185.986V35.51H207.062V74.7739ZM197.318 33.8981V24.5161H207.072V33.8981H197.318Z" stroke="#263238" stroke-width="0.397977" stroke-linecap="round" stroke-linejoin="round"/>
<path d="M208.16 12.1377V76.1998H231.581V12.1377H208.16ZM230.417 13.5601V23.0145H220.663V13.5601H230.417ZM219.206 13.5601V23.0145H209.342V13.5601H219.206ZM209.342 24.5161H219.206V33.8981H209.342V24.5161ZM230.417 74.7739H209.342V35.51H230.417V74.7739ZM220.663 33.8981V24.5161H230.417V33.8981H220.663Z" stroke="#263238" stroke-width="0.397977" stroke-linecap="round" stroke-linejoin="round"/>
<path d="M201.826 46.1562L195.943 52.6589" stroke="#263238" stroke-width="0.397977" stroke-linecap="round" stroke-linejoin="round"/>
<path d="M203.286 44.5449L202.35 45.5782" stroke="#263238" stroke-width="0.397977" stroke-linecap="round" stroke-linejoin="round"/>
<path d="M189.544 57.4014L188.339 58.6585" stroke="#263238" stroke-width="0.397977" stroke-linecap="round" stroke-linejoin="round"/>
<path d="M197.359 49.25L190.446 56.4621" stroke="#263238" stroke-width="0.397977" stroke-linecap="round" stroke-linejoin="round"/>
<path d="M225.533 48.1445L219.65 54.6472" stroke="#263238" stroke-width="0.397977" stroke-linecap="round" stroke-linejoin="round"/>
<path d="M226.992 46.5283L226.056 47.5616" stroke="#263238" stroke-width="0.397977" stroke-linecap="round" stroke-linejoin="round"/>
<path d="M213.254 59.3857L212.049 60.6429" stroke="#263238" stroke-width="0.397977" stroke-linecap="round" stroke-linejoin="round"/>
<path d="M221.066 51.2334L214.153 58.4455" stroke="#263238" stroke-width="0.397977" stroke-linecap="round" stroke-linejoin="round"/>
<path d="M117.775 44.7519C122.389 40.1384 122.389 32.6585 117.775 28.045C113.162 23.4315 105.682 23.4315 101.068 28.045C96.4548 32.6585 96.4548 40.1384 101.068 44.7519C105.682 49.3654 113.162 49.3654 117.775 44.7519Z" fill="#263238" stroke="#263238" stroke-width="0.397977" stroke-linejoin="round"/>
<path d="M117.714 43.3207C121.541 38.7401 120.93 31.9242 116.35 28.097C111.769 24.2698 104.953 24.8805 101.126 29.461C97.2989 34.0416 97.9096 40.8575 102.49 44.6847C107.071 48.5119 113.887 47.9012 117.714 43.3207Z" fill="white" stroke="#263238" stroke-width="0.397977" stroke-linejoin="round"/>
<path d="M110.427 36.3954C110.427 36.1964 110.368 36.002 110.258 35.8366C110.147 35.6712 109.99 35.5423 109.807 35.4662C109.623 35.3901 109.421 35.3702 109.226 35.409C109.03 35.4478 108.851 35.5436 108.711 35.6842C108.57 35.8249 108.474 36.0041 108.435 36.1992C108.397 36.3942 108.416 36.5965 108.493 36.7802C108.569 36.964 108.698 37.1211 108.863 37.2316C109.028 37.3421 109.223 37.4011 109.422 37.4011C109.688 37.4011 109.944 37.2951 110.133 37.1065C110.321 36.9179 110.427 36.6621 110.427 36.3954Z" fill="#263238" stroke="#263238" stroke-width="0.397977" stroke-linejoin="round"/>
<path d="M110.245 37.1426L111.819 39.1299" stroke="#263238" stroke-width="0.397977" stroke-linejoin="round"/>
<path d="M110.245 35.655L114.716 29.2764" stroke="#263238" stroke-width="0.397977" stroke-linejoin="round"/>
<path d="M214.649 141.292H0" stroke="#263238" stroke-width="0.397977" stroke-linejoin="round"/>
<path d="M225.595 141.292H217.474" stroke="#263238" stroke-width="0.397977" stroke-linejoin="round"/>
<path d="M93.1037 142.956H91.5883L91.4092 114.648H93.2828L93.1037 142.956Z" fill="white" stroke="#263238" stroke-width="0.397977" stroke-linejoin="round"/>
<path d="M91.4161 115.847H93.2759L93.2828 114.648H91.4092L91.4161 115.847Z" fill="#263238" stroke="#263238" stroke-width="0.397977" stroke-miterlimit="10"/>
<path d="M95.3728 142.956H93.8539L93.6748 114.648H95.5519L95.3728 142.956Z" fill="#263238" stroke="#263238" stroke-width="0.397977" stroke-miterlimit="10"/>
<path d="M122 142.956H120.485L120.306 114.648H122.179L122 142.956Z" fill="white" stroke="#263238" stroke-width="0.397977" stroke-linejoin="round"/>
<path d="M120.313 115.847H122.172L122.179 114.648H120.306L120.313 115.847Z" fill="#263238" stroke="#263238" stroke-width="0.397977" stroke-miterlimit="10"/>
<path d="M119.534 142.956H118.019L117.84 114.648H119.713L119.534 142.956Z" fill="#263238" stroke="#263238" stroke-width="0.397977" stroke-miterlimit="10"/>
<path d="M122.919 112.675H91.1123L95.1489 106.465H118.879L122.919 112.675Z" fill="white" stroke="#263238" stroke-width="0.397977" stroke-linejoin="round"/>
<path d="M122.961 112.674H91.1123V114.775H122.961V112.674Z" fill="white" stroke="#263238" stroke-width="0.397977" stroke-linejoin="round"/>
<path d="M97.305 83.3848H116.627C117.198 83.3848 117.745 83.6116 118.149 84.0152C118.553 84.4189 118.78 84.9665 118.78 85.5374V106.464H95.1524V85.5443C95.1514 85.261 95.2065 84.9803 95.3142 84.7184C95.422 84.4564 95.5804 84.2183 95.7804 84.0177C95.9804 83.8171 96.218 83.6579 96.4796 83.5493C96.7412 83.4407 97.0217 83.3848 97.305 83.3848Z" fill="white" stroke="#263238" stroke-width="0.397977" stroke-linejoin="round"/>
<path d="M134.978 142.956H133.462L133.283 114.648H135.157L134.978 142.956Z" fill="white" stroke="#263238" stroke-width="0.397977" stroke-linejoin="round"/>
<path d="M133.29 115.847H135.15L135.157 114.648H133.283L133.29 115.847Z" fill="#263238" stroke="#263238" stroke-width="0.397977" stroke-miterlimit="10"/>
<path d="M137.247 142.956H135.728L135.549 114.648H137.422L137.247 142.956Z" fill="#263238" stroke="#263238" stroke-width="0.397977" stroke-miterlimit="10"/>
<path d="M163.874 142.956H162.359L162.18 114.648H164.053L163.874 142.956Z" fill="white" stroke="#263238" stroke-width="0.397977" stroke-linejoin="round"/>
<path d="M162.187 115.847H164.046L164.053 114.648H162.18L162.187 115.847Z" fill="#263238" stroke="#263238" stroke-width="0.397977" stroke-miterlimit="10"/>
<path d="M161.408 142.956H159.893L159.714 114.648H161.588L161.408 142.956Z" fill="#263238" stroke="#263238" stroke-width="0.397977" stroke-miterlimit="10"/>
<path d="M164.793 112.675H132.986L137.026 106.465H160.753L164.793 112.675Z" fill="white" stroke="#263238" stroke-width="0.397977" stroke-linejoin="round"/>
<path d="M164.835 112.674H132.986V114.775H164.835V112.674Z" fill="white" stroke="#263238" stroke-width="0.397977" stroke-linejoin="round"/>
<path d="M139.179 83.3848H158.501C159.072 83.3848 159.619 83.6116 160.023 84.0152C160.427 84.4189 160.654 84.9665 160.654 85.5374V106.464H137.026V85.5443C137.025 85.261 137.08 84.9803 137.188 84.7184C137.296 84.4564 137.454 84.2183 137.654 84.0177C137.854 83.8171 138.092 83.6579 138.354 83.5493C138.615 83.4407 138.896 83.3848 139.179 83.3848Z" fill="white" stroke="#263238" stroke-width="0.397977" stroke-linejoin="round"/>
<path d="M140.988 137.453C140.438 138.31 139.936 139.198 139.486 140.111C139.183 140.862 137.075 142.819 136.576 143.773C136.076 144.727 136.724 145.529 139.083 145.781C141.442 146.032 142.293 144.424 142.844 143.714C143.395 143.005 143.399 141.992 144.05 141.558C144.701 141.124 145.954 139.905 146.054 138.699C146.122 138.007 146.072 137.308 145.906 136.633L140.988 137.453Z" fill="white" stroke="#263238" stroke-width="0.397977" stroke-miterlimit="10"/>
<path d="M146.054 138.706C146.101 138.17 146.082 137.63 145.999 137.098C145.914 137.48 145.849 137.866 145.806 138.255C145.603 140.011 143.499 140.666 143.051 141.665C142.603 142.663 141.945 144.675 140.089 145.078C138.711 145.374 137.161 144.606 136.438 144.182C136.307 144.95 137.075 145.56 139.087 145.78C141.446 146.028 142.297 144.423 142.848 143.714C143.399 143.004 143.402 141.992 144.053 141.558C144.704 141.124 145.954 139.912 146.054 138.706Z" fill="white" stroke="#263238" stroke-width="0.397977" stroke-miterlimit="10"/>
<path d="M157.709 137.453C158.26 138.31 158.763 139.197 159.214 140.111C159.513 140.862 161.625 142.819 162.124 143.773C162.624 144.727 161.973 145.529 159.613 145.781C157.254 146.032 156.403 144.424 155.852 143.714C155.301 143.005 155.301 141.992 154.65 141.558C153.999 141.124 152.742 139.905 152.642 138.699C152.576 138.007 152.627 137.308 152.794 136.633L157.709 137.453Z" fill="white" stroke="#263238" stroke-width="0.397977" stroke-miterlimit="10"/>
<path d="M152.643 138.706C152.598 138.17 152.617 137.63 152.698 137.098C152.787 137.479 152.852 137.866 152.895 138.255C153.094 140.011 155.202 140.666 155.65 141.665C156.098 142.663 156.752 144.675 158.608 145.078C159.986 145.374 161.539 144.606 162.263 144.182C162.39 144.95 161.622 145.56 159.611 145.78C157.255 146.028 156.401 144.423 155.85 143.714C155.299 143.004 155.299 141.992 154.648 141.558C153.997 141.124 152.743 139.912 152.643 138.706Z" fill="white" stroke="#263238" stroke-width="0.397977" stroke-miterlimit="10"/>
<path d="M165.352 112.32C165.352 110.615 160.651 104.123 160.651 104.123L158.946 100.104L150.266 100.92H148.272L139.593 100.104L137.888 104.123C137.888 104.123 133.187 110.615 133.187 112.32C133.187 114.025 133.39 114.569 133.39 114.569L140.967 135.234L140.354 136.664L140.626 137.755C140.626 137.755 141.58 138.572 143.419 138.572C144.497 138.581 145.54 138.194 146.35 137.483C146.35 137.483 146.553 135.234 146.553 134.415C146.553 133.595 145.055 129.644 145.055 128.828C145.055 128.012 143.622 113.067 143.622 113.067L148.937 109.31H149.602L154.926 113.074C154.926 113.074 153.494 128.002 153.494 128.818C153.494 129.634 151.995 133.588 151.995 134.404C151.995 135.221 152.198 137.473 152.198 137.473C153.009 138.183 154.052 138.571 155.129 138.561C156.969 138.561 157.923 137.745 157.923 137.745L158.198 136.653L157.582 135.224L165.159 114.559C165.159 114.559 165.352 114.022 165.352 112.32Z" fill="#263238" stroke="#263238" stroke-width="0.397977" stroke-miterlimit="10"/>
<path d="M150.167 108.417C150.167 108.417 152.891 104.329 156.232 103.168" stroke="#7D7D7D" stroke-width="0.397977" stroke-miterlimit="10"/>
<path d="M153.087 105.828C153.087 105.828 155.608 103.851 158.06 103.579" stroke="#7D7D7D" stroke-width="0.397977" stroke-miterlimit="10"/>
<path d="M144.501 104.532C144.501 104.532 146.75 106.168 147.77 107.87" stroke="#7D7D7D" stroke-width="0.397977" stroke-miterlimit="10"/>
<path d="M144.311 74.2752L135.997 77.4094L137.767 92.6052C137.767 92.6052 138.38 100.238 138.994 100.527C139.607 100.816 147.58 102.094 149.078 102.025C150.576 101.956 158.55 101.753 159.438 100.32C160.327 98.8875 162.776 78.0363 162.707 77.4921C162.638 76.9479 152.281 73.335 152.281 73.335L144.311 74.2752Z" fill="#003366" stroke="#263238" stroke-width="0.397977" stroke-linejoin="round"/>
<path d="M146.068 79.9304L148.59 82.9303L151.383 79.9993C151.383 79.9993 153.222 75.0913 153.153 74.5471C153.084 74.0029 151.793 73.0489 151.793 73.0489L147.088 72.9111L143.819 74.4128L146.068 79.9304Z" fill="white" stroke="#263238" stroke-width="0.397977" stroke-linejoin="round"/>
<path d="M145.385 72.112L143.622 74.0717L146.078 79.9269L148.461 77.5435L151.392 79.9958C151.392 79.9958 152.822 76.6583 153.163 75.7697C153.385 75.0877 153.501 74.3757 153.507 73.6584L151.654 71.7676L145.385 72.112Z" fill="white" stroke="#263238" stroke-width="0.397977" stroke-linejoin="round"/>
<path d="M144.704 71.2097L145.045 73.4587L148.451 77.547L152.268 73.321L152.471 70.7998L148.248 72.8457L144.704 71.2097Z" fill="white" stroke="#263238" stroke-width="0.397977" stroke-linejoin="round"/>
<path d="M142.727 64.463C142.727 64.463 142.038 64.5974 142.114 65.7581C142.19 66.9188 143.885 68.2792 143.885 68.2792L143.34 64.1221L142.727 64.463Z" fill="white" stroke="#263238" stroke-width="0.397977" stroke-linejoin="round"/>
<path d="M143.206 63.577C143.206 63.577 143.819 70.3896 144.239 71.0716C144.659 71.7535 147.101 74.4124 148.193 74.5468C148.771 74.6191 152.553 72.0256 152.825 70.9372C153.097 69.8489 153.442 67.7341 153.442 67.7341C153.442 67.7341 154.258 67.7996 154.733 65.8915C155.209 63.9834 154.461 63.6424 154.12 63.6424H153.576C153.576 63.6424 153.442 60.8492 153.232 60.305C153.022 59.7608 143.963 61.0558 143.147 61.7343C142.331 62.4128 143.206 63.577 143.206 63.577Z" fill="white" stroke="#263238" stroke-width="0.397977" stroke-linejoin="round"/>
<path d="M150.803 67.5972C150.803 67.9175 150.666 68.1758 150.497 68.1758C150.328 68.1758 150.19 67.9175 150.19 67.5972C150.19 67.2769 150.328 67.0186 150.497 67.0186C150.666 67.0186 150.803 67.2906 150.803 67.5972Z" fill="#263238"/>
<path d="M146.168 67.4287C146.168 67.7456 146.03 68.0074 145.861 68.0074C145.692 68.0074 145.555 67.7456 145.555 67.4287C145.555 67.1119 145.692 66.8467 145.861 66.8467C146.03 66.8467 146.168 67.1084 146.168 67.4287Z" fill="#263238"/>
<path d="M147.497 69.4355C147.497 69.4355 147.429 70.0486 147.842 70.2553C147.981 70.3129 148.131 70.3363 148.281 70.3235C148.431 70.3107 148.575 70.262 148.702 70.1817C148.829 70.1013 148.935 69.9915 149.011 69.8617C149.086 69.7318 149.13 69.5857 149.137 69.4355" stroke="#263238" stroke-width="0.397977" stroke-linejoin="round"/>
<path d="M147.7 71.5508H148.654" stroke="#263238" stroke-width="0.397977" stroke-linejoin="round"/>
<path d="M144.433 66.0303H146.751" stroke="#263238" stroke-width="0.795955" stroke-linecap="round" stroke-linejoin="round"/>
<path d="M149.133 65.8266C149.133 65.8266 150.631 64.938 151.451 65.8266" stroke="#263238" stroke-width="0.795955" stroke-linecap="round" stroke-linejoin="round"/>
<path d="M144.838 68.0752L145.999 68.3473" stroke="#263238" stroke-width="0.397977" stroke-linejoin="round"/>
<path d="M151.586 67.9385L150.291 68.5515" stroke="#263238" stroke-width="0.397977" stroke-linejoin="round"/>
<path d="M153.632 57.7162C153.174 56.8552 148.724 54.9918 146.055 56.4901C146.055 56.4901 142.58 57.7162 141.419 60.5094C140.513 62.6965 140.864 63.7539 142.397 64.0122L143.534 67.2566L143.396 66.3026L143.231 64.0776C143.451 64.0776 143.685 64.0776 143.94 64.0535C146.737 63.8503 149.189 63.2373 150.415 62.6758C151.101 62.3891 151.726 61.9728 152.254 61.4497C152.218 62.1082 152.218 62.7682 152.254 63.4267C152.323 63.9709 153.074 64.5839 153.074 64.5839L153.14 66.6987L153.549 66.6298L153.821 64.2464L154.166 63.2924C154.417 63.6402 155.02 60.3235 153.632 57.7162Z" fill="#263238" stroke="#263238" stroke-width="0.397977" stroke-linejoin="round"/>
<path d="M156.562 83.3408L159.356 86.816" stroke="#263238" stroke-width="0.397977" stroke-linejoin="round"/>
<path d="M158.605 82.3865L159.697 90.4253L149.202 91.9924L149.271 96.2184L150.972 96.3562C151.767 96.937 152.717 97.269 153.7 97.3102C155.198 97.3102 162.9 96.3562 164.26 96.0152C165.621 95.6742 166.444 95.3264 166.578 94.0382C166.712 92.7501 163.785 79.1145 163.582 78.2294C163.378 77.3442 160.038 76.3213 160.038 76.3213" fill="#003366"/>
<path d="M158.605 82.3865L159.697 90.4253L149.202 91.9924L149.271 96.2184L150.972 96.3562C151.767 96.937 152.717 97.269 153.7 97.3102C155.198 97.3102 162.9 96.3562 164.26 96.0152C165.621 95.6742 166.444 95.3264 166.578 94.0382C166.712 92.7501 163.785 79.1145 163.582 78.2294C163.378 77.3442 160.038 76.3213 160.038 76.3213" stroke="#263238" stroke-width="0.397977" stroke-linejoin="round"/>
<path d="M162.83 91.1762C161.673 90.3565 159.696 90.4254 159.696 90.4254C159.696 90.4254 161.398 89.678 162.762 90.1533" stroke="#263238" stroke-width="0.397977" stroke-linejoin="round"/>
<path d="M150.973 92.0605L151.11 96.0145" stroke="#263238" stroke-width="0.397977" stroke-linejoin="round"/>
<path d="M149.202 91.9912L145.796 91.788L141.639 89.7422L140.888 90.152C140.888 90.152 139.321 93.0831 139.662 93.2863C140.003 93.4895 140.478 94.106 140.75 94.106C141.022 94.106 141.639 93.6272 141.639 93.6272C141.639 93.6272 143.271 95.2632 144.294 95.2632C144.929 95.2569 145.556 95.1172 146.133 94.8534L149.337 95.2632L149.202 91.9912Z" fill="white" stroke="#263238" stroke-width="0.397977" stroke-linejoin="round"/>
<path d="M141.639 93.6273L140.75 92.8799L140.547 93.2209" stroke="#263238" stroke-width="0.397977" stroke-linejoin="round"/>
<path d="M147.497 91.6514H146.543V95.1266H147.497V91.6514Z" fill="#263238" stroke="#263238" stroke-width="0.397977" stroke-miterlimit="10"/>
<path d="M147.022 92.4712C147.549 92.4712 147.976 92.2275 147.976 91.927C147.976 91.6264 147.549 91.3828 147.022 91.3828C146.495 91.3828 146.068 91.6264 146.068 91.927C146.068 92.2275 146.495 92.4712 147.022 92.4712Z" fill="white" stroke="#263238" stroke-width="0.397977" stroke-linejoin="round"/>
<path d="M135.981 77.4092C135.981 77.4092 132.574 96.49 132.574 97.6507C132.574 98.8114 137.548 103.799 137.548 103.799L139.797 101.618L138.298 95.0745L135.981 77.4092Z" fill="#003366" stroke="#263238" stroke-width="0.397977" stroke-linejoin="round"/>
<path d="M134.62 95.8079C134.62 95.8079 136.594 94.7195 138.026 94.9227" stroke="#263238" stroke-width="0.397977" stroke-linejoin="round"/>
<path d="M133.666 95.6736C133.666 95.6736 135.367 94.2959 136.662 94.2959" stroke="#263238" stroke-width="0.397977" stroke-linejoin="round"/>
<path d="M136.527 102.765C136.527 102.765 136.459 100.719 139.524 100.65" stroke="#263238" stroke-width="0.397977" stroke-linejoin="round"/>
<path d="M139.796 101.602L142.775 102.587C143.043 103.081 143.273 103.594 143.464 104.123C143.709 104.863 144.081 105.6 144.081 105.786C144.081 105.972 144.019 106.217 143.771 106.217C143.523 106.217 142.479 105.294 142.479 105.294L141.866 104.984C141.866 104.984 142.665 106.093 142.847 106.155C143.166 106.32 143.474 106.504 143.771 106.706C143.771 106.706 145.372 105.969 145.372 106.585C145.372 107.202 143.033 108.552 143.033 108.552C143.033 108.552 141.063 108.183 140.695 107.939C140.326 107.694 137.547 103.799 137.547 103.799L139.796 101.602Z" fill="white" stroke="#263238" stroke-width="0.397977" stroke-linejoin="round"/>
<path d="M80.0975 14.5947H24.0742V141.169H80.0975V14.5947Z" fill="white" stroke="#263238" stroke-width="0.397977" stroke-linejoin="round"/>
<path d="M51.0459 18.3994H26.4922V45.2573H51.0459V18.3994Z" fill="white" stroke="#263238" stroke-width="0.397977" stroke-linejoin="round"/>
<path d="M48.1224 21.6025H29.4238V42.0542H48.1224V21.6025Z" fill="white" stroke="#263238" stroke-width="0.397977" stroke-linejoin="round"/>
<path d="M29.4232 21.6025L26.4922 18.3994" stroke="#263238" stroke-width="0.397977" stroke-linejoin="round"/>
<path d="M29.4232 42.0547L26.4922 45.2578" stroke="#263238" stroke-width="0.397977" stroke-linejoin="round"/>
<path d="M48.1182 21.6025L51.0492 18.3994" stroke="#263238" stroke-width="0.397977" stroke-linejoin="round"/>
<path d="M48.1182 42.0547L51.0492 45.2578" stroke="#263238" stroke-width="0.397977" stroke-linejoin="round"/>
<path d="M77.5732 18.3994H53.0195V45.2573H77.5732V18.3994Z" fill="white" stroke="#263238" stroke-width="0.397977" stroke-linejoin="round"/>
<path d="M74.6458 21.6025H55.9473V42.0542H74.6458V21.6025Z" fill="white" stroke="#263238" stroke-width="0.397977" stroke-linejoin="round"/>
<path d="M55.9471 21.6025L53.0195 18.3994" stroke="#263238" stroke-width="0.397977" stroke-linejoin="round"/>
<path d="M55.9471 42.0547L53.0195 45.2578" stroke="#263238" stroke-width="0.397977" stroke-linejoin="round"/>
<path d="M74.6455 21.6025L77.5731 18.3994" stroke="#263238" stroke-width="0.397977" stroke-linejoin="round"/>
<path d="M74.6455 42.0547L77.5731 45.2578" stroke="#263238" stroke-width="0.397977" stroke-linejoin="round"/>
<path d="M51.0459 48.0234H26.4922V74.8813H51.0459V48.0234Z" fill="white" stroke="#263238" stroke-width="0.397977" stroke-linejoin="round"/>
<path d="M48.1224 51.2266H29.4238V71.6782H48.1224V51.2266Z" fill="white" stroke="#263238" stroke-width="0.397977" stroke-linejoin="round"/>
<path d="M29.4232 51.2265L26.4922 48.0234" stroke="#263238" stroke-width="0.397977" stroke-linejoin="round"/>
<path d="M29.4232 71.6816L26.4922 74.8847" stroke="#263238" stroke-width="0.397977" stroke-linejoin="round"/>
<path d="M48.1182 51.2265L51.0492 48.0234" stroke="#263238" stroke-width="0.397977" stroke-linejoin="round"/>
<path d="M48.1182 71.6816L51.0492 74.8847" stroke="#263238" stroke-width="0.397977" stroke-linejoin="round"/>
<path d="M77.5732 48.0234H53.0195V74.8813H77.5732V48.0234Z" fill="white" stroke="#263238" stroke-width="0.397977" stroke-linejoin="round"/>
<path d="M74.6458 51.2266H55.9473V71.6782H74.6458V51.2266Z" fill="white" stroke="#263238" stroke-width="0.397977" stroke-linejoin="round"/>
<path d="M55.9471 51.2265L53.0195 48.0234" stroke="#263238" stroke-width="0.397977" stroke-linejoin="round"/>
<path d="M55.9471 71.6816L53.0195 74.8847" stroke="#263238" stroke-width="0.397977" stroke-linejoin="round"/>
<path d="M74.6455 51.2265L77.5731 48.0234" stroke="#263238" stroke-width="0.397977" stroke-linejoin="round"/>
<path d="M74.6455 71.6816L77.5731 74.8847" stroke="#263238" stroke-width="0.397977" stroke-linejoin="round"/>
<path d="M51.0459 80.7646H26.4922V107.622H51.0459V80.7646Z" fill="white" stroke="#263238" stroke-width="0.397977" stroke-linejoin="round"/>
<path d="M48.1224 83.9678H29.4238V104.419H48.1224V83.9678Z" fill="white" stroke="#263238" stroke-width="0.397977" stroke-linejoin="round"/>
<path d="M29.4232 83.9678L26.4922 80.7646" stroke="#263238" stroke-width="0.397977" stroke-linejoin="round"/>
<path d="M29.4232 104.419L26.4922 107.622" stroke="#263238" stroke-width="0.397977" stroke-linejoin="round"/>
<path d="M48.1182 83.9678L51.0492 80.7646" stroke="#263238" stroke-width="0.397977" stroke-linejoin="round"/>
<path d="M48.1182 104.419L51.0492 107.622" stroke="#263238" stroke-width="0.397977" stroke-linejoin="round"/>
<path d="M77.5732 80.7646H53.0195V107.622H77.5732V80.7646Z" fill="white" stroke="#263238" stroke-width="0.397977" stroke-linejoin="round"/>
<path d="M74.6458 83.9678H55.9473V104.419H74.6458V83.9678Z" fill="white" stroke="#263238" stroke-width="0.397977" stroke-linejoin="round"/>
<path d="M55.9471 83.9678L53.0195 80.7646" stroke="#263238" stroke-width="0.397977" stroke-linejoin="round"/>
<path d="M55.9471 104.419L53.0195 107.622" stroke="#263238" stroke-width="0.397977" stroke-linejoin="round"/>
<path d="M74.6455 83.9678L77.5731 80.7646" stroke="#263238" stroke-width="0.397977" stroke-linejoin="round"/>
<path d="M74.6455 104.419L77.5731 107.622" stroke="#263238" stroke-width="0.397977" stroke-linejoin="round"/>
<path d="M51.0459 110.391H26.4922V137.248H51.0459V110.391Z" fill="white" stroke="#263238" stroke-width="0.397977" stroke-linejoin="round"/>
<path d="M48.1224 113.594H29.4238V134.045H48.1224V113.594Z" fill="white" stroke="#263238" stroke-width="0.397977" stroke-linejoin="round"/>
<path d="M29.4232 113.594L26.4922 110.391" stroke="#263238" stroke-width="0.397977" stroke-linejoin="round"/>
<path d="M29.4232 134.045L26.4922 137.248" stroke="#263238" stroke-width="0.397977" stroke-linejoin="round"/>
<path d="M48.1182 113.594L51.0492 110.391" stroke="#263238" stroke-width="0.397977" stroke-linejoin="round"/>
<path d="M48.1182 134.045L51.0492 137.248" stroke="#263238" stroke-width="0.397977" stroke-linejoin="round"/>
<path d="M77.5732 110.391H53.0195V137.248H77.5732V110.391Z" fill="white" stroke="#263238" stroke-width="0.397977" stroke-linejoin="round"/>
<path d="M74.6458 113.594H55.9473V134.045H74.6458V113.594Z" fill="white" stroke="#263238" stroke-width="0.397977" stroke-linejoin="round"/>
<path d="M55.9471 113.594L53.0195 110.391" stroke="#263238" stroke-width="0.397977" stroke-linejoin="round"/>
<path d="M55.9471 134.045L53.0195 137.248" stroke="#263238" stroke-width="0.397977" stroke-linejoin="round"/>
<path d="M74.6455 113.594L77.5731 110.391" stroke="#263238" stroke-width="0.397977" stroke-linejoin="round"/>
<path d="M74.6455 134.045L77.5731 137.248" stroke="#263238" stroke-width="0.397977" stroke-linejoin="round"/>
<path d="M76.2429 80.264C77.6247 80.0392 78.5627 78.7368 78.3379 77.355C78.1131 75.9731 76.8106 75.0352 75.4288 75.26C74.047 75.4848 73.109 76.7872 73.3338 78.169C73.5586 79.5509 74.861 80.4888 76.2429 80.264Z" fill="white" stroke="#263238" stroke-width="0.397977" stroke-linejoin="round"/>
<path d="M76.7533 77.7639C76.7533 77.5812 76.6991 77.4026 76.5975 77.2507C76.4959 77.0988 76.3516 76.9805 76.1827 76.9108C76.0138 76.841 75.8281 76.8229 75.6489 76.8588C75.4698 76.8947 75.3053 76.983 75.1764 77.1124C75.0474 77.2418 74.9598 77.4066 74.9245 77.5859C74.8893 77.7652 74.9081 77.9509 74.9785 78.1195C75.0489 78.2881 75.1677 78.432 75.32 78.533C75.4722 78.634 75.651 78.6876 75.8337 78.6869C76.0779 78.686 76.3118 78.5883 76.4842 78.4153C76.6565 78.2423 76.7533 78.0081 76.7533 77.7639Z" fill="white" stroke="#263238" stroke-width="0.397977" stroke-linejoin="round"/>
</svg>
