<svg width="463" height="362" viewBox="0 0 463 362" fill="none" xmlns="http://www.w3.org/2000/svg">
<mask id="mask0_295_20835" style="mask-type:luminance" maskUnits="userSpaceOnUse" x="42" y="29" width="348" height="244">
<path d="M147.761 272.193H42.1899V29.3359H147.761V272.193ZM268.377 29.3359H162.805V272.193H268.377V29.3359ZM389.003 29.3359H283.443V272.193H389.014L389.003 29.3359Z" fill="white"/>
</mask>
<g mask="url(#mask0_295_20835)">
<path d="M273.699 75.6016V77.163H274.645C274.337 76.6497 274.04 76.1256 273.699 75.6016Z" fill="white"/>
<g opacity="0.2">
<path d="M180.687 77.0228C176.915 75.0229 175.188 76.6913 173.835 75.0229C172.483 73.3545 177.596 69.0231 167.325 64.7025C167.325 64.7025 166.643 55.3766 152.6 55.0772C138.557 54.7777 142.329 64.3923 138.568 66.7238C134.807 69.0552 133.773 65.3976 130.001 67.7291C126.229 70.0605 127.945 74.7235 124.866 75.3865C121.787 76.0496 117.674 72.392 113.869 74.7234C110.064 77.0549 110.097 79.0548 108.37 79.0548C106.644 79.0548 103.235 77.718 101.178 79.0548C99.1217 80.3917 96.7793 82.0494 96.7793 82.0494H183.414C183.414 82.0494 184.47 79.0228 180.687 77.0228Z" fill="#003366"/>
</g>
<g opacity="0.2">
<path d="M424.854 115.183C421.082 113.183 419.355 114.851 418.002 113.183C416.65 111.515 421.763 107.194 411.492 102.863C411.492 102.863 410.81 93.5368 396.767 93.2373C382.724 92.9379 386.496 102.563 382.735 104.895C378.974 107.226 377.94 103.558 374.168 105.889C370.396 108.221 372.112 112.884 369.033 113.547C365.954 114.21 361.841 110.552 358.036 112.884C354.231 115.215 354.264 117.215 352.537 117.215C350.811 117.215 347.402 115.878 345.345 117.215C343.289 118.552 340.946 120.21 340.946 120.21H427.581C427.581 120.21 428.604 117.183 424.854 115.183Z" fill="#003366"/>
</g>
<g opacity="0.2">
<path d="M199.733 114.521C197.38 113.27 196.313 114.308 195.456 113.27C194.598 112.233 197.809 109.527 191.398 106.853C191.398 106.853 190.969 101.025 182.204 100.821C173.439 100.618 175.793 106.639 173.406 108.094C171.02 109.548 170.415 107.26 168.062 108.725C165.709 110.19 166.775 113.088 164.862 113.505C162.948 113.923 160.364 111.634 158.022 113.088C155.679 114.543 155.668 115.783 154.602 115.783C153.535 115.783 151.39 114.96 150.104 115.783C148.817 116.607 147.333 117.655 147.333 117.655H201.405C201.405 117.655 202.065 115.762 199.733 114.521Z" fill="#003366"/>
</g>
<path opacity="0.1" d="M-12.5312 280.834V191.779H41.849V84.9703H78.4691V108.413H98.9786V177.448H148.773V139.674H172.208V160.507H189.451H197.182L197.798 168.336H218.032V137.075H234.143V39.3891H273.688V77.1524H302.984V29.582H335.206V146.187H368.901V189.169H392.423V282.749" fill="black"/>
<path opacity="0.1" d="M56.244 108.102H48.3262V116.443H56.244V108.102Z" fill="black"/>
<path opacity="0.1" d="M72.7509 108.102H64.833V116.443H72.7509V108.102Z" fill="black"/>
<path opacity="0.1" d="M56.244 125.492H48.3262V133.834H56.244V125.492Z" fill="black"/>
<path opacity="0.1" d="M72.7509 125.492H64.833V133.834H72.7509V125.492Z" fill="black"/>
<path opacity="0.1" d="M90.5658 125.492H82.6479V133.834H90.5658V125.492Z" fill="black"/>
<path opacity="0.1" d="M90.5658 142.883H82.6479V151.225H90.5658V142.883Z" fill="black"/>
<path opacity="0.1" d="M90.5658 160.273H82.6479V168.615H90.5658V160.273Z" fill="black"/>
<path opacity="0.1" d="M90.5658 177.66H82.6479V186.002H90.5658V177.66Z" fill="black"/>
<path opacity="0.1" d="M90.5658 195.051H82.6479V203.393H90.5658V195.051Z" fill="black"/>
<path opacity="0.1" d="M90.5658 212.441H82.6479V220.783H90.5658V212.441Z" fill="black"/>
<path opacity="0.1" d="M56.244 142.883H48.3262V151.225H56.244V142.883Z" fill="black"/>
<path opacity="0.1" d="M72.7509 142.883H64.833V151.225H72.7509V142.883Z" fill="black"/>
<path opacity="0.1" d="M56.244 160.273H48.3262V168.615H56.244V160.273Z" fill="black"/>
<path opacity="0.1" d="M72.7509 160.273H64.833V168.615H72.7509V160.273Z" fill="black"/>
<path opacity="0.1" d="M56.244 177.66H48.3262V186.002H56.244V177.66Z" fill="black"/>
<path opacity="0.1" d="M72.7509 177.66H64.833V186.002H72.7509V177.66Z" fill="black"/>
<path opacity="0.1" d="M56.244 195.051H48.3262V203.393H56.244V195.051Z" fill="black"/>
<path opacity="0.1" d="M134.125 186.004H126.207V194.346H134.125V186.004Z" fill="black"/>
<path opacity="0.1" d="M149.972 186.004H142.054V194.346H149.972V186.004Z" fill="black"/>
<path opacity="0.1" d="M316.17 51.0664H308.252V59.4083H316.17V51.0664Z" fill="black"/>
<path opacity="0.1" d="M326.078 51.0664H318.16V59.4083H326.078V51.0664Z" fill="black"/>
<path opacity="0.1" d="M316.17 68.457H308.252V76.799H316.17V68.457Z" fill="black"/>
<path opacity="0.1" d="M326.078 68.457H318.16V76.799H326.078V68.457Z" fill="black"/>
<path opacity="0.1" d="M316.17 85.8477H308.252V94.1896H316.17V85.8477Z" fill="black"/>
<path opacity="0.1" d="M326.078 85.8477H318.16V94.1896H326.078V85.8477Z" fill="black"/>
<path opacity="0.1" d="M316.17 103.238H308.252V111.58H316.17V103.238Z" fill="black"/>
<path opacity="0.1" d="M326.078 103.238H318.16V111.58H326.078V103.238Z" fill="black"/>
<path opacity="0.1" d="M316.17 120.625H308.252V128.967H316.17V120.625Z" fill="black"/>
<path opacity="0.1" d="M326.078 120.625H318.16V128.967H326.078V120.625Z" fill="black"/>
<path opacity="0.1" d="M248.857 120.625H240.939V128.967H248.857V120.625Z" fill="black"/>
<path opacity="0.1" d="M266.013 120.625H258.095V128.967H266.013V120.625Z" fill="black"/>
<path opacity="0.1" d="M283.179 120.625H275.261V128.967H283.179V120.625Z" fill="black"/>
<path opacity="0.1" d="M248.857 158.188H240.939V166.529H248.857V158.188Z" fill="black"/>
<path opacity="0.1" d="M266.013 158.188H258.095V166.529H266.013V158.188Z" fill="black"/>
<path opacity="0.1" d="M283.179 158.188H275.261V166.529H283.179V158.188Z" fill="black"/>
<path opacity="0.1" d="M248.857 195.746H240.939V204.088H248.857V195.746Z" fill="black"/>
<path opacity="0.1" d="M266.013 195.746H258.095V204.088H266.013V195.746Z" fill="black"/>
<path opacity="0.1" d="M283.179 195.746H275.261V204.088H283.179V195.746Z" fill="black"/>
<path opacity="0.1" d="M316.17 138.016H308.252V146.358H316.17V138.016Z" fill="black"/>
<path opacity="0.1" d="M326.078 138.016H318.16V146.358H326.078V138.016Z" fill="black"/>
<path opacity="0.1" d="M316.17 155.406H308.252V163.748H316.17V155.406Z" fill="black"/>
<path opacity="0.1" d="M326.078 155.406H318.16V163.748H326.078V155.406Z" fill="black"/>
<path opacity="0.1" d="M316.17 172.797H308.252V181.139H316.17V172.797Z" fill="black"/>
<path opacity="0.1" d="M326.078 172.797H318.16V181.139H326.078V172.797Z" fill="black"/>
<path opacity="0.1" d="M342.574 155.406H334.656V163.748H342.574V155.406Z" fill="black"/>
<path opacity="0.1" d="M361.06 155.406H353.142V163.748H361.06V155.406Z" fill="black"/>
<path opacity="0.1" d="M342.574 172.102H334.656V180.443H342.574V172.102Z" fill="black"/>
<path opacity="0.1" d="M361.06 172.102H353.142V180.443H361.06V172.102Z" fill="black"/>
<path opacity="0.1" d="M342.574 188.785H334.656V197.127H342.574V188.785Z" fill="black"/>
<path opacity="0.1" d="M361.06 188.785H353.142V197.127H361.06V188.785Z" fill="black"/>
<path opacity="0.1" d="M342.574 205.48H334.656V213.822H342.574V205.48Z" fill="black"/>
<path opacity="0.1" d="M361.06 205.48H353.142V213.822H361.06V205.48Z" fill="black"/>
<path opacity="0.1" d="M316.17 190.176H308.252V198.518H316.17V190.176Z" fill="black"/>
<path opacity="0.1" d="M326.078 190.176H318.16V198.518H326.078V190.176Z" fill="black"/>
<path opacity="0.1" d="M316.17 207.562H308.252V215.904H316.17V207.562Z" fill="black"/>
<path opacity="0.1" d="M326.078 207.562H318.16V215.904H326.078V207.562Z" fill="black"/>
<path opacity="0.1" d="M72.7509 195.051H64.833V203.393H72.7509V195.051Z" fill="black"/>
<path opacity="0.1" d="M56.244 212.441H48.3262V220.783H56.244V212.441Z" fill="black"/>
<path opacity="0.1" d="M72.7509 212.441H64.833V220.783H72.7509V212.441Z" fill="black"/>
<path opacity="0.1" d="M56.244 229.832H48.3262V238.174H56.244V229.832Z" fill="black"/>
<path opacity="0.1" d="M72.7509 229.832H64.833V238.174H72.7509V229.832Z" fill="black"/>
<path opacity="0.1" d="M56.244 247.211H48.3262V255.553H56.244V247.211Z" fill="black"/>
<path opacity="0.1" d="M72.7509 247.211H64.833V255.553H72.7509V247.211Z" fill="black"/>
</g>
<path d="M147.761 272.193H42.1899V29.3359H147.761V272.193ZM268.377 29.3359H162.805V272.193H268.377V29.3359ZM389.003 29.3359H283.443V272.193H389.014L389.003 29.3359Z" stroke="#263238" stroke-miterlimit="10"/>
<path d="M370.418 77.2709C368.328 70.6508 360.037 67.3675 354.153 64.8863C351.393 63.7313 350.601 61.6779 350.403 58.8117C350.403 58.5016 350.403 56.6727 350.469 54.8867H338.768C338.823 56.6834 338.867 58.5016 338.845 58.8117C338.636 61.6458 337.845 63.7313 335.095 64.8863C329.212 67.3675 320.92 70.6508 318.82 77.2709C318.294 78.9364 318.045 80.6731 318.083 82.4151H371.155C371.204 80.6725 370.955 78.9341 370.418 77.2709Z" fill="#263238"/>
<path d="M345.411 0H343.827V55.9337H345.411V0Z" fill="#263238"/>
<path d="M116.221 77.2709C114.132 70.6508 105.84 67.3675 99.9569 64.8863C97.1966 63.7313 96.4048 61.6779 96.2069 58.8117C96.2069 58.5016 96.2069 56.6727 96.2729 54.8867H84.572C84.572 56.6834 84.671 58.5016 84.649 58.8117C84.4401 61.6458 83.6483 63.7313 80.899 64.8863C75.0156 67.3675 66.7239 70.6508 64.6234 77.2709C64.0972 78.9364 63.8485 80.6731 63.8866 82.4151H116.958C117.007 80.6725 116.758 78.9341 116.221 77.2709Z" fill="#263238"/>
<path d="M91.2144 0H89.6309V55.9337H91.2144V0Z" fill="#263238"/>
<path d="M422.698 207.565C422.698 207.565 422.698 203.543 416.913 197.939C411.129 192.335 407.412 189.105 407.412 189.105C407.412 189.105 404.52 198.346 409.897 203.971C413.844 207.928 418.126 211.556 422.698 214.816V207.565Z" fill="#003366"/>
<path d="M414.307 232.689C414.307 232.689 414.307 228.678 408.522 223.063C402.738 217.449 399.021 214.219 399.021 214.219C399.021 214.219 396.129 223.459 401.495 229.084C405.448 233.036 409.734 236.66 414.307 239.918V232.689Z" fill="#003366"/>
<path d="M422.335 214.441C422.335 214.441 422.775 210.441 429.131 205.447C435.487 200.452 439.545 197.629 439.545 197.629C439.545 197.629 441.415 207.115 435.465 212.163C431.108 215.69 426.455 218.856 421.554 221.628L422.335 214.441Z" fill="#003366"/>
<path d="M412.196 244.075C412.196 244.075 413.064 240.14 419.894 235.819C426.723 231.498 431.089 229.113 431.089 229.113C431.089 229.113 431.924 238.739 425.469 243.145C420.751 246.21 415.778 248.886 410.601 251.145L412.196 244.075Z" fill="#003366"/>
<path d="M414.098 276.385C414.098 276.385 414.098 272.364 419.883 266.76C425.667 261.156 429.384 257.926 429.384 257.926C429.384 257.926 432.276 267.166 426.91 272.792C422.96 276.75 418.674 280.378 414.098 283.636V276.385Z" fill="#003366"/>
<path d="M414.01 284.269C414.01 284.269 414.593 280.29 409.688 273.927C404.783 267.564 401.572 263.863 401.572 263.863C401.572 263.863 397.36 272.612 401.858 278.922C405.193 283.385 408.904 287.571 412.954 291.434L414.01 284.269Z" fill="#003366"/>
<path d="M408.303 307.647C408.303 307.647 408.303 303.625 414.087 298.021C419.872 292.417 423.589 289.188 423.589 289.188C423.589 289.188 426.481 298.428 421.114 304.053C417.162 308.009 412.876 311.636 408.303 314.898V307.647Z" fill="#003366"/>
<path d="M412.163 328.834C412.163 328.834 411.118 324.952 415.253 318.085C419.388 311.219 422.137 307.188 422.137 307.188C422.137 307.188 427.339 315.422 423.611 322.16C420.822 326.963 417.622 331.528 414.043 335.807L412.163 328.834Z" fill="#003366"/>
<path d="M423.226 206.57C422.928 210.752 422.4 214.914 421.642 219.04C419.355 230.527 413.636 237.938 411.349 248.323C409.062 258.707 415.627 272.065 413.867 285.391C412.108 298.716 406.774 306.139 408.303 315.026C409.831 323.913 417.826 348.009 417.826 348.009" stroke="#263238" stroke-linecap="round" stroke-linejoin="round"/>
<path d="M422.28 217.113L428.515 212.461" stroke="#263238" stroke-linecap="round" stroke-linejoin="round"/>
<path d="M422.566 211.755L419.959 207.242" stroke="#263238" stroke-linecap="round" stroke-linejoin="round"/>
<path d="M411.701 247.841C411.701 247.841 416.913 244.034 422.28 240.227" stroke="#263238" stroke-linecap="round" stroke-linejoin="round"/>
<path d="M414.307 239.914C411.706 235.022 408.596 230.403 405.025 226.129" stroke="#263238" stroke-linecap="round" stroke-linejoin="round"/>
<path d="M414.307 282.095C417.285 276.757 421.045 271.868 425.469 267.582" stroke="#263238" stroke-linecap="round" stroke-linejoin="round"/>
<path d="M413.295 287.775C411.708 284.151 409.817 280.66 407.643 277.337C404.597 272.973 404.157 272.406 404.157 272.406" stroke="#263238" stroke-linecap="round" stroke-linejoin="round"/>
<path d="M408.303 315.025C409.623 311.833 411.193 308.744 412.998 305.785C414.809 303.044 416.847 300.451 419.091 298.031" stroke="#263238" stroke-linecap="round" stroke-linejoin="round"/>
<path d="M414.043 335.826C413.745 332.777 414.287 329.706 415.616 326.928C417.815 322.843 420.245 317.485 421.268 315.367" stroke="#263238" stroke-linecap="round" stroke-linejoin="round"/>
<path d="M375.499 261.274C375.499 261.274 375.048 258.75 378.05 254.612C381.052 250.473 383.021 248.066 383.021 248.066C383.021 248.066 385.869 253.564 383.131 257.692C381.088 260.586 378.804 263.312 376.301 265.841L375.499 261.274Z" fill="#003366"/>
<path d="M383.515 276.119C383.515 276.119 383.076 273.606 386.067 269.467C389.058 265.328 391.037 262.922 391.037 262.922C391.037 262.922 393.886 268.408 391.147 272.547C389.113 275.447 386.832 278.177 384.329 280.707L383.515 276.119Z" fill="#003366"/>
<path d="M376.488 265.532C376.488 265.532 375.773 263.072 371.221 260.601C366.668 258.131 363.82 256.805 363.82 256.805C363.82 256.805 363.71 262.954 367.998 265.489C371.13 267.237 374.403 268.732 377.786 269.959L376.488 265.532Z" fill="#003366"/>
<path d="M386.155 283.04C386.155 283.04 385.176 280.665 380.392 278.687C375.608 276.708 372.617 275.66 372.617 275.66C372.617 275.66 373.167 281.788 377.709 283.863C381.009 285.288 384.426 286.44 387.925 287.307L386.155 283.04Z" fill="#003366"/>
<path d="M388.574 303.495C388.574 303.495 388.123 300.982 383.867 298.062C379.611 295.142 376.917 293.527 376.917 293.527C376.917 293.527 376.136 299.623 380.128 302.586C383.05 304.651 386.143 306.475 389.377 308.04L388.574 303.495Z" fill="#003366"/>
<path d="M389.509 308.438C389.509 308.438 388.695 306.011 391.059 301.498C393.424 296.984 395.029 294.332 395.029 294.332C395.029 294.332 398.647 299.369 396.536 303.797C394.942 306.947 393.081 309.963 390.971 312.813L389.509 308.438Z" fill="#003366"/>
<path d="M396.767 328.759C396.767 328.759 397.075 326.224 401.166 323.069C405.257 319.914 407.841 318.16 407.841 318.16C407.841 318.16 408.941 324.203 405.158 327.379C402.364 329.602 399.384 331.595 396.25 333.336L396.767 328.759Z" fill="#003366"/>
<path d="M395.7 322.49C395.7 322.49 395.249 319.977 390.993 317.057C386.737 314.137 384.043 312.512 384.043 312.512C384.043 312.512 383.262 318.618 387.265 321.57C390.182 323.636 393.272 325.461 396.503 327.025L395.7 322.49Z" fill="#003366"/>
<path d="M395.612 336.192C395.612 336.192 395.843 333.635 392.478 329.775C389.113 325.914 386.979 323.668 386.979 323.668C386.979 323.668 384.637 329.379 387.727 333.229C390.015 335.944 392.531 338.47 395.249 340.78L395.612 336.192Z" fill="#003366"/>
<path d="M375.059 260.688C375.708 263.281 376.504 265.837 377.445 268.345C380.161 275.307 384.571 279.35 387.166 285.617C389.762 291.884 387.166 300.953 389.718 309.146C392.269 317.338 396.481 321.402 396.525 327.145C396.569 332.888 394.226 348.834 394.226 348.834" stroke="#263238" stroke-linecap="round" stroke-linejoin="round"/>
<path d="M376.829 267.197L372.397 264.93" stroke="#263238" stroke-linecap="round" stroke-linejoin="round"/>
<path d="M376.048 263.863L377.181 260.762" stroke="#263238" stroke-linecap="round" stroke-linejoin="round"/>
<path d="M386.891 285.349C386.891 285.349 383.196 283.52 379.402 281.691" stroke="#263238" stroke-linecap="round" stroke-linejoin="round"/>
<path d="M384.373 280.664C385.459 277.323 386.893 274.098 388.651 271.039" stroke="#263238" stroke-linecap="round" stroke-linejoin="round"/>
<path d="M389.08 307.111C386.616 304.074 383.712 301.401 380.458 299.176" stroke="#263238" stroke-linecap="round" stroke-linejoin="round"/>
<path d="M390.344 310.532C390.931 308.094 391.725 305.708 392.72 303.399C394.149 300.329 394.358 299.934 394.358 299.934" stroke="#263238" stroke-linecap="round" stroke-linejoin="round"/>
<path d="M396.316 331.473C397.754 329.738 399.347 328.131 401.078 326.671C402.177 325.879 403.211 325.002 404.168 324.051" stroke="#263238" stroke-linecap="round" stroke-linejoin="round"/>
<path d="M396.525 327.12C395.339 325.241 394.008 323.454 392.544 321.772C391.1 320.249 389.533 318.84 387.859 317.559" stroke="#263238" stroke-linecap="round" stroke-linejoin="round"/>
<path d="M395.238 340.778C395.088 338.832 394.409 336.961 393.27 335.355C391.444 333.024 389.3 329.922 388.431 328.703" stroke="#263238" stroke-linecap="round" stroke-linejoin="round"/>
<path d="M387.837 346.031H425.678V357.646C425.678 358.639 425.272 359.591 424.55 360.293C423.829 360.995 422.85 361.389 421.829 361.389H391.686C390.665 361.389 389.686 360.995 388.964 360.293C388.242 359.591 387.837 358.639 387.837 357.646V346.031Z" fill="white" stroke="#263238" stroke-linecap="round" stroke-linejoin="round"/>
<path d="M425.304 350.874H387.837C387.052 350.871 386.299 350.566 385.745 350.024C385.19 349.483 384.879 348.75 384.879 347.986C384.882 347.224 385.194 346.494 385.749 345.955C386.303 345.416 387.053 345.112 387.837 345.109H425.304C426.089 345.109 426.841 345.412 427.396 345.952C427.951 346.492 428.262 347.223 428.262 347.986C428.264 348.365 428.188 348.74 428.04 349.091C427.892 349.441 427.674 349.759 427.4 350.027C427.125 350.296 426.798 350.509 426.439 350.654C426.079 350.799 425.693 350.874 425.304 350.874Z" fill="white" stroke="#263238" stroke-linecap="round" stroke-linejoin="round"/>
<path d="M344.619 201.941C344.619 201.941 333.127 237.919 330.642 239.127C328.156 240.336 279.044 228.539 279.044 228.539C279.044 228.539 275.008 231.865 272.522 232.817C270.837 233.49 269.265 234.406 267.86 235.534C267.86 235.534 261.932 242.325 262.24 240.507C262.548 238.689 265.055 236.143 265.055 236.143C265.055 236.143 259.744 241.694 259.128 241.095C258.512 240.496 263.197 235.534 263.197 235.534C263.197 235.534 256.192 241.876 255.741 240.678C255.411 239.812 259.964 234.785 259.964 234.785C259.964 234.785 252.321 242.186 252.321 240.678C252.321 239.17 255.741 235.534 257.907 234.026C260.074 232.518 271.28 225.866 273.765 225.866C276.25 225.866 320.381 227.074 320.381 227.074L332.192 187.172" fill="white"/>
<path d="M344.619 201.941C344.619 201.941 333.127 237.919 330.642 239.127C328.156 240.336 279.044 228.539 279.044 228.539C279.044 228.539 275.008 231.865 272.522 232.817C270.837 233.49 269.265 234.406 267.86 235.534C267.86 235.534 261.932 242.325 262.24 240.507C262.548 238.689 265.055 236.143 265.055 236.143C265.055 236.143 259.744 241.694 259.128 241.095C258.512 240.496 263.197 235.534 263.197 235.534C263.197 235.534 256.192 241.876 255.741 240.678C255.411 239.812 259.964 234.785 259.964 234.785C259.964 234.785 252.321 242.186 252.321 240.678C252.321 239.17 255.741 235.534 257.907 234.026C260.074 232.518 271.28 225.866 273.765 225.866C276.25 225.866 320.381 227.074 320.381 227.074L332.192 187.172" stroke="#263238" stroke-linecap="round" stroke-linejoin="round"/>
<path d="M273.611 230.421C273.206 231.74 272.287 232.853 271.049 233.522C268.849 234.912 265.627 233.982 264.033 235.073C262.438 236.164 260.525 237.212 259.887 237.083C259.249 236.955 260.689 234.602 261.646 233.982C262.603 233.362 267.86 229.02 267.86 229.02" fill="white"/>
<path d="M273.611 230.421C273.206 231.74 272.287 232.853 271.049 233.522C268.849 234.912 265.627 233.982 264.033 235.073C262.438 236.164 260.525 237.212 259.887 237.083C259.249 236.955 260.689 234.602 261.646 233.982C262.603 233.362 267.86 229.02 267.86 229.02" stroke="#263238" stroke-linecap="round" stroke-linejoin="round"/>
<path d="M278.78 344.941C278.78 344.941 273.523 346.663 270.939 347.701C268.355 348.738 260.228 348.267 259.359 349.519C258.49 350.77 262.009 351.561 266.947 353.893C271.885 356.224 276.064 354.706 277.064 355.069C278.065 355.433 280.649 357.112 284.388 355.315C288.127 353.519 285.807 346.524 285.807 346.524L278.78 344.941Z" fill="#263238" stroke="#263238" stroke-linecap="round" stroke-linejoin="round"/>
<path d="M336.085 253.852C336.085 253.852 295.638 258.525 292.889 260.675C290.14 262.824 278.593 345.164 278.593 345.164L285.62 346.736L306.338 283.358C306.338 283.358 330.642 277.22 343.332 278.225C356.023 279.23 359.905 276.46 362.489 269.412C365.073 262.365 361.719 257.071 357.837 256.065" fill="#263238"/>
<path d="M336.085 253.852C336.085 253.852 295.638 258.525 292.889 260.675C290.14 262.824 278.593 345.164 278.593 345.164L285.62 346.736L306.338 283.358C306.338 283.358 330.642 277.22 343.332 278.225C356.023 279.23 359.905 276.46 362.489 269.412C365.073 262.365 361.719 257.071 357.837 256.065" stroke="#263238" stroke-linecap="round" stroke-linejoin="round"/>
<path d="M333.336 248.132C333.336 248.132 332.786 267.382 332.786 271.393C332.786 275.403 337.768 279.467 346.477 279.467C355.187 279.467 366.822 278.655 370.55 275.029C374.278 271.403 371.386 246.773 371.386 246.773L333.336 248.132Z" fill="#263238" stroke="#263238" stroke-linecap="round" stroke-linejoin="round"/>
<path d="M325.539 183.362C325.539 183.362 322.702 194.731 324.12 202.613C325.539 210.495 330.499 225.692 330.147 229.489C329.795 233.285 331.246 246.707 333.336 248.087C335.425 249.467 369.813 248.087 369.813 248.087C369.813 248.087 373.002 247.017 372.298 241.884C371.595 236.75 367.691 215.361 364.501 198.132C361.312 180.902 340.77 169.887 340.77 169.887L325.539 183.362Z" fill="#003366" stroke="#263238" stroke-linecap="round" stroke-linejoin="round"/>
<path d="M313.135 123.771C313.135 123.771 307.823 123.771 305.338 127.91C302.852 132.048 307.823 134.797 307.823 134.797C307.823 134.797 304.986 143.749 304.986 145.492C305.207 147.16 305.685 148.786 306.404 150.315L304.337 158.219L307.878 159.598C307.878 159.598 309.286 167.865 311.771 168.55C314.256 169.234 319.568 166.828 319.568 166.828L326.298 178.196L340.814 169.929L336.206 158.903C336.206 158.903 343.651 143.749 342.233 134.444C340.814 125.14 323.417 120.669 313.135 123.771Z" fill="white" stroke="#263238" stroke-linecap="round" stroke-linejoin="round"/>
<path d="M342.188 134.446C340.77 125.152 323.416 120.671 313.145 123.751C313.145 123.751 307.834 123.751 305.348 127.89C302.863 132.029 307.834 134.777 307.834 134.777C307.834 134.777 319.523 131.676 319.523 134.424C319.523 137.173 317.038 138.905 317.753 141.322C318.468 143.739 322.702 143.729 322.702 143.729L322.35 148.894L325.539 150.969C325.539 150.969 325.539 145.793 327.661 146.146C329.784 146.499 331.213 147.215 331.213 150.969C331.213 154.723 328.024 155.097 328.024 155.097C328.024 155.097 332.621 161.642 336.162 158.883C336.162 158.905 343.607 143.75 342.188 134.446Z" fill="#263238" stroke="#263238" stroke-linecap="round" stroke-linejoin="round"/>
<path d="M341.122 165.109L321.998 181.643L323.417 188.542L345.026 170.97L341.122 165.109Z" fill="white" stroke="#263238" stroke-linecap="round" stroke-linejoin="round"/>
<path d="M265.286 233.982C269.123 231.382 273.169 229.086 277.383 227.115C282.695 225.051 327.32 223.993 327.32 223.993L329.212 216.164L343.277 222.346C341.155 229.244 339.131 235.051 338.197 235.564C335.777 236.891 286.587 231.286 286.587 231.286C286.587 231.286 283.002 233.008 280.561 234.035C278.886 234.678 277.105 235.019 275.305 235.04C275.305 235.04 269.74 242.099 269.96 240.27C270.18 238.441 272.544 235.778 272.544 235.778C272.544 235.778 267.519 241.586 266.87 241.008C266.221 240.43 270.642 235.265 270.642 235.265C270.642 235.265 263.978 241.938 263.461 240.762C263.087 239.906 267.387 234.677 267.387 234.677C267.387 234.677 260.129 242.441 260.052 240.933C259.975 239.425 263.186 235.596 265.286 233.982Z" fill="white" stroke="#263238" stroke-linecap="round" stroke-linejoin="round"/>
<path d="M337.944 184.742C337.944 184.742 333.336 186.464 332.984 190.261C332.632 194.057 327.31 223.992 327.31 223.992L343.255 235.04L353.878 195.801" fill="#003366"/>
<path d="M337.944 184.742C337.944 184.742 333.336 186.464 332.984 190.261C332.632 194.057 327.31 223.992 327.31 223.992L343.255 235.04L353.878 195.801" stroke="#263238" stroke-linecap="round" stroke-linejoin="round"/>
<path d="M325.539 224.013C325.539 224.013 339.351 237.103 341.122 237.103C342.892 237.103 342.222 236.761 343.255 235.039C344.289 233.317 345.378 227.114 345.378 227.114L328.376 218.559C326.948 220.098 325.968 221.981 325.539 224.013Z" fill="white" stroke="#263238" stroke-linecap="round" stroke-linejoin="round"/>
<path d="M352.723 254.44C338.551 251.826 324.114 250.821 309.703 251.445C288.358 252.376 282.211 256.557 283.002 260.194C283.794 263.83 301.697 334.447 301.697 334.447L309.164 333.645L305.018 269.477C305.018 269.477 330.751 277.851 346.51 279.466C362.269 281.081 366.305 279.615 370.583 275.027" fill="#263238"/>
<path d="M352.723 254.44C338.551 251.826 324.114 250.821 309.703 251.445C288.358 252.376 282.211 256.557 283.002 260.194C283.794 263.83 301.697 334.447 301.697 334.447L309.164 333.645L305.018 269.477C305.018 269.477 330.751 277.851 346.51 279.466C362.269 281.081 366.305 279.615 370.583 275.027" stroke="#263238" stroke-linecap="round" stroke-linejoin="round"/>
<path d="M301.665 334.448C301.665 334.448 298.365 337.314 296.683 339.078C295 340.843 284.333 346.843 283.431 347.902C282.53 348.96 285.422 350.383 287.83 350.383C290.239 350.383 304.898 346.672 308.527 346.105C312.156 345.538 312.53 344.34 312.706 342.747C312.881 341.153 309.176 333.613 309.176 333.613L301.665 334.448Z" fill="#263238" stroke="#263238" stroke-linecap="round" stroke-linejoin="round"/>
<path d="M342.584 312.555H354.208V281.08H342.584V312.555Z" fill="#263238"/>
<path d="M345.499 335.969H351.305V304.494H345.499V335.969Z" fill="#263238"/>
<path d="M349.491 282.677C357.111 282.677 363.435 282.623 365.15 282.484C370.55 282.045 372.958 280.281 373.222 280.078C376.818 276.976 376.95 270.164 377.28 253.726C377.368 249.277 377.467 244.229 377.654 238.357C378.468 212.337 388.233 186.317 388.332 186.06C388.427 185.834 388.474 185.591 388.471 185.347C388.467 185.103 388.413 184.862 388.311 184.638C388.21 184.415 388.063 184.214 387.88 184.047C387.697 183.879 387.481 183.75 387.245 183.666C387.009 183.582 386.758 183.545 386.507 183.557C386.257 183.569 386.011 183.631 385.785 183.737C385.559 183.844 385.357 183.994 385.192 184.178C385.027 184.362 384.902 184.576 384.824 184.809C384.725 185.065 374.751 211.62 373.926 238.283C373.739 244.175 373.64 249.223 373.552 253.683C373.266 267.586 373.112 275.212 370.869 277.276C369.025 278.285 366.957 278.843 364.842 278.901C360.004 279.286 314.839 278.901 314.388 278.901C313.892 278.901 313.417 279.093 313.066 279.434C312.716 279.775 312.519 280.237 312.519 280.719C312.519 281.202 312.716 281.664 313.066 282.005C313.417 282.346 313.892 282.537 314.388 282.537C315.576 282.505 334.919 282.677 349.491 282.677Z" fill="#263238"/>
<path d="M350.766 333.539C350.766 333.539 355.649 338.886 368.196 340.811C374.795 341.795 381.723 343.036 387.705 346.159C391.565 348.137 399.23 352.48 399.23 357.442C399.172 358.583 398.666 359.658 397.815 360.446C396.965 361.234 395.835 361.673 394.661 361.673C393.486 361.673 392.357 361.234 391.506 360.446C390.655 359.658 390.149 358.583 390.091 357.442C390.09 356.315 390.535 355.231 391.334 354.415C388.197 349.831 383.337 346.625 377.797 345.485C368.251 343.464 361.301 344.287 347.863 335.603L350.766 333.539Z" fill="#263238"/>
<path d="M346.609 333.539C346.609 333.539 341.726 338.886 329.179 340.811C322.581 341.795 315.652 343.036 309.659 346.159C305.81 348.137 298.145 352.48 298.145 357.442C298.14 358.17 298.318 358.888 298.664 359.533C299.01 360.179 299.514 360.731 300.131 361.143C300.749 361.555 301.46 361.813 302.204 361.896C302.948 361.978 303.701 361.881 304.397 361.614C305.094 361.347 305.712 360.918 306.198 360.365C306.684 359.811 307.024 359.15 307.186 358.439C307.348 357.729 307.329 356.99 307.129 356.289C306.929 355.587 306.556 354.944 306.041 354.415C309.178 349.831 314.038 346.625 319.578 345.485C329.124 343.464 336.074 344.287 349.512 335.603L346.609 333.539Z" fill="#263238"/>
<path d="M346.708 361.836H350.502C350.903 361.836 351.228 361.52 351.228 361.13V354.2C351.228 353.81 350.903 353.494 350.502 353.494H346.708C346.307 353.494 345.982 353.81 345.982 354.2V361.13C345.982 361.52 346.307 361.836 346.708 361.836Z" fill="#263238"/>
<path d="M347.368 361.836H349.854V334.297H347.368V361.836Z" fill="#263238"/>
<path d="M129.737 137.632C129.758 139.444 129.659 141.255 129.44 143.054C129.143 144.199 127.087 145.91 127.681 147.332C128.274 148.755 129.44 152.765 129.44 152.765L125.921 153.332C125.921 153.332 121.808 160.754 119.169 161.61C116.53 162.465 104.785 156.23 104.785 156.23L100.969 173.075L91.8633 164.786C91.8633 164.786 95.6793 154.509 95.9762 151.952C96.2731 149.396 96.559 131.119 99.2093 125.697C101.86 120.275 107.424 116.275 117.112 117.419C126.801 118.563 133.553 127.066 129.737 137.632Z" fill="white" stroke="#263238" stroke-linecap="round" stroke-linejoin="round"/>
<path d="M113.879 136.487L106.544 169.887L82.4717 155.331C82.4717 155.331 95.0963 133.343 97.7356 126.455C100.375 119.568 105.961 114.177 115.639 115.322C125.316 116.466 130.914 124.455 132.376 128.733C133.839 133.011 131.2 138.733 131.2 138.733L113.879 136.487Z" fill="#263238" stroke="#263238" stroke-linecap="round" stroke-linejoin="round"/>
<path d="M103.718 254.035C103.718 254.035 156.427 252.024 160.155 256.869C163.882 261.714 169.7 329.508 174.759 340.887C177.299 346.598 195.851 340.812 194.19 344.031C192.53 347.25 186.305 351.304 182.566 352.106C178.827 352.908 176.342 354.929 171.778 356.148C167.215 357.368 165.554 352.512 165.972 349.732C166.138 347.169 166.005 344.597 165.576 342.063C165.576 342.063 163.234 328.599 160.99 322.289C147.09 283.135 149.784 271.435 149.784 271.435C149.784 271.435 124.491 280.312 103.718 279.51" fill="white"/>
<path d="M103.718 254.035C103.718 254.035 156.427 252.024 160.155 256.869C163.883 261.714 169.7 329.508 174.759 340.887C177.299 346.598 195.851 340.812 194.19 344.031C192.53 347.25 186.305 351.304 182.566 352.106C178.827 352.908 176.342 354.929 171.778 356.148C167.215 357.368 165.554 352.512 165.972 349.732C166.138 347.169 166.005 344.597 165.576 342.063C165.576 342.063 163.234 328.599 160.99 322.289C147.09 283.135 149.784 271.435 149.784 271.435C149.784 271.435 124.491 280.312 103.718 279.51" stroke="#263238" stroke-linecap="round" stroke-linejoin="round"/>
<path d="M194.19 344.031C195.158 342.148 189.209 343.346 183.6 343.517L184.645 346.865C184.645 346.865 178.828 348.672 174.055 349.891C171.382 350.448 168.634 350.581 165.917 350.287C165.796 353.142 167.523 357.271 171.778 356.148C176.342 354.929 178.828 352.939 182.567 352.105C186.306 351.271 192.53 347.26 194.19 344.031Z" fill="#263238" stroke="#263238" stroke-linecap="round" stroke-linejoin="round"/>
<path d="M81.229 201.937C81.229 201.937 92.7319 237.914 95.2172 239.123C97.7025 240.332 146.804 228.535 146.804 228.535C146.804 228.535 150.851 231.861 153.337 232.813C155.022 233.486 156.594 234.402 157.999 235.53C157.999 235.53 163.916 242.321 163.608 240.503C163.3 238.684 160.792 236.139 160.792 236.139C160.792 236.139 166.104 241.69 166.731 241.091C167.358 240.492 162.662 235.53 162.662 235.53C162.662 235.53 169.667 241.872 170.118 240.674C170.448 239.807 165.884 234.781 165.884 234.781C165.884 234.781 173.582 242.182 173.582 240.674C173.582 239.166 170.173 235.487 167.974 233.979C165.774 232.471 154.612 225.819 152.127 225.819C149.642 225.819 105.499 227.027 105.499 227.027L93.6996 187.125" fill="white"/>
<path d="M81.229 201.937C81.229 201.937 92.7319 237.914 95.2172 239.123C97.7025 240.332 146.804 228.535 146.804 228.535C146.804 228.535 150.851 231.861 153.337 232.813C155.022 233.486 156.594 234.402 157.999 235.53C157.999 235.53 163.916 242.321 163.608 240.503C163.3 238.684 160.792 236.139 160.792 236.139C160.792 236.139 166.104 241.69 166.731 241.091C167.358 240.492 162.662 235.53 162.662 235.53C162.662 235.53 169.667 241.872 170.118 240.674C170.448 239.807 165.884 234.781 165.884 234.781C165.884 234.781 173.582 242.182 173.582 240.674C173.582 239.166 170.173 235.487 167.974 233.979C165.774 232.471 154.612 225.819 152.127 225.819C149.642 225.819 105.499 227.027 105.499 227.027L93.6996 187.125" stroke="#263238" stroke-linecap="round" stroke-linejoin="round"/>
<path d="M152.248 230.421C152.65 231.738 153.565 232.851 154.799 233.522C156.998 234.912 160.22 233.982 161.815 235.073C163.41 236.164 165.323 237.212 165.961 237.083C166.599 236.955 165.169 234.602 164.212 233.982C163.256 233.362 157.988 229.02 157.988 229.02" fill="white"/>
<path d="M152.248 230.421C152.65 231.738 153.565 232.851 154.799 233.522C156.998 234.912 160.22 233.982 161.815 235.073C163.41 236.164 165.323 237.212 165.961 237.083C166.599 236.955 165.169 234.602 164.212 233.982C163.256 233.362 157.988 229.02 157.988 229.02" stroke="#263238" stroke-linecap="round" stroke-linejoin="round"/>
<path d="M92.7317 161.137C92.7317 161.137 102.981 168.388 104.828 174.74C106.676 181.093 113.846 202.247 111.976 206.172C110.107 210.097 101.408 220.685 100.793 221.584C100.177 222.482 108.248 260.577 108.864 265.432C109.48 270.288 106.665 276.319 99.5498 278.736C92.4348 281.153 77.4788 282.661 70.9576 274.801C64.4363 266.94 64.7003 257.283 72.8271 237.936C75.1914 232.3 76.863 227.049 76.863 227.049C76.863 227.049 73.4429 199.242 75.3124 187.756C77.1819 176.27 92.7317 161.137 92.7317 161.137Z" fill="#003366" stroke="#263238" stroke-linecap="round" stroke-linejoin="round"/>
<path d="M85.0449 252.023C85.0449 252.023 153.139 249.884 159.363 253.156C165.587 256.429 138.996 346.051 138.996 346.051C138.996 346.051 141.548 349.783 143.89 352.767C145.764 355.151 147.928 357.306 150.334 359.184C151.06 359.612 153.117 359.901 152.38 360.895C151.643 361.89 147.849 361.034 144.187 360.756C140.525 360.478 137.017 358.906 136.423 357.901C135.829 356.895 132.475 352.928 131.155 352.35C129.836 351.773 127.647 350.072 128.67 348.222C129.693 346.372 132.915 343.527 133.069 342.532C133.223 341.538 137.468 316.245 137.93 310.705C140.349 278.278 142.328 270.279 142.328 270.279C142.328 270.279 108.238 284.31 86.2436 280.321" fill="#003366"/>
<path d="M85.0449 252.023C85.0449 252.023 153.139 249.884 159.363 253.156C165.587 256.429 138.996 346.051 138.996 346.051C138.996 346.051 141.548 349.783 143.89 352.767C145.764 355.151 147.928 357.306 150.334 359.184C151.06 359.612 153.117 359.901 152.38 360.895C151.643 361.89 147.849 361.034 144.187 360.756C140.525 360.478 137.017 358.906 136.423 357.901C135.829 356.895 132.475 352.928 131.155 352.35C129.836 351.773 127.647 350.072 128.67 348.222C129.693 346.372 132.915 343.527 133.069 342.532C133.223 341.538 137.468 316.245 137.93 310.705C140.349 278.278 142.328 270.279 142.328 270.279C142.328 270.279 108.238 284.31 86.2436 280.321" stroke="#263238" stroke-linecap="round" stroke-linejoin="round"/>
<path d="M159.363 253.158C156.547 251.693 141.042 251.329 124.92 251.361L125.217 276.034C131.001 274.4 136.694 272.476 142.273 270.27C142.273 270.27 140.338 278.269 137.874 310.696C137.457 316.236 133.157 341.529 133.014 342.524C132.871 343.518 129.649 346.363 128.615 348.213C127.581 350.063 129.781 351.774 131.1 352.341C132.42 352.908 135.785 356.897 136.368 357.892C136.951 358.887 140.47 360.459 144.132 360.747C147.794 361.036 151.599 361.881 152.325 360.886C153.05 359.892 151.005 359.603 150.279 359.175C147.873 357.297 145.709 355.142 143.835 352.758C141.492 349.775 138.941 346.042 138.941 346.042C138.941 346.042 165.587 256.388 159.363 253.158Z" fill="white" stroke="#263238" stroke-linecap="round" stroke-linejoin="round"/>
<path d="M150.378 359.173C149.301 358.378 148.293 357.498 147.365 356.542H139.821L131.617 344.574C130.524 345.697 129.537 346.914 128.67 348.21C127.647 350.061 129.836 351.772 131.156 352.339C132.475 352.905 135.84 356.895 136.423 357.889C137.006 358.884 140.525 360.456 144.187 360.745C147.849 361.034 151.654 361.878 152.38 360.884C153.106 359.889 151.06 359.6 150.378 359.173Z" fill="#263238" stroke="#263238" stroke-linecap="round" stroke-linejoin="round"/>
<path d="M82.6914 198.068C82.6914 198.068 98.4172 232.495 101.034 233.361C103.652 234.227 151.005 217.009 151.005 217.009C151.005 217.009 155.404 219.853 157.999 220.474C159.753 220.942 161.425 221.663 162.959 222.613C162.959 222.613 169.645 228.687 169.128 226.891C168.611 225.094 165.829 222.88 165.829 222.88C165.829 222.88 171.767 227.789 172.317 227.158C172.867 226.527 167.61 222.099 167.61 222.099C167.61 222.099 175.308 227.607 175.627 226.377C175.858 225.479 170.723 221.03 170.723 221.03C170.723 221.03 179.212 227.511 179.025 226.014C178.838 224.516 175.011 221.297 172.669 220.046C170.327 218.795 158.373 213.447 155.954 213.736C153.534 214.025 109.766 220.217 109.766 220.217L93.2706 181.93" fill="#003366"/>
<path d="M82.6914 198.068C82.6914 198.068 98.4172 232.495 101.034 233.361C103.652 234.227 151.005 217.009 151.005 217.009C151.005 217.009 155.404 219.853 157.999 220.474C159.753 220.942 161.425 221.663 162.959 222.613C162.959 222.613 169.645 228.687 169.128 226.891C168.611 225.094 165.829 222.88 165.829 222.88C165.829 222.88 171.767 227.789 172.317 227.158C172.867 226.527 167.61 222.099 167.61 222.099C167.61 222.099 175.308 227.607 175.627 226.377C175.858 225.479 170.723 221.03 170.723 221.03C170.723 221.03 179.212 227.511 179.025 226.014C178.838 224.516 175.011 221.297 172.669 220.046C170.327 218.795 158.373 213.447 155.954 213.736C153.534 214.025 109.766 220.217 109.766 220.217L93.2706 181.93" stroke="#263238" stroke-linecap="round" stroke-linejoin="round"/>
<path d="M172.647 220.065C170.305 218.803 158.351 213.466 155.932 213.755C153.512 214.043 109.744 220.236 109.744 220.236L106.544 212.824L93.7324 221.188C97.0315 227.658 99.9897 233.048 101.001 233.401C103.619 234.321 150.972 217.049 150.972 217.049C150.972 217.049 155.371 219.893 157.966 220.514C159.72 220.982 161.392 221.703 162.926 222.653C162.926 222.653 169.612 228.727 169.095 226.931C168.578 225.134 165.796 222.92 165.796 222.92C165.796 222.92 171.734 227.829 172.284 227.198C172.834 226.567 167.577 222.139 167.577 222.139C167.577 222.139 175.275 227.647 175.594 226.417C175.825 225.519 170.69 221.07 170.69 221.07C170.69 221.07 179.179 227.551 178.992 226.054C178.805 224.556 174.989 221.316 172.647 220.065Z" fill="white" stroke="#263238" stroke-linecap="round" stroke-linejoin="round"/>
<path d="M99.1649 281.082H87.541V312.557H99.1649V281.082Z" fill="#263238"/>
<path d="M96.2508 304.48H90.4443V335.955H96.2508V304.48Z" fill="#263238"/>
<path d="M92.2592 282.675C84.6273 282.675 78.315 282.621 76.5884 282.482C71.1999 282.044 68.7805 280.279 68.5276 280.076C64.9316 276.974 64.7996 270.162 64.4697 253.724C64.3707 249.275 64.2718 244.227 64.0958 238.356C63.282 212.335 53.5167 186.315 53.4177 186.058C53.3316 185.835 53.2918 185.597 53.3005 185.359C53.3092 185.121 53.3663 184.887 53.4686 184.67C53.5708 184.453 53.7161 184.258 53.8961 184.096C54.0761 183.935 54.2873 183.809 54.5174 183.727C54.9829 183.563 55.4958 183.583 55.9461 183.783C56.3963 183.983 56.748 184.347 56.9257 184.796C57.0247 185.053 66.999 211.608 67.8238 238.27C68.0107 244.163 68.1097 249.211 68.1977 253.671C68.4726 267.574 68.6266 275.199 70.87 277.263C72.7191 278.269 74.7899 278.826 76.9073 278.889C81.746 279.274 126.9 278.889 127.362 278.889C127.858 278.889 128.333 279.08 128.684 279.421C129.034 279.762 129.231 280.225 129.231 280.707C129.231 281.189 129.034 281.652 128.684 281.993C128.333 282.333 127.858 282.525 127.362 282.525C126.185 282.504 106.83 282.675 92.2592 282.675Z" fill="#263238"/>
<path d="M90.9943 333.539C90.9943 333.539 86.1116 338.886 73.564 340.811C66.9658 341.795 60.0377 343.036 54.0443 346.159C50.1953 348.137 42.5304 352.48 42.5304 357.442C42.5248 358.17 42.703 358.888 43.0494 359.533C43.3957 360.179 43.8995 360.731 44.5167 361.143C45.1339 361.555 45.8456 361.813 46.5894 361.896C47.3331 361.978 48.0862 361.881 48.7826 361.614C49.479 361.347 50.0973 360.918 50.5835 360.365C51.0697 359.811 51.4088 359.15 51.571 358.439C51.7333 357.729 51.7138 356.99 51.5142 356.289C51.3146 355.587 50.941 354.944 50.4263 354.415C53.5637 349.831 58.4236 346.625 63.9636 345.485C73.509 343.464 80.4591 344.287 93.8975 335.603L90.9943 333.539Z" fill="#263238"/>
<path d="M95.1403 333.539C95.1403 333.539 100.012 338.886 112.571 340.811C119.169 341.795 126.097 343.036 132.079 346.159C135.939 348.137 143.604 352.48 143.604 357.442C143.547 358.583 143.04 359.658 142.19 360.446C141.339 361.234 140.209 361.673 139.035 361.673C137.86 361.673 136.731 361.234 135.88 360.446C135.03 359.658 134.523 358.583 134.466 357.442C134.465 356.315 134.91 355.231 135.708 354.415C132.571 349.831 127.711 346.625 122.171 345.485C112.626 343.464 105.675 344.287 92.2261 335.603L95.1403 333.539Z" fill="#263238"/>
<path d="M95.03 353.504H91.2361C90.8352 353.504 90.5103 353.82 90.5103 354.21V361.14C90.5103 361.53 90.8352 361.846 91.2361 361.846H95.03C95.4309 361.846 95.7558 361.53 95.7558 361.14V354.21C95.7558 353.82 95.4309 353.504 95.03 353.504Z" fill="#263238"/>
<path d="M94.3813 334.297H91.896V361.836H94.3813V334.297Z" fill="#263238"/>
<path d="M185.887 241.551H152.27V243.166H185.887V241.551Z" fill="white" stroke="#263238" stroke-linecap="round" stroke-linejoin="round"/>
<path d="M201.13 170.102L205.199 176.422L199.601 223.468L195.235 222.977L201.13 170.102Z" fill="#263238" stroke="#263238" stroke-linecap="round" stroke-linejoin="round"/>
<path d="M202.309 163.591L199.141 163.234L191.927 223.779L195.095 224.136L202.309 163.591Z" fill="white" stroke="#263238" stroke-linecap="round" stroke-linejoin="round"/>
<path d="M201.206 209.969L199.392 241.026H189.011V243.433H199.392H201.789V241.026L203.582 210.236L201.206 209.969Z" fill="white" stroke="#263238" stroke-linecap="round" stroke-linejoin="round"/>
<path d="M260.81 243.168H294.428V241.553H260.81V243.168Z" fill="white" stroke="#263238" stroke-linecap="round" stroke-linejoin="round"/>
<path d="M245.558 170.102L241.489 176.422L247.097 223.468L251.463 222.977L245.558 170.102Z" fill="#263238" stroke="#263238" stroke-linecap="round" stroke-linejoin="round"/>
<path d="M251.609 224.134L254.777 223.777L247.563 163.233L244.395 163.59L251.609 224.134Z" fill="white" stroke="#263238" stroke-linecap="round" stroke-linejoin="round"/>
<path d="M245.492 209.969L247.306 241.026H257.676V243.433H247.306H244.909V241.026L243.116 210.236L245.492 209.969Z" fill="white" stroke="#263238" stroke-linecap="round" stroke-linejoin="round"/>
<path d="M156.515 245.059L221.595 347.482L298.244 245.059" stroke="#263238" stroke-width="3" stroke-linecap="round" stroke-linejoin="round"/>
<path d="M307.471 243.145H147.288V246.374H307.471V243.145Z" fill="white" stroke="#263238" stroke-linecap="round" stroke-linejoin="round"/>
<path d="M229.953 186.957H213.193V356.95H229.953V186.957Z" fill="#263238" stroke="#263238" stroke-linecap="round" stroke-linejoin="round"/>
<path d="M178.157 265.852H173.791V293.861H178.157V265.852Z" fill="white" stroke="#263238" stroke-linecap="round" stroke-linejoin="round"/>
<path d="M178.157 297.625H173.791V325.635H178.157V297.625Z" fill="white" stroke="#263238" stroke-linecap="round" stroke-linejoin="round"/>
<path d="M178.157 329.41H173.791V357.42H178.157V329.41Z" fill="white" stroke="#263238" stroke-linecap="round" stroke-linejoin="round"/>
<path d="M267.64 261.699H176.342V361.385H267.64V261.699Z" fill="#263238" stroke="#263238" stroke-linecap="round" stroke-linejoin="round"/>
<path d="M0.5 361.387H461.594" stroke="#263238" stroke-linecap="round" stroke-linejoin="round"/>
</svg>
