<svg width="401" height="380" viewBox="0 0 401 380" fill="none" xmlns="http://www.w3.org/2000/svg">
<path d="M23.9161 135.133C25.0513 132.533 26.2546 129.979 27.526 127.471C72.5129 37.5989 191.927 -38.2591 286.065 21.0139C296.949 27.8209 306.235 36.898 313.288 47.6245C320.341 58.3509 324.995 70.474 326.931 83.1647C334.031 127.947 342.205 176.817 365.379 215.98C378.014 237.316 391.891 263.087 387.311 289.199C380.04 330.644 336.228 349.749 300.972 355.913C263.435 362.468 226.434 353.529 192.506 336.476C156.902 318.597 126.567 293.813 88.5699 280.872C70.8697 274.836 50.8283 271.822 35.9291 259.205C-0.756847 228.172 5.90944 175.505 23.9161 135.133Z" fill="#003366"/>
<path opacity="0.7" d="M23.9161 135.133C25.0513 132.533 26.2546 129.979 27.526 127.471C72.5129 37.5989 191.927 -38.2591 286.065 21.0139C296.949 27.8209 306.235 36.898 313.288 47.6245C320.341 58.3509 324.995 70.474 326.931 83.1647C334.031 127.947 342.205 176.817 365.379 215.98C378.014 237.316 391.891 263.087 387.311 289.199C380.04 330.644 336.228 349.749 300.972 355.913C263.435 362.468 226.434 353.529 192.506 336.476C156.902 318.597 126.567 293.813 88.5699 280.872C70.8697 274.836 50.8283 271.822 35.9291 259.205C-0.756847 228.172 5.90944 175.505 23.9161 135.133Z" fill="white"/>
<path d="M359.266 19.582L173.682 19.582L173.682 379.716L370.351 379.716L370.351 19.582L364.834 19.582" stroke="#263238" stroke-width="0.200275" stroke-miterlimit="10"/>
<path d="M179.641 27.3828L239.238 27.3828L239.238 371.928L179.641 371.928L179.641 27.3828Z" stroke="#263238" stroke-width="0.200275" stroke-miterlimit="10"/>
<path d="M246.05 27.3828L302.241 27.3828L302.241 371.928L246.05 371.928L246.05 27.3828Z" stroke="#263238" stroke-width="0.200275" stroke-miterlimit="10"/>
<path d="M309.051 121.092L309.051 114.826" stroke="#263238" stroke-width="0.200275" stroke-miterlimit="10"/>
<path d="M309.051 109.269L309.051 27.3828L364.391 27.3828L364.391 371.919L309.051 371.919L309.051 128.74" stroke="#263238" stroke-width="0.200275" stroke-miterlimit="10"/>
<path d="M41.1551 202.537C41.1551 202.537 41.1551 198.569 46.7146 193.01C52.2741 187.45 55.8329 184.283 55.8329 184.283C55.8329 184.283 58.6084 193.41 53.4575 198.961C49.6645 202.87 45.5492 206.453 41.1551 209.671L41.1551 202.537Z" fill="#003366"/>
<path d="M49.2184 227.321C49.2184 227.321 49.2184 223.362 54.7694 217.802C60.3204 212.243 63.8536 209.059 63.8536 209.059C63.8536 209.059 66.6291 218.185 61.4697 223.736C57.6782 227.644 53.5658 231.226 49.1758 234.447L49.2184 227.321Z" fill="#003366"/>
<path d="M41.505 209.289C41.505 209.289 41.0878 205.347 34.9749 200.409C28.862 195.471 24.9797 192.695 24.9797 192.695C24.9797 192.695 23.1833 202.061 28.9046 207.041C33.089 210.529 37.5572 213.662 42.2627 216.406L41.505 209.289Z" fill="#003366"/>
<path d="M51.2448 238.551C51.2448 238.551 50.3934 234.668 43.8207 230.403C37.2481 226.138 33.0678 223.779 33.0678 223.779C33.0678 223.779 32.2675 233.281 38.4741 237.631C43.0021 240.658 47.7751 243.3 52.7432 245.532L51.2448 238.551Z" fill="#003366"/>
<path d="M49.3804 270.451C49.3804 270.451 49.3804 266.483 43.8294 260.924C38.2784 255.364 34.7026 252.197 34.7026 252.197C34.7026 252.197 31.9271 261.324 37.0865 266.875C40.8768 270.773 44.9894 274.345 49.3804 277.551L49.3804 270.451Z" fill="#003366"/>
<path d="M49.5075 278.232C49.5075 278.232 48.9456 274.307 53.6537 268.016C58.3618 261.724 61.4438 258.08 61.4438 258.08C61.4438 258.08 65.4879 266.713 61.1714 272.945C57.9728 277.351 54.41 281.48 50.5206 285.29L49.5075 278.232Z" fill="#003366"/>
<path d="M54.982 301.314C54.982 301.314 54.982 297.347 49.431 291.787C43.88 286.228 40.3042 283.061 40.3042 283.061C40.3042 283.061 37.5287 292.187 42.6881 297.738C46.477 301.648 50.5896 305.231 54.982 308.449L54.982 301.314Z" fill="#003366"/>
<path d="M51.2705 322.233C51.2705 322.233 52.2836 318.419 48.3162 311.608C44.3487 304.797 41.718 300.863 41.718 300.863C41.718 300.863 36.7204 308.985 40.2962 315.66C42.9761 320.402 46.049 324.91 49.4826 329.138L51.2705 322.233Z" fill="#003366"/>
<path d="M40.6536 201.516C40.9349 205.647 41.4437 209.76 42.1775 213.835C44.3741 225.175 49.84 232.497 52.0536 242.739C54.2672 252.982 47.9499 266.186 49.6356 279.349C51.3214 292.511 56.4467 299.782 54.9823 308.611C53.5179 317.44 45.566 342.257 45.566 342.257" stroke="#263238" stroke-width="0.200275" stroke-linecap="round" stroke-linejoin="round"/>
<path d="M41.565 211.928L35.5798 207.33" stroke="#263238" stroke-width="0.200275" stroke-linecap="round" stroke-linejoin="round"/>
<path d="M41.2836 206.643L43.7867 202.182" stroke="#263238" stroke-width="0.200275" stroke-linecap="round" stroke-linejoin="round"/>
<path d="M51.7212 242.272C51.7212 242.272 46.7151 238.508 41.5643 234.754" stroke="#263238" stroke-width="0.200275" stroke-linecap="round" stroke-linejoin="round"/>
<path d="M49.2181 234.446C49.2181 234.446 53.3899 226.265 58.1236 220.824" stroke="#263238" stroke-width="0.200275" stroke-linecap="round" stroke-linejoin="round"/>
<path d="M49.2188 276.087C46.3579 270.817 42.7473 265.99 38.4999 261.758" stroke="#263238" stroke-width="0.200275" stroke-linecap="round" stroke-linejoin="round"/>
<path d="M50.1888 281.656C51.7118 278.081 53.5286 274.638 55.6206 271.363C58.5409 267.046 58.958 266.484 58.958 266.484" stroke="#263238" stroke-width="0.200275" stroke-linecap="round" stroke-linejoin="round"/>
<path d="M54.982 308.602C53.7122 305.449 52.2038 302.398 50.4697 299.475C48.7358 296.763 46.7794 294.2 44.6207 291.813" stroke="#263238" stroke-width="0.200275" stroke-linecap="round" stroke-linejoin="round"/>
<path d="M49.4648 329.136C49.7543 326.126 49.2371 323.094 47.9663 320.35C45.8804 316.314 43.5136 311.027 42.5345 308.941" stroke="#263238" stroke-width="0.200275" stroke-linecap="round" stroke-linejoin="round"/>
<path d="M77.5276 255.527C77.5276 255.527 77.9618 253.041 75.0756 248.954C72.1894 244.868 70.3079 242.492 70.3079 242.492C70.3079 242.492 67.5749 247.915 70.2057 251.951C72.1597 254.814 74.3497 257.508 76.7528 260.005L77.5276 255.527Z" fill="#003366"/>
<path d="M69.8136 270.187C69.8136 270.187 70.2478 267.701 67.3702 263.614C64.4925 259.528 62.5939 257.152 62.5939 257.152C62.5939 257.152 59.861 262.576 62.4917 266.611C64.4457 269.474 66.6357 272.168 69.0389 274.665L69.8136 270.187Z" fill="#003366"/>
<path d="M76.5733 259.725C76.5733 259.725 77.2629 257.298 81.6305 254.872C85.998 252.445 88.7395 251.117 88.7395 251.117C88.7395 251.117 88.8502 257.188 84.721 259.682C81.7279 261.413 78.5952 262.892 75.3558 264.101L76.5733 259.725Z" fill="#003366"/>
<path d="M67.2592 277.016C67.2592 277.016 68.2043 274.675 72.8017 272.717C77.3992 270.759 80.2598 269.729 80.2598 269.729C80.2598 269.729 79.7319 275.782 75.3644 277.834C72.1981 279.239 68.9204 280.378 65.565 281.239L67.2592 277.016Z" fill="#003366"/>
<path d="M64.9775 297.22C64.9775 297.22 65.4032 294.734 69.4898 291.856C73.5764 288.978 76.1646 287.369 76.1646 287.369C76.1646 287.369 76.9138 293.397 73.0741 296.317C70.2711 298.353 67.3038 300.153 64.2028 301.698L64.9775 297.22Z" fill="#003366"/>
<path d="M64.0753 302.097C64.0753 302.097 64.85 299.696 62.5854 295.235C60.3207 290.774 58.7797 288.16 58.7797 288.16C58.7797 288.16 55.2975 293.141 57.3323 297.525C58.8582 300.636 60.6439 303.612 62.6705 306.422L64.0753 302.097Z" fill="#003366"/>
<path d="M57.1027 322.158C57.1027 322.158 56.8132 319.654 52.8969 316.547C48.9805 313.439 46.4945 311.686 46.4945 311.686C46.4945 311.686 45.4047 317.645 49.0486 320.795C51.7317 322.992 54.5938 324.959 57.605 326.678L57.1027 322.158Z" fill="#003366"/>
<path d="M58.1328 315.967C58.1328 315.967 58.567 313.481 62.6536 310.603C66.7402 307.726 69.3199 306.125 69.3199 306.125C69.3199 306.125 70.0691 312.144 66.2294 315.064C63.43 317.106 60.4622 318.906 57.358 320.445L58.1328 315.967Z" fill="#003366"/>
<path d="M58.1924 329.485C58.1924 329.485 57.971 326.931 61.1977 323.142C64.4245 319.354 66.5104 317.123 66.5104 317.123C66.5104 317.123 68.7665 322.759 65.7952 326.556C63.6004 329.236 61.1855 331.728 58.5755 334.006L58.1924 329.485Z" fill="#003366"/>
<path d="M77.9527 254.947C77.325 257.506 76.5605 260.03 75.6625 262.507C73.0572 269.378 68.8514 273.371 66.2973 279.535C63.7431 285.699 66.2973 294.681 63.8368 302.752C61.3763 310.823 57.3408 314.85 57.3067 320.512C57.2727 326.174 59.5118 341.933 59.5118 341.933" stroke="#263238" stroke-width="0.200275" stroke-linecap="round" stroke-linejoin="round"/>
<path d="M76.25 261.377L80.5069 259.146" stroke="#263238" stroke-width="0.200275" stroke-linecap="round" stroke-linejoin="round"/>
<path d="M76.9991 258.09L75.9178 255.025" stroke="#263238" stroke-width="0.200275" stroke-linecap="round" stroke-linejoin="round"/>
<path d="M66.5864 279.299C66.5864 279.299 70.1366 277.486 73.772 275.689" stroke="#263238" stroke-width="0.200275" stroke-linecap="round" stroke-linejoin="round"/>
<path d="M68.9624 274.665C67.9211 271.367 66.5461 268.183 64.8588 265.164" stroke="#263238" stroke-width="0.200275" stroke-linecap="round" stroke-linejoin="round"/>
<path d="M64.4837 300.779C66.852 297.784 69.6424 295.149 72.7676 292.955" stroke="#263238" stroke-width="0.200275" stroke-linecap="round" stroke-linejoin="round"/>
<path d="M63.2744 304.166C62.7057 301.757 61.9397 299.399 60.9842 297.116C59.622 294.094 59.4177 293.711 59.4177 293.711" stroke="#263238" stroke-width="0.200275" stroke-linecap="round" stroke-linejoin="round"/>
<path d="M57.5362 324.837C56.157 323.123 54.6269 321.536 52.9643 320.095C51.907 319.325 50.9133 318.471 49.9929 317.541" stroke="#263238" stroke-width="0.200275" stroke-linecap="round" stroke-linejoin="round"/>
<path d="M57.3407 320.538C58.4799 318.701 59.7578 316.953 61.1634 315.31C62.5439 313.798 64.0475 312.403 65.6587 311.139" stroke="#263238" stroke-width="0.200275" stroke-linecap="round" stroke-linejoin="round"/>
<path d="M58.5751 334.017C58.7076 332.088 59.3544 330.23 60.4482 328.636C62.202 326.338 64.2538 323.273 65.0967 322.072" stroke="#263238" stroke-width="0.200275" stroke-linecap="round" stroke-linejoin="round"/>
<path d="M42.2369 379.719L65.4115 379.719C65.6515 379.72 65.8893 379.674 66.1114 379.583C66.3334 379.492 66.5352 379.358 66.7053 379.188C66.8754 379.019 67.0104 378.818 67.1025 378.596C67.1946 378.375 67.242 378.137 67.242 377.897L72.9888 342.182L34.6767 342.182L40.4235 377.897C40.4235 378.379 40.6143 378.841 40.9541 379.182C41.294 379.524 41.7552 379.717 42.2369 379.719Z" fill="#263238" stroke="#263238" stroke-width="0.200275" stroke-linecap="round" stroke-linejoin="round"/>
<path d="M71.4825 347.314L43.8892 347.314" stroke="white" stroke-width="0.200275" stroke-linecap="round" stroke-linejoin="round"/>
<path d="M41.2925 347.314L36.7547 347.314" stroke="white" stroke-width="0.200275" stroke-linecap="round" stroke-linejoin="round"/>
<path d="M367.064 204.47C367.064 204.47 367.26 199.362 369.422 195.82C371.585 192.278 379.451 189.733 383.572 191.495C385.662 192.355 387.698 193.342 389.668 194.449C385.565 195.733 381.662 197.585 378.072 199.949C374.754 202.199 371.006 203.738 367.064 204.47Z" fill="#003366"/>
<path d="M358.815 207.024C358.815 207.024 363.531 202.503 364.314 196.212C365.098 189.92 358.431 180.104 358.431 180.104C356.213 184.298 354.43 188.708 353.11 193.266C351.152 200.341 358.815 207.024 358.815 207.024Z" fill="#003366"/>
<path d="M349.773 205.058C349.773 205.058 350.948 199.166 348.794 195.037C346.64 190.908 340.927 191.299 335.231 193.07C329.536 194.841 327.782 194.841 327.782 194.841C331.712 197.476 335.855 199.777 340.169 201.72C343.292 203.046 346.501 204.161 349.773 205.058Z" fill="#003366"/>
<path d="M358.763 226.24C358.83 226.24 358.896 226.227 358.957 226.201C359.019 226.175 359.075 226.138 359.122 226.09C359.168 226.043 359.205 225.986 359.23 225.924C359.255 225.862 359.267 225.796 359.266 225.729L359.266 197.634C359.267 197.567 359.255 197.501 359.23 197.439C359.205 197.377 359.168 197.321 359.122 197.273C359.075 197.226 359.019 197.188 358.957 197.162C358.896 197.136 358.83 197.123 358.763 197.123C358.696 197.123 358.63 197.136 358.568 197.162C358.506 197.188 358.449 197.225 358.402 197.273C358.355 197.32 358.317 197.376 358.291 197.438C358.266 197.5 358.252 197.567 358.252 197.634L358.252 225.729C358.252 225.797 358.266 225.863 358.291 225.925C358.317 225.987 358.355 226.043 358.402 226.091C358.449 226.138 358.506 226.176 358.568 226.201C358.63 226.227 358.696 226.24 358.763 226.24Z" fill="#263238"/>
<path d="M356.404 226.239L356.472 226.239C356.605 226.22 356.725 226.149 356.806 226.043C356.888 225.936 356.924 225.802 356.907 225.669C356.804 224.962 354.429 208.317 346.366 199.071C346.323 199.021 346.27 198.979 346.211 198.949C346.151 198.919 346.086 198.901 346.02 198.896C345.953 198.891 345.886 198.9 345.823 198.921C345.76 198.942 345.701 198.976 345.651 199.02C345.551 199.109 345.489 199.234 345.479 199.367C345.47 199.501 345.513 199.633 345.6 199.735C353.467 208.743 355.876 225.617 355.876 225.796C355.891 225.923 355.954 226.04 356.052 226.122C356.151 226.205 356.276 226.246 356.404 226.239Z" fill="#263238"/>
<path d="M361.121 225.848C361.188 225.847 361.255 225.833 361.316 225.806C361.378 225.779 361.433 225.741 361.48 225.692C361.527 225.644 361.563 225.587 361.588 225.525C361.613 225.462 361.625 225.396 361.624 225.329C361.624 225.167 361.547 209.152 371.065 201.558C371.17 201.475 371.238 201.353 371.253 201.219C371.268 201.086 371.23 200.952 371.146 200.847C371.063 200.742 370.941 200.675 370.808 200.659C370.674 200.644 370.54 200.683 370.435 200.766C360.525 208.693 360.602 224.665 360.611 225.346C360.613 225.48 360.668 225.607 360.763 225.701C360.859 225.795 360.987 225.848 361.121 225.848Z" fill="#263238"/>
<path d="M353.254 225.618C353.299 225.626 353.345 225.626 353.39 225.618C353.455 225.601 353.516 225.572 353.569 225.531C353.622 225.491 353.666 225.44 353.7 225.382C353.733 225.324 353.754 225.26 353.763 225.194C353.771 225.128 353.766 225.061 353.748 224.996C352.746 221.57 351.193 218.329 349.151 215.401C349.072 215.288 348.951 215.212 348.815 215.188C348.68 215.164 348.54 215.195 348.427 215.274C348.314 215.353 348.237 215.473 348.213 215.609C348.189 215.745 348.22 215.884 348.299 215.997C350.265 218.829 351.765 221.956 352.743 225.26C352.776 225.369 352.844 225.463 352.937 225.528C353.029 225.593 353.141 225.625 353.254 225.618Z" fill="#263238"/>
<path d="M350.165 217.837C350.165 217.837 350.36 212.328 348.002 211.545C345.644 210.762 343.481 212.72 341.71 213.903C339.939 215.087 337.998 216.253 337.998 219.803C337.998 223.354 339.369 229.824 339.369 229.824C339.369 229.824 341.336 223.728 344.682 220.978C348.028 218.228 350.165 217.837 350.165 217.837Z" fill="#003366"/>
<path d="M364.655 225.849C364.763 225.848 364.869 225.814 364.956 225.749C365.043 225.685 365.108 225.595 365.14 225.491C365.14 225.449 366.715 220.69 370.248 217.829C370.353 217.746 370.421 217.626 370.437 217.493C370.453 217.361 370.416 217.227 370.334 217.122C370.251 217.017 370.13 216.949 369.998 216.933C369.865 216.917 369.732 216.955 369.627 217.037C365.813 220.042 364.212 224.938 364.144 225.142C364.104 225.271 364.116 225.41 364.178 225.53C364.241 225.65 364.348 225.74 364.476 225.781L364.655 225.849Z" fill="#263238"/>
<path d="M367.064 219.601C367.064 219.601 366.28 216.067 368.247 213.513C370.214 210.959 374.93 211.546 377.289 214.296C379.647 217.046 382.984 225.305 382.984 225.305C382.984 225.305 378.268 221.567 372.768 221.567C367.268 221.567 367.064 219.601 367.064 219.601Z" fill="#003366"/>
<path d="M351.408 255.969L367.09 255.969L374.932 230.027L343.567 230.027L351.408 255.969Z" fill="#263238" stroke="#263238" stroke-width="0.200275" stroke-linecap="round" stroke-linejoin="round"/>
<path d="M343.481 225.729L375.024 225.729L375.024 230.028L343.481 230.028L343.481 225.729Z" fill="#263238" stroke="#263238" stroke-width="0.200275" stroke-linecap="round" stroke-linejoin="round"/>
<path d="M385.412 255.307L385.412 379.421L380.874 379.421L380.874 330.679L300.963 330.679L300.963 379.421L296.425 379.421L296.425 255.307L385.412 255.307ZM380.874 326.15L380.874 277.979L300.963 277.979L300.963 326.15L380.874 326.15Z" fill="#263238" stroke="#263238" stroke-width="0.200275" stroke-linecap="round" stroke-linejoin="round"/>
<path d="M46.4761 1.13282L135.718 1.13281L135.718 177.088L46.4761 177.088L46.4761 1.13282Z" stroke="#263238" stroke-width="0.200275" stroke-miterlimit="10"/>
<path d="M50.2309 5.17774L131.963 5.17773L131.963 173.053L50.2309 173.053L50.2309 5.17774Z" stroke="#263238" stroke-width="0.200275" stroke-miterlimit="10"/>
<path d="M86.1337 12.89C86.1337 12.89 90.5694 8.89707 95.4563 12.4473C100.343 15.9976 97.3719 22.3574 97.3719 22.3574C97.3772 23.3619 97.2279 24.3612 96.9292 25.3202C96.4865 26.3504 95.4563 27.687 95.3031 28.1297C94.9039 29.4516 95.0101 30.8747 95.6011 32.1227C96.4525 33.7489 105.818 35.5282 107.291 39.9639C108.763 44.3996 110.398 58.1579 110.696 59.3413C110.994 60.5248 115.881 72.2142 116.324 74.2831C116.761 76.0424 117.304 77.7738 117.95 79.468C117.95 79.468 124.31 83.4609 124.608 84.4911C124.906 85.5213 124.012 85.2318 123.126 85.2318C122.241 85.2318 122.539 84.6444 122.275 85.2318C122.011 85.8193 123.756 89.9655 123.756 89.9655C123.756 89.9655 123.458 91.0042 122.573 90.4082C121.955 89.9087 121.492 89.2445 121.236 88.4926L121.875 92.6899C121.889 92.7791 121.885 92.8704 121.863 92.958C121.841 93.0457 121.801 93.1279 121.746 93.1996C121.691 93.2713 121.622 93.3311 121.543 93.3752C121.464 93.4193 121.377 93.4469 121.287 93.4561C121.144 93.4743 120.999 93.446 120.874 93.3755C120.748 93.305 120.648 93.196 120.589 93.0645L119.014 89.5228L119.193 92.8091C119.355 93.8733 118.554 94.5544 117.984 93.5157L117.55 92.2046L116.945 88.9353L116.715 91.7449C116.707 91.8359 116.679 91.924 116.633 92.0032C116.588 92.0825 116.526 92.1511 116.452 92.2043C116.377 92.2576 116.293 92.2943 116.203 92.312C116.113 92.3297 116.021 92.3279 115.932 92.3068C115.799 92.272 115.681 92.1952 115.595 92.0879C115.509 91.9805 115.46 91.8483 115.455 91.7108L115.319 87.3092C114.71 85.8933 114.312 84.3961 114.136 82.865C114.155 82.0733 114.106 81.2815 113.991 80.4981C113.991 80.4981 106.328 68.8087 105.554 65.7012C104.779 62.5936 103.928 58.1579 103.485 57.4172C103.114 56.5974 102.829 55.7415 102.633 54.8631C102.633 54.8631 100.854 59.12 101.297 62.5255C101.74 65.931 103.374 70.9542 103.851 74.2064C104.328 77.4587 105.034 86.9346 105.034 92.4089C105.034 97.8833 102.812 109.862 102.668 110.901C102.523 111.94 105.622 122.88 104.736 127.929C103.851 132.977 103.255 147.314 103.408 148.498C103.843 150.175 104.541 151.773 105.477 153.232C106.218 154.415 106.328 156.186 105.775 156.782C105.222 157.378 102.957 157.522 101.927 157.225C100.897 156.927 98.3766 153.521 98.3766 151.452C98.3766 149.383 98.5213 147.757 98.2233 143.313C97.9253 138.869 95.1158 127.043 95.1158 122.88C95.1158 118.717 93.9324 113.268 93.2002 109.718C92.468 106.167 92.9022 102.464 92.1615 100.352C91.4208 98.2409 90.5354 84.9679 90.5354 84.9679L89.684 84.9679C89.684 84.9679 86.8744 102.276 86.4317 104.941C85.989 107.606 84.9503 113.072 84.8056 114.111C84.6608 115.149 83.7669 128.167 83.4774 130.976C83.1879 133.786 81.5533 137.932 80.9233 140.887C80.2933 143.841 80.1826 149.468 79.8931 151.248C79.4071 153.131 78.5376 154.893 77.339 156.424C76.5983 157.276 74.2314 156.722 73.2013 155.828C72.1711 154.934 73.346 153.461 74.0527 151.571C74.7593 149.681 75.6788 149.494 75.6788 145.612C75.6788 141.729 75.0913 128.158 75.0913 122.539C75.0913 116.92 76.8622 108.483 76.8622 106.261C76.8622 104.039 74.6401 92.5026 74.7933 86.5855C75.0266 81.1293 75.6182 75.6943 76.5642 70.3156C77.0069 68.0935 78.6416 64.688 79.229 62.4744C79.8165 60.2608 79.0843 54.6332 79.0843 54.6332L75.8235 63.0619C75.8235 63.0619 74.0526 66.4674 72.2733 70.6051C70.9521 73.4897 69.316 76.2193 67.3948 78.7443C67.3948 78.7443 66.9521 82.8905 66.7989 84.2187C66.74 85.0831 66.5916 85.939 66.3562 86.7728C66.2114 87.224 65.9134 91.217 65.7687 91.6597C65.624 92.1025 65.1727 91.8045 65.1727 91.217C65.2328 90.3551 65.1347 89.4895 64.8833 88.6629C64.5853 88.2202 64.2873 90.289 64.1426 91.3277C63.9978 92.3664 63.5466 93.1071 63.1039 92.0684C62.7901 90.8103 62.6413 89.5167 62.6612 88.2202C62.6612 88.2202 62.0652 87.9222 61.9205 89.2588C61.7757 90.5955 59.9964 93.3966 59.5536 92.5111C59.1109 91.6257 60.2943 87.0367 60.2943 87.0367C60.2943 87.0367 59.1109 89.9995 58.515 90.4423C57.919 90.885 57.4848 90.4423 57.7742 88.9609C58.0637 87.4795 59.4089 83.7845 59.4089 83.7845C59.4089 83.7845 57.0421 84.8231 57.0421 83.6312C57.0421 82.4393 58.9577 81.7156 59.9963 80.379C61.1674 79.1235 62.456 77.9831 63.8446 76.9734C63.8446 76.9734 67.2501 65.4287 67.9823 63.5046C68.7145 61.5805 71.2431 58.1835 71.3878 57.1448C71.5326 56.1061 73.1672 48.5629 73.1672 48.5629C73.1672 48.5629 73.6099 38.7975 75.0913 37.0267C76.5727 35.2558 81.5959 34.9493 83.0773 33.7659C84.5587 32.5825 85.989 31.2373 85.989 30.1986L85.989 27.0911C85.2452 26.254 84.7369 25.2345 84.5161 24.1368C84.3628 22.6554 84.3628 21.472 84.3628 21.472C83.965 20.0028 83.9181 18.4607 84.2257 16.97C84.5333 15.4793 85.1869 14.0818 86.1337 12.89Z" fill="#808080"/>
<path d="M88.2538 21.1592C88.2538 21.1592 85.6996 18.7242 85.6996 17.2002C85.6997 16.067 86.051 14.9616 86.705 14.0362C87.3591 13.1107 88.2838 12.4107 89.3521 12.0324C92.2383 10.9681 95.7374 12.9433 96.6484 15.5315C97.5594 18.1197 94.8264 20.4014 94.2134 21.1592C93.5628 21.7439 92.7797 22.1617 91.9318 22.3766L91.174 74.115L90.246 74.115L90.0928 22.6831L88.2538 21.1592Z" stroke="#C7C7C7" stroke-width="0.200275" stroke-miterlimit="10"/>
<path d="M90.689 80.8066C91.3036 81.7926 92.0199 82.7114 92.826 83.5481C93.5837 84.1611 93.8902 83.8546 94.0435 84.3058" stroke="#C7C7C7" stroke-width="0.200275" stroke-miterlimit="10"/>
<path d="M90.9949 83.4375C90.9949 83.4375 93.8896 90.7423 93.7363 93.7903C93.5831 96.8382 93.5831 97.4342 93.5831 99.5712C93.5831 101.708 93.4298 103.377 93.4298 105.046" stroke="#C7C7C7" stroke-width="0.200275" stroke-miterlimit="10"/>
<path d="M92.9707 89.9414C92.9707 89.9414 91.7618 91.6442 92.6727 95.569" stroke="#C7C7C7" stroke-width="0.200275" stroke-miterlimit="10"/>
<path d="M91.9061 35.6152C91.9061 35.6152 98.7597 38.5099 99.6707 40.7916C100.582 43.0733 97.5422 42.6136 96.776 42.6136" stroke="#C7C7C7" stroke-width="0.200275" stroke-miterlimit="10"/>
<path d="M91.9056 37.293C91.9056 37.293 101.339 43.2526 100.888 44.4446C100.436 45.6365 96.4775 45.8153 96.4775 45.8153" stroke="#C7C7C7" stroke-width="0.200275" stroke-miterlimit="10"/>
<path d="M91.6078 40.4844C91.6078 40.4844 100.275 46.444 100.122 47.9425C99.9683 49.4409 96.0094 48.249 96.0094 48.249" stroke="#C7C7C7" stroke-width="0.200275" stroke-miterlimit="10"/>
<path d="M91.7615 43.5332C91.7615 43.5332 100.275 51.136 100.131 51.5958C99.9858 52.0555 97.6956 51.749 97.6956 51.749" stroke="#C7C7C7" stroke-width="0.200275" stroke-miterlimit="10"/>
<path d="M91.7615 46.8789C91.7615 46.8789 99.9774 52.5065 99.6709 53.8773C99.3644 55.248 96.7762 54.4817 96.7762 54.4817" stroke="#C7C7C7" stroke-width="0.200275" stroke-miterlimit="10"/>
<path d="M91.9065 49.3145C91.9065 49.3145 98.3003 55.4018 98.9133 57.0705C99.5263 58.7392 98.6069 58.901 98.6069 58.901L98.1471 59.5055" stroke="#C7C7C7" stroke-width="0.200275" stroke-miterlimit="10"/>
<path d="M91.7611 52.5059C91.7611 52.5059 98.4529 58.8997 98.2997 60.4152C98.3073 60.8147 98.1742 61.2043 97.9236 61.5156C97.6731 61.8269 97.3209 62.0401 96.929 62.1179" stroke="#C7C7C7" stroke-width="0.200275" stroke-miterlimit="10"/>
<path d="M91.7615 54.6348C91.7615 54.6348 97.8404 62.5526 97.8404 64.0681C97.8404 65.5835 97.2359 66.0518 97.2359 66.0518" stroke="#C7C7C7" stroke-width="0.200275" stroke-miterlimit="10"/>
<path d="M91.7619 56.6191C91.7619 56.6191 95.8655 63.6175 96.172 64.835C96.358 65.5819 96.4608 66.3471 96.4785 67.1167" stroke="#C7C7C7" stroke-width="0.200275" stroke-miterlimit="10"/>
<path d="M91.761 60.1172L94.9536 66.5025" stroke="#C7C7C7" stroke-width="0.200275" stroke-miterlimit="10"/>
<path d="M91.6079 63.1582C91.6079 63.1582 94.6473 68.1813 95.2603 68.7858" stroke="#C7C7C7" stroke-width="0.200275" stroke-miterlimit="10"/>
<path d="M91.6079 66.2051C91.6079 66.2051 94.162 69.7043 95.405 70.462C96.648 71.2197 98.9127 71.373 99.2107 70.7685C99.5087 70.164 99.5172 68.3335 99.6704 67.7205" stroke="#C7C7C7" stroke-width="0.200275" stroke-miterlimit="10"/>
<path d="M99.2107 70.7695C99.2107 70.7695 99.6704 71.5273 100.428 73.0512C101.186 74.5752 101.799 74.8732 101.799 74.8732" stroke="#C7C7C7" stroke-width="0.200275" stroke-miterlimit="10"/>
<path d="M100.429 73.0515L101.646 72.5918" stroke="#C7C7C7" stroke-width="0.200275" stroke-miterlimit="10"/>
<path d="M99.8239 69.2451L101.339 68.6406" stroke="#C7C7C7" stroke-width="0.200275" stroke-miterlimit="10"/>
<path d="M91.6086 68.1797C91.6086 68.1797 96.3253 72.1386 96.9298 74.2671C97.5342 76.3955 101.042 81.0781 101.493 83.2406C101.944 85.4031 101.646 86.5865 101.953 89.6345C102.259 92.6824 103.017 94.5044 103.017 96.3263" stroke="#C7C7C7" stroke-width="0.200275" stroke-miterlimit="10"/>
<path d="M101.646 82.7891C102.277 83.7148 102.74 84.7433 103.017 85.8285" stroke="#C7C7C7" stroke-width="0.200275" stroke-miterlimit="10"/>
<path d="M101.8 87.3535C102.481 88.3817 102.995 89.5109 103.324 90.6994" stroke="#C7C7C7" stroke-width="0.200275" stroke-miterlimit="10"/>
<path d="M91.455 70.002C91.455 70.002 94.8009 73.3564 94.9541 74.1141C95.1074 74.8718 91.6082 71.9857 91.6082 71.9857C91.6082 71.9857 93.8899 75.7913 95.2607 78.6775C96.6314 81.5637 99.3643 84.6372 99.3643 87.8043C99.3643 90.9714 98.3001 93.8917 97.8403 96.4799C97.3806 99.0681 96.4781 102.874 96.6228 107.131C96.7676 111.388 96.9294 113.371 96.9294 115.806C96.9294 118.241 97.0826 122.2 97.3891 122.958C97.7035 124.006 97.9565 125.072 98.1468 126.15" stroke="#C7C7C7" stroke-width="0.200275" stroke-miterlimit="10"/>
<path d="M90.8422 74.7188C90.8422 74.7188 96.0186 85.9825 96.8018 89.4817C97.5851 92.9809 98.3258 100.899 98.6323 102.567C98.9388 104.236 98.7855 110.485 98.9388 113.065C99.092 115.645 99.5433 129.199 99.5433 130.569C99.5433 131.94 100.463 147.29 100.463 148.678C100.524 150.243 100.997 151.764 101.833 153.088C102.411 153.962 102.92 154.878 103.357 155.83" stroke="#C7C7C7" stroke-width="0.200275" stroke-miterlimit="10"/>
<path d="M98.9134 104.721C100.324 106.702 101.021 109.103 100.889 111.532C100.582 114.571 102.259 121.57 102.259 123.851C102.259 126.133 102.106 130.398 101.953 131.309C101.8 132.22 101.8 135.115 101.646 137.703C101.493 140.291 101.34 143.178 101.34 145.161C101.295 146.652 101.666 148.126 102.413 149.418C103.17 151.121 104.388 153.828 104.388 153.828" stroke="#C7C7C7" stroke-width="0.200275" stroke-miterlimit="10"/>
<path d="M98.7602 147.912L100.131 143.502" stroke="#C7C7C7" stroke-width="0.200275" stroke-miterlimit="10"/>
<path d="M96.3252 110.631C95.8554 111.801 95.5461 113.03 95.4057 114.283" stroke="#C7C7C7" stroke-width="0.200275" stroke-miterlimit="10"/>
<path d="M90.8427 77.9214C90.8427 77.9214 90.5447 80.3564 92.2134 81.2674C93.8821 82.1783 95.2614 81.5739 97.6963 79.1389C100.131 76.704 99.5183 73.8093 96.3256 72.5918" stroke="#C7C7C7" stroke-width="0.200275" stroke-miterlimit="10"/>
<path d="M94.0427 96.209C94.5249 97.4811 94.8314 98.813 94.9536 100.168" stroke="#C7C7C7" stroke-width="0.200275" stroke-miterlimit="10"/>
<path d="M91.7612 27.5527C91.7612 27.5527 92.9702 28.617 92.9702 29.3747C92.9702 30.1324 94.9539 32.5759 97.0824 34.5511C99.2108 36.5263 102.259 35.3088 104.847 39.421C106.987 42.7771 108.047 46.7079 107.886 50.6847C107.886 54.3286 107.886 53.1112 108.499 56.1591C109.112 59.207 114.578 74.4212 115.651 77.0094C116.724 79.5976 117.354 80.5086 118.205 81.1131C119.056 81.7175 121.56 83.6672 122.011 83.8545" stroke="#C7C7C7" stroke-width="0.200275" stroke-miterlimit="10"/>
<path d="M92.0598 31.3574C92.0598 31.3574 94.9545 33.9116 96.9297 35.3078C98.9049 36.7041 104.235 38.3558 105.443 41.7017C106.652 45.0476 106.814 49.7643 106.967 52.3525C107.121 54.9406 109.522 62.0922 110.007 63.6162C110.492 65.1402 118.223 81.1121 118.223 81.1121" stroke="#C7C7C7" stroke-width="0.200275" stroke-miterlimit="10"/>
<path d="M92.0597 32.5762C92.0597 32.5762 95.5589 35.0111 98.7601 37.4631C101.961 39.9151 103.17 44.7594 103.775 48.7183C104.379 52.6773 106.329 60.4333 106.976 63.1918C107.623 65.9503 114.281 78.406 114.732 79.7767C115.233 81.0652 115.64 82.3883 115.949 83.7356C116.256 85.2596 116.409 89.5165 116.409 89.5165" stroke="#C7C7C7" stroke-width="0.200275" stroke-miterlimit="10"/>
<path d="M98.7597 37.4609C98.7597 37.4609 102.557 39.8959 103.774 42.7821C104.992 45.6682 106.516 55.11 107.129 58.7625C107.742 62.4149 115.643 79.1956 116.409 80.5237C117.175 81.8519 119.601 86.7558 120.368 88.7396" stroke="#C7C7C7" stroke-width="0.200275" stroke-miterlimit="10"/>
<path d="M117.933 83.4375C119.137 84.7331 120.255 86.1068 121.279 87.5497" stroke="#C7C7C7" stroke-width="0.200275" stroke-miterlimit="10"/>
<path d="M117.32 83.0879L118.23 91.0057" stroke="#C7C7C7" stroke-width="0.200275" stroke-miterlimit="10"/>
<path d="M97.3721 22.3574C96.5702 23.1853 95.5884 23.8174 94.503 24.2049C93.6624 24.3734 92.7893 24.2086 92.068 23.7452" stroke="#C7C7C7" stroke-width="0.200275" stroke-miterlimit="10"/>
<path d="M96.1719 25.2692L93.737 25.4225L92.213 24.6563" stroke="#C7C7C7" stroke-width="0.200275" stroke-miterlimit="10"/>
<path d="M92.3658 25.875C92.3658 25.875 92.2125 26.786 94.6475 26.9392" stroke="#C7C7C7" stroke-width="0.200275" stroke-miterlimit="10"/>
<path d="M90.2456 35.6152C90.2456 35.6152 83.4346 38.5099 82.4811 40.7916C81.5275 43.0733 84.618 42.6136 85.3757 42.6136" stroke="#C7C7C7" stroke-width="0.200275" stroke-miterlimit="10"/>
<path d="M90.2456 37.293C90.2456 37.293 80.8124 43.2526 81.2636 44.4446C81.7148 45.6365 85.6823 45.8153 85.6823 45.8153" stroke="#C7C7C7" stroke-width="0.200275" stroke-miterlimit="10"/>
<path d="M90.5357 40.4844C90.5357 40.4844 81.8601 46.444 82.0219 47.9425C82.1836 49.4409 86.1255 48.249 86.1255 48.249" stroke="#C7C7C7" stroke-width="0.200275" stroke-miterlimit="10"/>
<path d="M90.3824 43.5332C90.3824 43.5332 81.8685 51.136 82.0133 51.5958C82.158 52.0555 84.4482 51.749 84.4482 51.749" stroke="#C7C7C7" stroke-width="0.200275" stroke-miterlimit="10"/>
<path d="M90.3824 46.8789C90.3824 46.8789 82.1665 52.5065 82.4645 53.8773C82.7625 55.248 85.3592 54.4817 85.3592 54.4817" stroke="#C7C7C7" stroke-width="0.200275" stroke-miterlimit="10"/>
<path d="M90.2456 49.3145C90.2456 49.3145 83.8518 55.4018 83.2473 57.0705C82.6428 58.7392 83.5538 58.901 83.5538 58.901L84.005 59.5055" stroke="#C7C7C7" stroke-width="0.200275" stroke-miterlimit="10"/>
<path d="M90.3824 52.5059C90.3824 52.5059 83.682 58.8997 83.8352 60.4152C83.8276 60.8147 83.9607 61.2043 84.2113 61.5156C84.4619 61.8269 84.814 62.0401 85.2059 62.1179" stroke="#C7C7C7" stroke-width="0.200275" stroke-miterlimit="10"/>
<path d="M90.3824 54.6348C90.3824 54.6348 84.295 62.5526 84.295 64.0681C84.295 65.5835 84.8995 66.0518 84.8995 66.0518" stroke="#C7C7C7" stroke-width="0.200275" stroke-miterlimit="10"/>
<path d="M90.3824 56.6191C90.3824 56.6191 86.2702 63.6175 85.9722 64.835C85.7863 65.5819 85.6835 66.3471 85.6657 67.1167" stroke="#C7C7C7" stroke-width="0.200275" stroke-miterlimit="10"/>
<path d="M90.3824 60.1172L87.1812 66.5025" stroke="#C7C7C7" stroke-width="0.200275" stroke-miterlimit="10"/>
<path d="M90.5357 63.1582C90.5357 63.1582 87.4877 68.1813 86.8832 68.7858" stroke="#C7C7C7" stroke-width="0.200275" stroke-miterlimit="10"/>
<path d="M90.5357 66.2051C90.5357 66.2051 87.9815 69.7043 86.73 70.462C85.4785 71.2197 83.2308 71.373 82.9243 70.7685C82.6178 70.164 82.6178 68.3335 82.4646 67.7205" stroke="#C7C7C7" stroke-width="0.200275" stroke-miterlimit="10"/>
<path d="M82.9248 70.7695C82.9248 70.7695 82.4651 71.5273 81.7074 73.0512C80.9496 74.5752 80.3366 74.8732 80.3366 74.8732" stroke="#C7C7C7" stroke-width="0.200275" stroke-miterlimit="10"/>
<path d="M81.7061 73.0515L80.4886 72.5918" stroke="#C7C7C7" stroke-width="0.200275" stroke-miterlimit="10"/>
<path d="M82.3199 69.2451L80.7959 68.6406" stroke="#C7C7C7" stroke-width="0.200275" stroke-miterlimit="10"/>
<path d="M90.5357 68.1797C90.5357 68.1797 85.819 72.1386 85.206 74.2671C84.593 76.3955 81.1024 81.0781 80.6426 83.2406C80.1829 85.4031 80.4894 86.5865 80.1829 89.6345C79.8764 92.6824 79.1187 94.5044 79.1187 96.3263" stroke="#C7C7C7" stroke-width="0.200275" stroke-miterlimit="10"/>
<path d="M80.4898 82.7891C79.8596 83.7148 79.3957 84.7433 79.119 85.8285" stroke="#C7C7C7" stroke-width="0.200275" stroke-miterlimit="10"/>
<path d="M80.3355 87.3535C79.6546 88.3817 79.1402 89.5109 78.8115 90.6994" stroke="#C7C7C7" stroke-width="0.200275" stroke-miterlimit="10"/>
<path d="M90.689 70.002C90.689 70.002 87.3346 73.3564 87.1813 74.1141C87.0281 74.8718 90.5358 71.9857 90.5358 71.9857C90.5358 71.9857 88.254 75.7913 86.8833 78.6775C85.5126 81.5637 82.7712 84.6372 82.7712 87.8043C82.7712 90.9714 83.8354 93.8917 84.2952 96.4799C84.7549 99.0681 83.1798 102.44 83.0266 106.696C82.8733 110.953 82.7201 112.937 82.7201 115.363C82.7201 117.79 82.5668 121.757 82.2603 122.515C81.9508 123.568 81.6978 124.636 81.5026 125.716" stroke="#C7C7C7" stroke-width="0.200275" stroke-miterlimit="10"/>
<path d="M91.2935 74.7188C91.2935 74.7188 86.1171 85.9825 85.3338 89.4817C84.5506 92.9809 81.3494 100.464 81.0429 102.167C80.7364 103.87 80.8896 110.077 80.7449 112.665C80.6001 115.253 80.1319 128.79 80.1319 130.161C80.1319 131.531 79.1783 146.856 79.1783 148.227C79.1184 149.792 78.6455 151.314 77.8076 152.637C77.2302 153.51 76.7207 154.427 76.2837 155.379" stroke="#C7C7C7" stroke-width="0.200275" stroke-miterlimit="10"/>
<path d="M80.7447 104.254C79.3245 106.231 78.6245 108.635 78.761 111.065C79.0675 114.104 77.3902 121.111 77.3902 123.393C77.3902 125.675 77.5435 129.932 77.6967 130.851C77.85 131.771 77.85 134.648 78.0032 137.236C78.1565 139.825 78.3267 142.753 78.3267 144.737C78.3729 146.228 78.0014 147.703 77.254 148.994C76.4963 150.697 75.2788 153.413 75.2788 153.413" stroke="#C7C7C7" stroke-width="0.200275" stroke-miterlimit="10"/>
<path d="M80.8892 147.469L79.527 143.051" stroke="#C7C7C7" stroke-width="0.200275" stroke-miterlimit="10"/>
<path d="M83.3242 110.186C83.7954 111.356 84.1048 112.584 84.2437 113.838" stroke="#C7C7C7" stroke-width="0.200275" stroke-miterlimit="10"/>
<path d="M91.2935 77.9214C91.2935 77.9214 91.6 80.3564 89.9228 81.2674C88.2456 82.1783 86.8833 81.5739 84.4484 79.1389C82.0135 76.704 82.6179 73.8093 85.8191 72.5918" stroke="#C7C7C7" stroke-width="0.200275" stroke-miterlimit="10"/>
<path d="M84.2863 96.4805C84.7163 97.988 85.0014 99.5332 85.1377 101.095" stroke="#C7C7C7" stroke-width="0.200275" stroke-miterlimit="10"/>
<path d="M90.3824 27.5527C90.3824 27.5527 89.1649 28.617 89.1649 29.3747C89.1649 30.1324 87.1812 32.5759 85.0527 34.5511C82.9243 36.5263 79.8848 35.3088 77.2966 39.421C75.151 42.7748 74.0871 46.7066 74.2487 50.6847C74.2487 54.3286 74.2487 53.1112 73.6442 56.1591C73.0397 59.207 67.5569 74.4212 66.4926 77.0094C65.4284 79.5976 64.7899 80.5086 63.9385 81.1131C63.0871 81.7175 60.5926 83.6672 60.1328 83.8545" stroke="#C7C7C7" stroke-width="0.200275" stroke-miterlimit="10"/>
<path d="M90.0762 31.3574C90.0762 31.3574 87.1815 33.9116 85.2063 35.3078C83.2311 36.7041 77.9015 38.3558 76.6925 41.7017C75.4835 45.0476 75.3218 49.7643 75.1771 52.3525C75.0323 54.9406 72.6229 62.0922 72.1291 63.6162C71.6353 65.1402 63.9133 81.1121 63.9133 81.1121" stroke="#C7C7C7" stroke-width="0.200275" stroke-miterlimit="10"/>
<path d="M90.0762 32.5762C90.0762 32.5762 86.577 35.0111 83.3844 37.4461C80.1917 39.881 78.9657 44.7424 78.3612 48.7013C77.7568 52.6602 75.8071 60.4163 75.1686 63.1748C74.53 65.9332 67.8637 78.3889 67.404 79.7597C66.9071 81.0496 66.5003 82.3724 66.1865 83.7186C65.88 85.2425 65.7268 89.4994 65.7268 89.4994" stroke="#C7C7C7" stroke-width="0.200275" stroke-miterlimit="10"/>
<path d="M83.3843 37.4609C83.3843 37.4609 79.5786 39.8959 78.3612 42.7821C77.1437 45.6682 75.6197 55.11 75.0152 58.7625C74.4107 62.4149 66.5015 79.1956 65.7267 80.5237C64.9519 81.8519 62.534 86.7558 61.7763 88.7396" stroke="#C7C7C7" stroke-width="0.200275" stroke-miterlimit="10"/>
<path d="M64.2115 83.4375C63.003 84.732 61.8824 86.1058 60.857 87.5497" stroke="#C7C7C7" stroke-width="0.200275" stroke-miterlimit="10"/>
<path d="M64.815 83.0879L63.904 91.0057" stroke="#C7C7C7" stroke-width="0.200275" stroke-miterlimit="10"/>
<path d="M84.7636 22.3574C85.568 23.1864 86.5527 23.8186 87.6413 24.2049C88.4818 24.3734 89.355 24.2086 90.0762 23.7452" stroke="#C7C7C7" stroke-width="0.200275" stroke-miterlimit="10"/>
<path d="M85.9725 25.2692L88.3989 25.4225L89.9229 24.6562" stroke="#C7C7C7" stroke-width="0.200275" stroke-miterlimit="10"/>
<path d="M89.7696 25.875C89.7696 25.875 89.9229 26.786 87.4879 26.9392" stroke="#C7C7C7" stroke-width="0.200275" stroke-miterlimit="10"/>
<path d="M125.586 23.6016L118.912 23.6016L105.962 35.7678" stroke="#263238" stroke-width="0.200275" stroke-miterlimit="10"/>
<path d="M59.6648 31.8438L63.1895 31.8438L72.6143 44.4016" stroke="#263238" stroke-width="0.200275" stroke-miterlimit="10"/>
<path d="M58.8728 108.757L62.7977 108.757L74.5723 99.7324" stroke="#263238" stroke-width="0.200275" stroke-miterlimit="10"/>
<path d="M120.479 138.973L114.988 138.973L106.355 133.473" stroke="#263238" stroke-width="0.200275" stroke-miterlimit="10"/>
<path d="M125.586 104.049L119.303 104.049L106.745 93.4492" stroke="#263238" stroke-width="0.200275" stroke-miterlimit="10"/>
<path d="M57.3066 60.0996L60.8399 60.0996L64.3731 66.7659" stroke="#263238" stroke-width="0.200275" stroke-miterlimit="10"/>
<path d="M66.7229 13.793L73.0061 13.793L82.814 22.426" stroke="#263238" stroke-width="0.200275" stroke-miterlimit="10"/>
<path d="M110.279 13.4023L104.005 13.4023L100.863 16.5439" stroke="#263238" stroke-width="0.200275" stroke-miterlimit="10"/>
<path d="M98.1128 161.338L82.8135 161.338" stroke="#263238" stroke-width="0.200275" stroke-miterlimit="10"/>
<path d="M112.638 164.471L69.8644 164.471" stroke="#263238" stroke-width="0.200275" stroke-miterlimit="10"/>
<path d="M166.572 113.959C166.572 113.959 166.198 136.402 167.322 137.151C168.445 137.9 173.171 143.758 179.241 139.799C185.311 135.84 181.88 125.274 181.693 119.8C181.506 114.325 174.524 112.444 173.017 112.069C171.51 111.695 166.572 113.959 166.572 113.959Z" fill="#B2B2B2" stroke="#263238" stroke-width="0.200275" stroke-miterlimit="10"/>
<path d="M166.573 113.959C166.573 113.959 171.477 111.695 172.984 112.069C174.49 112.444 181.497 114.334 181.659 119.8C181.804 123.988 183.822 131.14 182.059 136.053L178.202 135.261L175.384 118.753L166.496 118.344C166.539 115.79 166.573 113.959 166.573 113.959Z" fill="#263238" stroke="#263238" stroke-width="0.200275" stroke-miterlimit="10"/>
<path d="M258.02 361.984C258.02 361.984 275.49 373.538 276.026 375.462C276.327 376.879 276.327 378.344 276.026 379.761L240.83 379.761L240.83 369.238C240.83 369.238 252.648 362.257 258.02 361.984Z" fill="white" stroke="#263238" stroke-width="0.200275" stroke-miterlimit="10"/>
<path d="M189.475 361.984C189.475 361.984 171.98 373.538 171.477 375.462C171.177 376.879 171.177 378.344 171.477 379.761L206.673 379.761L206.673 369.238C206.673 369.238 194.856 362.257 189.475 361.984Z" fill="white" stroke="#263238" stroke-width="0.200275" stroke-miterlimit="10"/>
<path d="M255.602 171.412L258.556 257.121L257.22 349.921C257.22 349.921 259.901 354.178 259.901 355.566C259.901 356.953 259.365 362.547 259.365 362.547C259.365 362.547 256.411 363.356 252.648 364.701C248.885 366.046 241.094 370.609 241.094 370.609C241.094 370.609 238.677 364.165 237.868 361.244C237.059 358.324 238.719 351.573 238.719 349.691C238.719 347.81 232.002 309.182 232.002 309.182L220.185 209.631L213.195 311.873L208.895 352.109C208.895 352.109 211.049 358.29 210.777 359.908C210.504 361.525 206.971 369.503 206.971 369.503L185.21 365.246L185.21 358.528L187.091 351.811L188.156 342.105L188.156 269.21L187.619 205.808L188.156 177.091L255.602 171.412Z" fill="#003366" stroke="#263238" stroke-width="0.200275" stroke-miterlimit="10"/>
<path d="M255.601 171.412L256.163 187.588C252.545 188.857 220.942 199.354 187.908 190.807L188.155 177.091L255.601 171.412Z" fill="#263238" stroke="#263238" stroke-width="0.200275" stroke-miterlimit="10"/>
<path d="M191.987 342.94L193.111 263.08" stroke="#263238" stroke-width="0.200275" stroke-miterlimit="10"/>
<path d="M191.425 347.443L190.863 353.062" stroke="#263238" stroke-width="0.200275" stroke-miterlimit="10"/>
<path d="M246.458 309.77C248.16 324.413 250.476 345.425 250.476 346.881C250.476 349.129 245.419 357.004 245.419 357.004L249.914 358.128L248.79 361.533" stroke="#263238" stroke-width="0.200275" stroke-miterlimit="10"/>
<path d="M244.849 295.705C244.849 295.705 245.104 297.868 245.496 301.316" stroke="#263238" stroke-width="0.200275" stroke-miterlimit="10"/>
<path d="M276.222 376.49C276.307 377.57 276.242 378.656 276.026 379.717L240.83 379.717L240.83 376.49L276.222 376.49Z" fill="white" stroke="black" stroke-width="0.200275" stroke-miterlimit="10"/>
<path d="M206.673 379.717L171.477 379.717C171.279 378.734 171.207 377.73 171.264 376.729L206.673 376.729L206.673 379.717Z" fill="white" stroke="black" stroke-width="0.200275" stroke-miterlimit="10"/>
<path d="M215.552 62.3398C215.552 62.3398 247.521 67.4992 250.518 68.0015C252.382 68.2488 254.186 68.8254 255.848 69.7043C256.342 70.0363 259.509 126.474 259.339 127.3C259.168 128.126 257.874 185.117 257.874 185.117C257.874 185.117 232.903 191.273 216.753 191.077C206.78 190.955 196.825 190.179 186.954 188.753L181.761 137.602L177.938 116.641L156.458 115.645C156.458 115.645 165.619 86.17 166.112 84.0075C166.606 81.845 183.898 73.9952 188.751 71.6625C193.604 69.3297 205.897 64.5024 205.897 64.5024L215.552 62.3398Z" fill="#003366" stroke="#263238" stroke-width="0.200275" stroke-miterlimit="10"/>
<path d="M217.043 75.3154L202.169 98.4644L189.416 74.166" stroke="#263238" stroke-width="0.200275" stroke-miterlimit="10"/>
<path d="M222.381 67.0059L220.082 70.5817" stroke="#263238" stroke-width="0.200275" stroke-miterlimit="10"/>
<path d="M177.93 116.616L169.442 90.1465L175.104 116.616L177.93 116.616Z" fill="#263238" stroke="#263238" stroke-width="0.200275" stroke-miterlimit="10"/>
<path d="M169.101 38.8679C168.701 38.6908 168.353 38.4137 168.09 38.0634C167.828 37.713 167.66 37.3011 167.603 36.8672C167.231 34.6269 167.32 32.3344 167.865 30.1298C168.409 27.9252 169.398 25.8548 170.77 24.0454C175.095 18.2219 184.392 13.2243 193.408 16.2212C202.424 19.2181 206.4 28.0469 206.885 32.5421C207.371 37.0374 208.588 45.1937 208.588 45.1937L218.081 63.6771L201.905 88.3161L190.914 68.6662C190.914 68.6662 195.911 61.3443 197.725 54.8483C199.538 48.3523 194.225 44.3593 188.402 40.5281C182.579 36.6969 177.743 36.2031 175.75 37.0374C173.575 37.7864 171.354 38.3978 169.101 38.8679Z" fill="#B2B2B2" stroke="#263238" stroke-width="0.200275" stroke-miterlimit="10"/>
<path d="M203.692 56.2617L195.511 76.3202L190.394 67.7213L203.692 56.2617Z" fill="#263238" stroke="#263238" stroke-width="0.200275" stroke-miterlimit="10"/>
<path d="M188.419 40.5281C182.587 36.7054 177.76 36.2031 175.767 37.0374C173.586 37.7871 171.36 38.3985 169.101 38.8679C168.701 38.6908 168.353 38.4137 168.09 38.0634C167.828 37.713 167.66 37.3011 167.603 36.8672C167.231 34.6269 167.32 32.3344 167.865 30.1298C168.409 27.9252 169.398 25.8548 170.77 24.0454C175.095 18.2219 184.392 13.2243 193.408 16.2212C202.424 19.218 206.4 28.0469 206.885 32.5421C207.209 35.4113 207.796 39.7704 208.188 42.5544L196.132 46.9475C194.319 44.5466 191.441 42.5203 188.419 40.5281Z" fill="#263238" stroke="#263238" stroke-width="0.200275" stroke-miterlimit="10"/>
<path d="M200.926 41.5331C200.926 41.5331 198.1 42.0269 196.601 40.5285C195.103 39.0301 197.453 37.1996 194.107 36.2035C190.761 35.2074 187.611 36.7058 186.947 34.5007C186.283 32.2957 185.244 28.8476 183.618 27.8429C181.992 26.8383 173.963 32.0062 170.966 34.1687C167.969 36.3312 168.966 38.3319 170.294 43.1593C171.622 47.9866 172.958 49.485 174.457 49.8171C175.955 50.1491 176.79 50.9835 176.79 53.1545C176.79 55.3255 176.287 58.3138 177.454 59.4802C178.62 60.6466 182.281 60.4763 182.281 60.4763C183.691 63.1159 185.249 65.6741 186.947 68.1388C188.445 69.9692 191.604 69.9692 194.107 68.3005C196.61 66.6318 204.068 58.0158 204.902 54.4911C205.737 50.9664 204.57 47.6801 203.898 45.6708C203.225 43.6616 200.926 41.5331 200.926 41.5331Z" fill="#B2B2B2" stroke="#263238" stroke-width="0.200275" stroke-miterlimit="10"/>
<path d="M199.905 42.8615C199.905 42.8615 200.075 37.8724 203.072 37.1998C206.069 36.5273 209.227 42.3677 207.899 46.0286C206.571 49.6896 202.74 48.3529 202.74 48.3529" fill="#B2B2B2"/>
<path d="M199.905 42.8615C199.905 42.8615 200.075 37.8724 203.072 37.1998C206.069 36.5273 209.227 42.3677 207.899 46.0286C206.571 49.6896 202.74 48.3529 202.74 48.3529" stroke="#263238" stroke-width="0.200275" stroke-miterlimit="10"/>
<path d="M181.592 49.1875L182.443 51.1883C182.443 51.1883 186.104 50.3369 186.436 48.5234" stroke="#263238" stroke-width="0.200275" stroke-miterlimit="10"/>
<path d="M178.594 48.352C178.594 48.352 181.259 44.8613 184.92 44.8613" stroke="#263238" stroke-width="0.200275" stroke-miterlimit="10"/>
<path d="M268.04 105.471C268.04 105.471 274.851 128.015 276.154 134.239C277.456 140.462 275.967 146.311 272.944 149.564C269.922 152.816 251.047 156.741 251.047 156.741L251.821 151.071C251.821 151.071 257.287 138.24 257.483 137.491C257.679 136.742 248.969 109.659 248.969 109.659L268.04 105.471Z" fill="#B2B2B2" stroke="#263238" stroke-width="0.200275" stroke-miterlimit="10"/>
<path d="M269.888 110.17L251.549 115.943C250.119 112.418 248.995 109.617 248.995 109.617L268.041 105.471C268.041 105.471 268.841 107.403 269.888 110.17Z" fill="#263238" stroke="#263238" stroke-width="0.200275" stroke-miterlimit="10"/>
<path d="M270.603 137.143C270.603 137.143 266.141 133.542 258.428 137.994" stroke="#263238" stroke-width="0.200275" stroke-miterlimit="10"/>
<path d="M252.682 68.666C252.682 68.666 255.176 66.6738 258.505 71.9949C261.834 77.3161 274.324 106.629 274.324 106.629L244.525 114.947L242.823 89.8143" fill="#003366"/>
<path d="M252.682 68.666C252.682 68.666 255.176 66.6738 258.505 71.9949C261.834 77.3161 274.324 106.629 274.324 106.629L244.525 114.947L242.823 89.8143" stroke="#263238" stroke-width="0.200275" stroke-miterlimit="10"/>
<path d="M190.539 197.615C190.539 197.615 210.776 195.955 223.393 198.569C230.088 199.879 236.689 201.628 243.154 203.805C243.154 203.805 249.82 204.282 252.195 205.235C254.446 205.994 256.755 206.564 259.1 206.938C259.1 206.938 282.19 210.267 287.902 211.459C293.615 212.651 304.794 212.847 304.794 212.847L310.753 200.229C312.652 196.185 314.321 189.28 315.989 191.179C317.658 193.078 318.842 203.796 318.365 207.849C317.888 211.902 316.662 217.367 316.943 219.275C317.224 221.182 317.658 223.319 316.943 224.034C316.228 224.749 312.89 225.226 312.175 225.226L166.019 225.226C166.019 225.226 181.258 198.373 190.539 197.615Z" fill="white" stroke="#263238" stroke-width="0.200275" stroke-miterlimit="10"/>
<path d="M235.057 201.346L235.057 225.236L166.019 225.236C166.019 225.236 181.258 198.333 190.538 197.617C190.538 197.617 210.776 195.957 223.393 198.571C228.059 199.542 231.975 200.512 235.057 201.346Z" fill="#263238" stroke="#263238" stroke-width="0.200275" stroke-miterlimit="10"/>
<path d="M50.3343 193.096C50.3343 193.096 58.1244 192.295 59.6995 190.678C61.2745 189.06 64.5353 184.505 65.3441 185.57C66.153 186.634 69.3712 190.133 69.3712 190.133C69.3712 190.133 74.4795 187.766 77.4763 189.58C80.4732 191.393 81.1968 200.349 81.1968 200.349C83.845 201.118 86.6691 201.022 89.2594 200.077C93.2864 198.468 112.093 188.524 124.455 187.179C136.817 185.833 151.325 190.669 154.816 190.942C158.306 191.214 165.56 191.214 165.56 191.214L165.56 224.767L84.4236 224.767C84.4236 224.767 80.9244 223.158 80.388 220.74C80.285 220.01 79.948 219.333 79.4275 218.812C78.9071 218.29 78.2314 217.951 77.5019 217.845C76.693 217.573 74.5731 217.564 72.1552 220.246C69.7373 222.928 64.8078 224.503 61.0447 225.04C57.2816 225.576 47.6099 225.039 45.192 223.158C42.7741 221.276 40.3561 215.632 40.3561 215.632C40.3561 215.632 34.1751 214.559 33.9112 211.605C33.6472 208.65 32.8299 205.16 33.9112 203.815C34.764 202.959 35.921 202.475 37.1294 202.469C37.1294 202.469 33.6387 196.288 35.5203 194.143C37.4019 191.997 41.4289 191.725 42.5101 191.453C43.5914 191.18 47.38 184.752 50.3343 193.096Z" fill="white" stroke="#263238" stroke-width="0.200275" stroke-miterlimit="10"/>
<path d="M33.945 211.639C33.6725 208.685 32.8637 205.194 33.945 203.849C34.7978 202.993 35.9548 202.509 37.1632 202.504C37.1632 202.504 33.6726 196.322 35.5541 194.177C37.4357 192.032 41.4627 191.759 42.5439 191.487C43.6252 191.214 47.3798 184.769 50.3341 193.096C50.3341 193.096 45.2258 197.668 46.8349 203.576C48.444 209.485 51.4068 210.294 52.4795 208.685C53.5523 207.075 55.7063 206.531 56.779 207.876C57.8517 209.221 65.1055 208.412 64.8416 209.221C64.5777 210.03 61.3509 213.248 63.4964 215.129C65.6419 217.011 71.2865 214.593 72.3593 212.712C72.9658 211.674 73.5061 210.599 73.9769 209.493L79.1363 217.879C78.1637 217.728 77.1828 217.637 76.199 217.607C75.3476 217.352 75.1688 216.432 73.4405 218.356C71.0226 221.047 64.8416 224.537 61.0785 225.074C57.3154 225.61 47.6437 225.074 45.2258 223.192C42.8079 221.31 40.3899 215.666 40.3899 215.666C40.3899 215.666 34.2089 214.593 33.945 211.639Z" fill="#263238" stroke="#263238" stroke-width="0.200275" stroke-miterlimit="10"/>
<path d="M55.4336 195.25C55.4336 195.25 54.097 197.395 55.7061 200.895L55.4336 195.25Z" fill="white"/>
<path d="M55.4336 195.25C55.4336 195.25 54.097 197.395 55.7061 200.895" stroke="#263238" stroke-width="0.200275" stroke-miterlimit="10"/>
<path d="M58.9329 194.968L61.3509 194.168C61.3509 194.168 61.6148 196.586 61.6148 198.195" fill="white"/>
<path d="M58.9329 194.968L61.3509 194.168C61.3509 194.168 61.6148 196.586 61.6148 198.195" stroke="#263238" stroke-width="0.200275" stroke-miterlimit="10"/>
<path d="M81.2818 220.816C80.4304 216.806 78.0721 214.67 82.8824 207.45C84.6861 204.691 86.8799 202.207 89.3955 200.077C93.6524 198.374 112.221 188.566 124.481 187.23C136.741 185.893 151.35 190.72 154.841 190.993C158.332 191.265 165.585 191.265 165.585 191.265L165.585 224.767L84.6363 224.767C82.8569 223.66 81.5713 222.298 81.2818 220.816Z" fill="#707070" stroke="#263238" stroke-width="0.200275" stroke-miterlimit="10"/>
<path d="M175.862 133.398L237.476 140.899C237.476 140.899 243.163 129.763 245.198 124.987C247.233 120.21 246.662 114.881 247.948 115.349C249.233 115.817 250.187 118.525 252.205 124.91C254.223 131.295 253.124 136.123 252.928 138.949C252.733 141.776 253.38 148.808 252.494 150.639C251.609 152.469 249.353 152.342 244.27 151.958C239.187 151.575 233.696 151.788 233.696 151.788C233.696 151.788 191.476 154.504 190.914 154.504C191.825 154.504 193.936 186.005 194.132 189.07C194.481 194.638 194.643 200.215 194.873 205.791C195.043 209.997 196.95 218.051 192.319 220.614C189.952 221.933 186.359 221.891 183.737 222.112C176.415 222.734 167.969 223.517 160.75 221.942C160.163 221.863 159.59 221.702 159.047 221.465C154.841 219.252 156.399 212.347 157.182 208.737C159.736 196.928 161.328 184.898 162.861 172.979C163.712 166.117 164.64 159.255 165.756 152.435C166.386 148.578 166.701 143.921 168.472 140.363C169.323 138.66 169.995 137.366 170.532 136.37C171.046 135.419 171.821 134.635 172.764 134.109C173.708 133.583 174.783 133.336 175.862 133.398Z" fill="white" stroke="#263238" stroke-width="0.200275" stroke-miterlimit="10"/>
<path d="M190.905 154.502C190.905 154.502 190.65 154.783 182.613 152.441" stroke="#263238" stroke-width="0.200275" stroke-miterlimit="10"/>
<path d="M162.843 172.975C163.053 171.273 163.272 169.57 163.499 167.867L192.557 167.867C193.314 176.858 194.013 187.347 194.123 189.041C194.472 194.609 194.634 200.186 194.864 205.762C195.034 209.968 196.941 218.022 192.31 220.585C189.943 221.904 186.35 221.862 183.728 222.083C176.406 222.705 167.96 223.488 160.741 221.913C160.154 221.833 159.581 221.673 159.038 221.436C154.832 219.222 156.39 212.318 157.173 208.708C159.71 196.925 161.311 184.937 162.843 172.975Z" fill="#263238" stroke="#263238" stroke-width="0.200275" stroke-miterlimit="10"/>
<path d="M94.9464 205.27C94.9464 205.27 127.418 208.778 132.322 209.068C137.226 209.357 144.88 208.48 151.01 209.919C157.14 211.358 176.134 214.006 176.134 214.006C176.134 214.006 189.62 213.154 192.676 213.427C195.733 213.699 203.097 222.477 203.097 222.477L87.8969 222.477C87.8969 222.477 79.315 218.68 79.6215 212.839C79.928 206.999 85.1385 202.061 94.9464 205.27Z" fill="white" stroke="#263238" stroke-width="0.200275" stroke-miterlimit="10"/>
<path d="M118.231 207.739L118.231 222.511L87.8963 222.511C87.8963 222.511 79.3144 218.714 79.6209 212.873C79.9274 207.033 85.1378 202.069 94.9457 205.279C94.9457 205.27 107.538 206.633 118.231 207.739Z" fill="#707070" stroke="#263238" stroke-width="0.200275" stroke-miterlimit="10"/>
<path d="M174.882 136.419C174.882 136.419 169.084 129.131 167.722 129.94C166.359 130.748 166.734 132.596 167.279 133.43C167.824 134.265 172.779 137.823 173.724 138.096C174.669 138.368 175.639 137.704 174.882 136.419Z" fill="#B2B2B2" stroke="#263238" stroke-width="0.200275" stroke-miterlimit="10"/>
<path d="M169.025 145.044C169.025 145.044 164.266 139.085 163.142 139.715C162.018 140.345 162.333 141.903 162.784 142.584C164.377 144.086 166.157 145.376 168.08 146.423C168.846 146.645 169.646 146.108 169.025 145.044Z" fill="#B2B2B2" stroke="#263238" stroke-width="0.200275" stroke-miterlimit="10"/>
<path d="M171.23 142.839C171.23 142.839 165.44 135.551 164.078 136.36C162.716 137.168 163.082 139.016 163.635 139.85C164.189 140.685 169.135 144.243 170.072 144.507C171.008 144.771 171.979 144.124 171.23 142.839Z" fill="#B2B2B2" stroke="#263238" stroke-width="0.200275" stroke-miterlimit="10"/>
<path d="M174.286 140.387C174.286 140.387 167.688 132.086 166.138 133.014C164.589 133.942 165.014 136.045 165.636 136.981C166.257 137.918 171.902 141.987 172.966 142.294C174.031 142.6 175.154 141.86 174.286 140.387Z" fill="#B2B2B2" stroke="#263238" stroke-width="0.200275" stroke-miterlimit="10"/>
<path d="M262.506 145.673C262.506 145.673 262.37 145.8 262.148 146.03C261.357 146.882 259.475 148.993 258.939 150.866C258.258 153.267 257.738 154.817 257.236 154.987C256.734 155.157 252.604 156.017 251.404 153.616C250.203 151.215 256.878 144.736 256.878 144.736C256.878 144.736 262.131 144.072 262.506 145.673Z" fill="#B2B2B2" stroke="#263238" stroke-width="0.200275" stroke-miterlimit="10"/>
<path d="M254.23 143.214C256.086 143.096 257.93 142.84 259.747 142.448C261.127 141.988 262.506 143.98 262.506 145.675C262.506 147.369 254.384 147.207 253.141 145.981C251.898 144.755 252.391 143.674 254.23 143.214Z" fill="#B2B2B2" stroke="#263238" stroke-width="0.200275" stroke-miterlimit="10"/>
<path d="M254.367 144.346C254.367 144.346 260.02 153.771 258.811 155.124C257.602 156.478 255.849 155.388 255.176 154.443C254.503 153.498 252.341 146.372 252.341 145.155C252.341 143.937 253.286 143.035 254.367 144.346Z" fill="#B2B2B2" stroke="#263238" stroke-width="0.200275" stroke-miterlimit="10"/>
<path d="M243.997 148.371C243.997 148.371 248.646 156.119 247.65 157.226C246.654 158.333 245.215 157.447 244.661 156.672C243.6 154.213 242.818 151.643 242.329 149.01C242.329 148.039 243.103 147.29 243.997 148.371Z" fill="#B2B2B2" stroke="#263238" stroke-width="0.200275" stroke-miterlimit="10"/>
<path d="M246.85 146.5C246.85 146.5 252.511 155.916 251.294 157.27C250.076 158.624 248.331 157.534 247.658 156.597C246.986 155.661 244.832 148.518 244.832 147.3C244.832 146.083 245.777 145.146 246.85 146.5Z" fill="#B2B2B2" stroke="#263238" stroke-width="0.200275" stroke-miterlimit="10"/>
<path d="M250.195 143.69C250.195 143.69 256.64 154.418 255.261 155.95C253.882 157.482 251.856 156.256 251.115 155.184C250.374 154.111 247.897 145.989 247.897 144.61C247.897 143.23 248.969 142.183 250.195 143.69Z" fill="#B2B2B2" stroke="#263238" stroke-width="0.200275" stroke-miterlimit="10"/>
<path d="M175.512 220.051L323.116 220.051C325.815 220.051 328.003 222.239 328.003 224.938L328.003 242.936C328.003 245.635 325.815 247.823 323.116 247.823L175.512 247.823C172.813 247.823 170.625 245.635 170.625 242.936L170.625 224.938C170.625 222.239 172.813 220.051 175.512 220.051Z" fill="#474747" stroke="#263238" stroke-width="0.200275" stroke-miterlimit="10"/>
<path d="M18.1348 220.051L165.739 220.051C168.438 220.051 170.626 222.239 170.626 224.938L170.626 242.936C170.626 245.635 168.438 247.823 165.739 247.823L18.1348 247.823C15.4359 247.823 13.2479 245.635 13.2479 242.936L13.2479 224.938C13.2479 222.239 15.4359 220.051 18.1348 220.051Z" fill="#474747" stroke="#263238" stroke-width="0.200275" stroke-miterlimit="10"/>
<path d="M309.486 253.842L318.281 253.842L318.281 379.718L309.486 379.718L309.486 253.842Z" fill="#919191" stroke="#263238" stroke-width="0.200275" stroke-miterlimit="10"/>
<path d="M309.486 253.842L318.281 253.842L318.281 266.204L309.486 266.204L309.486 253.842Z" fill="#263238" stroke="#263238" stroke-width="0.200275" stroke-miterlimit="10"/>
<path d="M27.134 253.842L35.9287 253.842L35.9288 379.718L27.134 379.718L27.134 253.842Z" fill="#919191" stroke="#263238" stroke-width="0.200275" stroke-miterlimit="10"/>
<path d="M27.134 253.842L35.9287 253.842L35.9287 266.204L27.134 266.204L27.134 253.842Z" fill="#263238" stroke="#263238" stroke-width="0.200275" stroke-miterlimit="10"/>
<path d="M165.993 253.842L174.788 253.842L174.788 379.718L165.993 379.718L165.993 253.842Z" fill="#919191" stroke="#263238" stroke-width="0.200275" stroke-miterlimit="10"/>
<path d="M165.993 253.842L174.788 253.842L174.788 266.204L165.993 266.204L165.993 253.842Z" fill="#263238" stroke="#263238" stroke-width="0.200275" stroke-miterlimit="10"/>
<path d="M11.6047 244.52L329.638 244.52L329.638 258.533L11.6047 258.533L11.6047 244.52Z" fill="#919191" stroke="#263238" stroke-width="0.200275" stroke-miterlimit="10"/>
<path d="M401 379.717L-1.19209e-06 379.717" stroke="#263238" stroke-width="0.200275" stroke-miterlimit="10"/>
</svg>
