<svg width="28" height="28" viewBox="0 0 28 28" fill="none" xmlns="http://www.w3.org/2000/svg">
<g clip-path="url(#clip0_1309_5628)">
<path d="M17.5 0.875C17.5 0.642936 17.4078 0.420376 17.2437 0.256282C17.0796 0.0921872 16.8571 0 16.625 0L11.375 0C11.1429 0 10.9204 0.0921872 10.7563 0.256282C10.5922 0.420376 10.5 0.642936 10.5 0.875C10.5 1.10706 10.4078 1.32962 10.2437 1.49372C10.0796 1.65781 9.85706 1.75 9.625 1.75C9.39294 1.75 9.17038 1.84219 9.00628 2.00628C8.84219 2.17038 8.75 2.39294 8.75 2.625V3.5C8.75 3.73206 8.84219 3.95462 9.00628 4.11872C9.17038 4.28281 9.39294 4.375 9.625 4.375H18.375C18.6071 4.375 18.8296 4.28281 18.9937 4.11872C19.1578 3.95462 19.25 3.73206 19.25 3.5V2.625C19.25 2.39294 19.1578 2.17038 18.9937 2.00628C18.8296 1.84219 18.6071 1.75 18.375 1.75C18.1429 1.75 17.9204 1.65781 17.7563 1.49372C17.5922 1.32962 17.5 1.10706 17.5 0.875Z" fill="#003366"/>
<path d="M7.14875 1.75H6.125C5.42881 1.75 4.76113 2.02656 4.26884 2.51884C3.77656 3.01113 3.5 3.67881 3.5 4.375V25.375C3.5 26.0712 3.77656 26.7389 4.26884 27.2312C4.76113 27.7234 5.42881 28 6.125 28H21.875C22.5712 28 23.2389 27.7234 23.7312 27.2312C24.2234 26.7389 24.5 26.0712 24.5 25.375V4.375C24.5 3.67881 24.2234 3.01113 23.7312 2.51884C23.2389 2.02656 22.5712 1.75 21.875 1.75H20.8512C20.9492 2.02533 20.9988 2.317 21 2.625V3.5C21 4.19619 20.7234 4.86387 20.2312 5.35616C19.7389 5.84844 19.0712 6.125 18.375 6.125H9.625C8.92881 6.125 8.26113 5.84844 7.76884 5.35616C7.27656 4.86387 7 4.19619 7 3.5V2.625C7.00117 2.317 7.05075 2.02533 7.14875 1.75ZM14.875 11.375V14H17.5C17.7321 14 17.9546 14.0922 18.1187 14.2563C18.2828 14.4204 18.375 14.6429 18.375 14.875C18.375 15.1071 18.2828 15.3296 18.1187 15.4937C17.9546 15.6578 17.7321 15.75 17.5 15.75H14.875V18.375C14.875 18.6071 14.7828 18.8296 14.6187 18.9937C14.4546 19.1578 14.2321 19.25 14 19.25C13.7679 19.25 13.5454 19.1578 13.3813 18.9937C13.2172 18.8296 13.125 18.6071 13.125 18.375V15.75H10.5C10.2679 15.75 10.0454 15.6578 9.88128 15.4937C9.71719 15.3296 9.625 15.1071 9.625 14.875C9.625 14.6429 9.71719 14.4204 9.88128 14.2563C10.0454 14.0922 10.2679 14 10.5 14H13.125V11.375C13.125 11.1429 13.2172 10.9204 13.3813 10.7563C13.5454 10.5922 13.7679 10.5 14 10.5C14.2321 10.5 14.4546 10.5922 14.6187 10.7563C14.7828 10.9204 14.875 11.1429 14.875 11.375Z" fill="#003366"/>
</g>
<defs>
<clipPath id="clip0_1309_5628">
<rect width="28" height="28" fill="white"/>
</clipPath>
</defs>
</svg>
