<svg width="28" height="28" viewBox="0 0 28 28" fill="none" xmlns="http://www.w3.org/2000/svg">
<path d="M0 7C0 6.07174 0.368749 5.1815 1.02513 4.52513C1.6815 3.86875 2.57174 3.5 3.5 3.5H24.5C25.4283 3.5 26.3185 3.86875 26.9749 4.52513C27.6313 5.1815 28 6.07174 28 7V15.75H0V7ZM20.125 8.75C19.8929 8.75 19.6704 8.84219 19.5063 9.00628C19.3422 9.17038 19.25 9.39294 19.25 9.625V11.375C19.25 11.6071 19.3422 11.8296 19.5063 11.9937C19.6704 12.1578 19.8929 12.25 20.125 12.25H23.625C23.8571 12.25 24.0796 12.1578 24.2437 11.9937C24.4078 11.8296 24.5 11.6071 24.5 11.375V9.625C24.5 9.39294 24.4078 9.17038 24.2437 9.00628C24.0796 8.84219 23.8571 8.75 23.625 8.75H20.125ZM0 19.25V21C0 21.9283 0.368749 22.8185 1.02513 23.4749C1.6815 24.1313 2.57174 24.5 3.5 24.5H24.5C25.4283 24.5 26.3185 24.1313 26.9749 23.4749C27.6313 22.8185 28 21.9283 28 21V19.25H0Z" fill="#003366"/>
</svg>
