<svg width="28" height="28" viewBox="0 0 28 28" fill="none" xmlns="http://www.w3.org/2000/svg">
<path d="M28 7C28 6.07174 27.6313 5.1815 26.9749 4.52513C26.3185 3.86875 25.4283 3.5 24.5 3.5H3.5C2.57174 3.5 1.6815 3.86875 1.02513 4.52513C0.36875 5.1815 0 6.07174 0 7V21C0 21.9283 0.36875 22.8185 1.02513 23.4749C1.6815 24.1313 2.57174 24.5 3.5 24.5H24.5C25.4283 24.5 26.3185 24.1313 26.9749 23.4749C27.6313 22.8185 28 21.9283 28 21V7ZM23.625 8.75C23.8571 8.75 24.0796 8.84219 24.2437 9.00628C24.4078 9.17038 24.5 9.39294 24.5 9.625V11.375C24.5 11.6071 24.4078 11.8296 24.2437 11.9937C24.0796 12.1578 23.8571 12.25 23.625 12.25H20.125C19.8929 12.25 19.6704 12.1578 19.5063 11.9937C19.3422 11.8296 19.25 11.6071 19.25 11.375V9.625C19.25 9.39294 19.3422 9.17038 19.5063 9.00628C19.6704 8.84219 19.8929 8.75 20.125 8.75H23.625ZM23.625 14C23.8571 14 24.0796 14.0922 24.2437 14.2563C24.4078 14.4204 24.5 14.6429 24.5 14.875C24.5 15.1071 24.4078 15.3296 24.2437 15.4937C24.0796 15.6578 23.8571 15.75 23.625 15.75H14.875C14.6429 15.75 14.4204 15.6578 14.2563 15.4937C14.0922 15.3296 14 15.1071 14 14.875C14 14.6429 14.0922 14.4204 14.2563 14.2563C14.4204 14.0922 14.6429 14 14.875 14H23.625ZM23.625 17.5C23.8571 17.5 24.0796 17.5922 24.2437 17.7563C24.4078 17.9204 24.5 18.1429 24.5 18.375C24.5 18.6071 24.4078 18.8296 24.2437 18.9937C24.0796 19.1578 23.8571 19.25 23.625 19.25H21.875C21.6429 19.25 21.4204 19.1578 21.2563 18.9937C21.0922 18.8296 21 18.6071 21 18.375C21 18.1429 21.0922 17.9204 21.2563 17.7563C21.4204 17.5922 21.6429 17.5 21.875 17.5H23.625ZM18.375 17.5C18.6071 17.5 18.8296 17.5922 18.9937 17.7563C19.1578 17.9204 19.25 18.1429 19.25 18.375C19.25 18.6071 19.1578 18.8296 18.9937 18.9937C18.8296 19.1578 18.6071 19.25 18.375 19.25H16.625C16.3929 19.25 16.1704 19.1578 16.0063 18.9937C15.8422 18.8296 15.75 18.6071 15.75 18.375C15.75 18.1429 15.8422 17.9204 16.0063 17.7563C16.1704 17.5922 16.3929 17.5 16.625 17.5H18.375ZM13.125 17.5C13.3571 17.5 13.5796 17.5922 13.7437 17.7563C13.9078 17.9204 14 18.1429 14 18.375C14 18.6071 13.9078 18.8296 13.7437 18.9937C13.5796 19.1578 13.3571 19.25 13.125 19.25H11.375C11.1429 19.25 10.9204 19.1578 10.7563 18.9937C10.5922 18.8296 10.5 18.6071 10.5 18.375C10.5 18.1429 10.5922 17.9204 10.7563 17.7563C10.9204 17.5922 11.1429 17.5 11.375 17.5H13.125ZM7.875 17.5C8.10707 17.5 8.32962 17.5922 8.49372 17.7563C8.65781 17.9204 8.75 18.1429 8.75 18.375C8.75 18.6071 8.65781 18.8296 8.49372 18.9937C8.32962 19.1578 8.10707 19.25 7.875 19.25H6.125C5.89293 19.25 5.67038 19.1578 5.50628 18.9937C5.34219 18.8296 5.25 18.6071 5.25 18.375C5.25 18.1429 5.34219 17.9204 5.50628 17.7563C5.67038 17.5922 5.89293 17.5 6.125 17.5H7.875Z" fill="#003366"/>
</svg>
