<svg width="28" height="28" viewBox="0 0 28 28" fill="none" xmlns="http://www.w3.org/2000/svg">
<path d="M7.875 4.08203H8.16667C8.64991 4.08203 9.04167 3.69028 9.04167 3.20703C9.04167 2.72379 8.64991 2.33203 8.16667 2.33203H7.875C6.42525 2.33203 5.25 3.50728 5.25 4.95703V7.8737C5.25 11.2821 7.79185 14.0967 11.0833 14.5254V19.2487C11.0833 22.4703 13.695 25.082 16.9167 25.082C20.1383 25.082 22.75 22.4703 22.75 19.2487V17.4814C23.9333 17.1097 24.7917 16.0042 24.7917 14.6982C24.7917 13.0874 23.4858 11.7816 21.875 11.7816C20.2642 11.7816 18.9583 13.0874 18.9583 14.6982C18.9583 16.0042 19.8166 17.1097 21 17.4814V19.2487C21 21.5039 19.1718 23.332 16.9167 23.332C14.6615 23.332 12.8333 21.5039 12.8333 19.2487V14.5254C16.1248 14.0967 18.6667 11.2821 18.6667 7.8737V4.95703C18.6667 3.50728 17.4914 2.33203 16.0417 2.33203H15.75C15.2668 2.33203 14.875 2.72379 14.875 3.20703C14.875 3.69028 15.2668 4.08203 15.75 4.08203H16.0417C16.5249 4.08203 16.9167 4.47379 16.9167 4.95703V7.8737C16.9167 10.6121 14.6967 12.832 11.9583 12.832C9.21992 12.832 7 10.6121 7 7.8737V4.95703C7 4.47379 7.39175 4.08203 7.875 4.08203Z" fill="white"/>
</svg>
