<svg width="36" height="36" viewBox="0 0 36 36" fill="none" xmlns="http://www.w3.org/2000/svg">
<path d="M11.625 11.25V16.875H24.375V11.25C24.375 10.6287 24.8787 10.125 25.5 10.125H27.75C29.6139 10.125 31.125 11.636 31.125 13.5V16.875H31.875C32.4963 16.875 33 17.3787 33 18C33 18.6213 32.4963 19.125 31.875 19.125H31.125V22.5C31.125 24.3639 29.6139 25.875 27.75 25.875H25.5C24.8787 25.875 24.375 25.3713 24.375 24.75V19.125H11.625V24.75C11.625 25.3713 11.1213 25.875 10.5 25.875H8.25C6.38604 25.875 4.875 24.3639 4.875 22.5V19.125H4.125C3.50368 19.125 3 18.6213 3 18C3 17.3787 3.50368 16.875 4.125 16.875H4.875V13.5C4.875 11.636 6.38604 10.125 8.25 10.125H10.5C11.1213 10.125 11.625 10.6287 11.625 11.25Z" fill="#003366"/>
</svg>
