<svg width="20" height="18" viewBox="0 0 20 18" fill="none" xmlns="http://www.w3.org/2000/svg">
<path d="M11.2271 0.709271C11.1034 0.493726 10.925 0.314645 10.7099 0.190112C10.4948 0.0655778 10.2507 0 10.0021 0C9.75359 0 9.50945 0.0655778 9.29437 0.190112C9.07928 0.314645 8.90086 0.493726 8.77713 0.709271L0.205877 15.293C-0.365373 16.2655 0.319627 17.5018 1.43088 17.5018H18.5721C19.6834 17.5018 20.3696 16.2643 19.7971 15.293L11.2271 0.709271ZM9.99963 5.00177C10.6684 5.00177 11.1921 5.57927 11.1246 6.24552L10.6871 10.6293C10.6724 10.8015 10.5936 10.9619 10.4663 11.0788C10.339 11.1957 10.1725 11.2606 9.99963 11.2606C9.82679 11.2606 9.66024 11.1957 9.53293 11.0788C9.40562 10.9619 9.32683 10.8015 9.31213 10.6293L8.87463 6.24552C8.85892 6.08831 8.87631 5.92956 8.92568 5.77948C8.97506 5.6294 9.05532 5.49133 9.16131 5.37416C9.26729 5.25699 9.39664 5.16332 9.54103 5.09918C9.68542 5.03504 9.84164 5.00186 9.99963 5.00177ZM10.0021 12.5018C10.3336 12.5018 10.6516 12.6335 10.886 12.8679C11.1204 13.1023 11.2521 13.4203 11.2521 13.7518C11.2521 14.0833 11.1204 14.4012 10.886 14.6357C10.6516 14.8701 10.3336 15.0018 10.0021 15.0018C9.67061 15.0018 9.35266 14.8701 9.11824 14.6357C8.88382 14.4012 8.75213 14.0833 8.75213 13.7518C8.75213 13.4203 8.88382 13.1023 9.11824 12.8679C9.35266 12.6335 9.67061 12.5018 10.0021 12.5018Z" fill="#DC3545"/>
</svg>
