<svg width="28" height="28" viewBox="0 0 28 28" fill="none" xmlns="http://www.w3.org/2000/svg">
<g clip-path="url(#clip0_312_9584)">
<path d="M21 0H7C6.07174 0 5.1815 0.368749 4.52513 1.02513C3.86875 1.6815 3.5 2.57174 3.5 3.5V10.5H24.5V3.5C24.5 2.57174 24.1313 1.6815 23.4749 1.02513C22.8185 0.368749 21.9283 0 21 0ZM24.5 12.25H10.5V15.75H24.5V12.25ZM24.5 17.5H10.5V21H24.5V17.5ZM24.5 22.75H10.5V28H21C21.9283 28 22.8185 27.6313 23.4749 26.9749C24.1313 26.3185 24.5 25.4283 24.5 24.5V22.75ZM8.75 28V22.75H3.5V24.5C3.5 25.4283 3.86875 26.3185 4.52513 26.9749C5.1815 27.6313 6.07174 28 7 28H8.75ZM3.5 21H8.75V17.5H3.5V21ZM3.5 15.75H8.75V12.25H3.5V15.75Z" fill="white"/>
</g>
<defs>
<clipPath id="clip0_312_9584">
<rect width="28" height="28" fill="white"/>
</clipPath>
</defs>
</svg>
