<svg width="36" height="36" viewBox="0 0 36 36" fill="none" xmlns="http://www.w3.org/2000/svg">
<path d="M6 8.37612C6 7.69413 6.27092 7.04008 6.75315 6.55784C7.23539 6.07561 7.88944 5.80469 8.57143 5.80469H13.7143C14.3963 5.80469 15.0503 6.07561 15.5326 6.55784C16.0148 7.04008 16.2857 7.69413 16.2857 8.37612V13.519C16.2857 14.201 16.0148 14.855 15.5326 15.3372C15.0503 15.8195 14.3963 16.0904 13.7143 16.0904H8.57143C7.88944 16.0904 7.23539 15.8195 6.75315 15.3372C6.27092 14.855 6 14.201 6 13.519V8.37612ZM19.7143 8.37612C19.7143 7.69413 19.9852 7.04008 20.4674 6.55784C20.9497 6.07561 21.6037 5.80469 22.2857 5.80469H27.4286C28.1106 5.80469 28.7646 6.07561 29.2468 6.55784C29.7291 7.04008 30 7.69413 30 8.37612V13.519C30 14.201 29.7291 14.855 29.2468 15.3372C28.7646 15.8195 28.1106 16.0904 27.4286 16.0904H22.2857C21.6037 16.0904 20.9497 15.8195 20.4674 15.3372C19.9852 14.855 19.7143 14.201 19.7143 13.519V8.37612ZM6 22.0904C6 21.4084 6.27092 20.7544 6.75315 20.2721C7.23539 19.7899 7.88944 19.519 8.57143 19.519H13.7143C14.3963 19.519 15.0503 19.7899 15.5326 20.2721C16.0148 20.7544 16.2857 21.4084 16.2857 22.0904V27.2333C16.2857 27.9152 16.0148 28.5693 15.5326 29.0515C15.0503 29.5338 14.3963 29.8047 13.7143 29.8047H8.57143C7.88944 29.8047 7.23539 29.5338 6.75315 29.0515C6.27092 28.5693 6 27.9152 6 27.2333V22.0904ZM19.7143 22.0904C19.7143 21.4084 19.9852 20.7544 20.4674 20.2721C20.9497 19.7899 21.6037 19.519 22.2857 19.519H27.4286C28.1106 19.519 28.7646 19.7899 29.2468 20.2721C29.7291 20.7544 30 21.4084 30 22.0904V27.2333C30 27.9152 29.7291 28.5693 29.2468 29.0515C28.7646 29.5338 28.1106 29.8047 27.4286 29.8047H22.2857C21.6037 29.8047 20.9497 29.5338 20.4674 29.0515C19.9852 28.5693 19.7143 27.9152 19.7143 27.2333V22.0904Z" fill="#003366"/>
</svg>
