<svg width="28" height="36" viewBox="0 0 28 36" fill="none" xmlns="http://www.w3.org/2000/svg">
<g clip-path="url(#clip0_829_7093)">
<g clip-path="url(#clip1_829_7093)">
<path d="M17.385 23.3625V25.2369H17.154V26.9727C16.791 26.9199 16.4214 26.8935 16.032 26.8935C15.603 26.8935 15.1542 26.9265 14.6856 26.9991V25.2369H14.4546V23.3625H15.042V21.4551H16.7976V23.3625H17.385Z" fill="#003366"/>
<path d="M17.7526 27.759C16.5184 27.4554 15.2908 27.5214 14.0434 27.7722C13.8256 27.8118 13.621 27.924 13.4692 28.089C10.0778 31.6392 6.82878 29.8872 7.10677 31.3428C7.10677 31.3428 6.67117 31.8906 7.06717 32.0556C7.06717 32.0556 7.13317 32.4582 7.52257 32.3856C7.52257 32.3856 7.56217 32.7618 8.18917 32.6628C8.18917 32.6628 8.42677 33.0258 9.27157 32.9268C9.27157 32.9268 10.7566 33.3822 12.0832 32.9796C13.4097 32.5704 13.6474 32.8938 16.0762 32.742C19.1423 32.5426 19.7586 33.5106 18.5842 28.5774C18.4851 28.1682 18.1618 27.8579 17.7526 27.759Z" fill="#003366"/>
<path d="M22.1019 3.59621C20.7159 2.28274 19.3101 1.55021 17.8647 1.47101C17.1982 1.43801 16.5315 1.53701 15.8583 1.78121C15.8649 3.74801 13.5285 9.28541 13.3305 9.91901C12.9077 11.286 13.5007 13.5687 13.7793 15.8458H13.871C13.8743 16.5176 13.9138 18.1364 14.2084 18.829C14.5846 19.7134 14.5054 20.7958 14.5054 20.7958H17.0992C17.0992 20.7958 17.2642 20.3074 17.6404 19.4626C18.0166 18.6178 18.9274 15.8458 18.9274 15.8458C19.4688 12.0318 19.3984 12.7972 18.8284 11.4832C18.2938 10.2292 19.363 9.05441 19.363 9.05441C20.2275 7.90594 22.1019 3.59621 22.1019 3.59621Z" fill="#003366"/>
</g>
</g>
<defs>
<clipPath id="clip0_829_7093">
<rect width="28" height="36" fill="white"/>
</clipPath>
<clipPath id="clip1_829_7093">
<rect width="33" height="41.25" fill="white" transform="translate(-2 0.804688)"/>
</clipPath>
</defs>
</svg>
