<svg width="28" height="28" viewBox="0 0 28 28" fill="none" xmlns="http://www.w3.org/2000/svg">
<path fill-rule="evenodd" clip-rule="evenodd" d="M7.875 20.125C7.875 19.8929 7.96719 19.6704 8.13128 19.5063C8.29538 19.3422 8.51794 19.25 8.75 19.25H26.25C26.4821 19.25 26.7046 19.3422 26.8687 19.5063C27.0328 19.6704 27.125 19.8929 27.125 20.125C27.125 20.3571 27.0328 20.5796 26.8687 20.7437C26.7046 20.9078 26.4821 21 26.25 21H8.75C8.51794 21 8.29538 20.9078 8.13128 20.7437C7.96719 20.5796 7.875 20.3571 7.875 20.125ZM4.375 13.125C4.375 12.8929 4.46719 12.6704 4.63128 12.5063C4.79538 12.3422 5.01794 12.25 5.25 12.25H22.75C22.9821 12.25 23.2046 12.3422 23.3687 12.5063C23.5328 12.6704 23.625 12.8929 23.625 13.125C23.625 13.3571 23.5328 13.5796 23.3687 13.7437C23.2046 13.9078 22.9821 14 22.75 14H5.25C5.01794 14 4.79538 13.9078 4.63128 13.7437C4.46719 13.5796 4.375 13.3571 4.375 13.125ZM0.875 6.125C0.875 5.89294 0.967187 5.67038 1.13128 5.50628C1.29538 5.34219 1.51794 5.25 1.75 5.25H19.25C19.4821 5.25 19.7046 5.34219 19.8687 5.50628C20.0328 5.67038 20.125 5.89294 20.125 6.125C20.125 6.35706 20.0328 6.57962 19.8687 6.74372C19.7046 6.90781 19.4821 7 19.25 7H1.75C1.51794 7 1.29538 6.90781 1.13128 6.74372C0.967187 6.57962 0.875 6.35706 0.875 6.125Z" fill="white"/>
</svg>
