<svg width="28" height="28" viewBox="0 0 28 28" fill="none" xmlns="http://www.w3.org/2000/svg">
<g clip-path="url(#clip0_1309_24366)">
<path d="M19.25 8.75C19.25 10.1424 18.6969 11.4777 17.7123 12.4623C16.7277 13.4469 15.3924 14 14 14C12.6076 14 11.2723 13.4469 10.2877 12.4623C9.30312 11.4777 8.75 10.1424 8.75 8.75C8.75 7.35761 9.30312 6.02226 10.2877 5.03769C11.2723 4.05312 12.6076 3.5 14 3.5C15.3924 3.5 16.7277 4.05312 17.7123 5.03769C18.6969 6.02226 19.25 7.35761 19.25 8.75ZM3.5 22.75C3.5 24.5 5.25 24.5 5.25 24.5H14.448C14.1507 23.6568 13.9992 22.7691 14 21.875C14 20.7497 14.2411 19.6374 14.7072 18.6132C15.1733 17.5889 15.8535 16.6765 16.702 15.9373C15.8853 15.8148 14.9847 15.7523 14 15.75C5.25 15.75 3.5 21 3.5 22.75ZM20.8005 16.555C21.1155 15.4823 22.6345 15.4823 22.9512 16.555L23.0265 16.814C23.0735 16.9747 23.1559 17.1227 23.2677 17.2474C23.3795 17.372 23.5177 17.4699 23.6724 17.5341C23.827 17.5982 23.994 17.6269 24.1612 17.6179C24.3283 17.609 24.4913 17.5627 24.6383 17.4825L24.8763 17.353C25.858 16.8175 26.9325 17.892 26.3988 18.8737L26.2675 19.1117C26.1876 19.2586 26.1416 19.4215 26.1328 19.5884C26.1241 19.7554 26.1528 19.9221 26.2169 20.0765C26.281 20.2309 26.3789 20.369 26.5033 20.4807C26.6277 20.5923 26.7756 20.6747 26.936 20.7217L27.1968 20.8005C28.2678 21.1155 28.2678 22.6345 27.1968 22.9512L26.9342 23.0265C26.7739 23.0739 26.6262 23.1566 26.502 23.2685C26.3778 23.3805 26.2802 23.5188 26.2164 23.6734C26.1526 23.828 26.1243 23.9948 26.1334 24.1618C26.1426 24.3288 26.189 24.4916 26.2692 24.6383L26.3988 24.8763C26.9325 25.858 25.858 26.9325 24.8763 26.3988L24.6383 26.2675C24.4914 26.1876 24.3285 26.1416 24.1616 26.1328C23.9946 26.1241 23.8279 26.1528 23.6735 26.2169C23.5191 26.281 23.381 26.3789 23.2693 26.5033C23.1577 26.6277 23.0753 26.7756 23.0283 26.936L22.9495 27.1968C22.6345 28.2678 21.1155 28.2678 20.7988 27.1968L20.7235 26.9342C20.6761 26.7739 20.5934 26.6262 20.4815 26.502C20.3695 26.3778 20.2312 26.2802 20.0766 26.2164C19.922 26.1526 19.7552 26.1243 19.5882 26.1334C19.4212 26.1426 19.2584 26.189 19.1117 26.2692L18.8737 26.3988C17.892 26.9325 16.8175 25.858 17.3512 24.8763L17.4825 24.6383C17.5624 24.4914 17.6084 24.3285 17.6172 24.1616C17.6259 23.9946 17.5972 23.8279 17.5331 23.6735C17.469 23.5191 17.3711 23.381 17.2467 23.2693C17.1223 23.1577 16.9744 23.0753 16.814 23.0283L16.555 22.9495C15.4823 22.6345 15.4823 21.1155 16.555 20.7988L16.814 20.7235C16.9747 20.6765 17.1227 20.5941 17.2474 20.4823C17.372 20.3705 17.4699 20.2323 17.5341 20.0776C17.5982 19.923 17.6269 19.756 17.6179 19.5888C17.609 19.4217 17.5627 19.2587 17.4825 19.1117L17.353 18.8737C16.8175 17.892 17.892 16.8175 18.8737 17.3512L19.1117 17.4825C19.2586 17.5624 19.4215 17.6084 19.5884 17.6172C19.7554 17.6259 19.9221 17.5972 20.0765 17.5331C20.2309 17.469 20.369 17.3711 20.4807 17.2467C20.5923 17.1223 20.6747 16.9744 20.7217 16.814L20.8005 16.555ZM24.5 21.875C24.5 21.5303 24.4321 21.1889 24.3002 20.8705C24.1683 20.552 23.9749 20.2626 23.7312 20.0188C23.4874 19.7751 23.198 19.5817 22.8795 19.4498C22.5611 19.3179 22.2197 19.25 21.875 19.25C21.5303 19.25 21.1889 19.3179 20.8705 19.4498C20.552 19.5817 20.2626 19.7751 20.0188 20.0188C19.7751 20.2626 19.5817 20.552 19.4498 20.8705C19.3179 21.1889 19.25 21.5303 19.25 21.875C19.25 22.5712 19.5266 23.2389 20.0188 23.7312C20.5111 24.2234 21.1788 24.5 21.875 24.5C22.5712 24.5 23.2389 24.2234 23.7312 23.7312C24.2234 23.2389 24.5 22.5712 24.5 21.875Z" fill="#003366"/>
</g>
<defs>
<clipPath id="clip0_1309_24366">
<rect width="28" height="28" fill="white"/>
</clipPath>
</defs>
</svg>
